<?xml version="1.0" encoding="iso-8859-1"?>
<!-- Generator: Adobe Illustrator 21.0.0, SVG Export Plug-In . SVG Version: 6.00 Build 0)  -->
<svg version="1.1" id="Capa_1" xmlns="http://www.w3.org/2000/svg" xmlns:xlink="http://www.w3.org/1999/xlink" x="0px" y="0px"
	 viewBox="0 0 858.651 858.651" style="enable-background:new 0 0 858.651 858.651;" xml:space="preserve">
<g>
	<g id="Artboard">
		
			<linearGradient id="SVGID_1_" gradientUnits="userSpaceOnUse" x1="429.3256" y1="893.4662" x2="429.3256" y2="6.1954" gradientTransform="matrix(1 0 0 -1 0 872)">
			<stop  offset="0" style="stop-color:#FFF33B"/>
			<stop  offset="0.014" style="stop-color:#FEE72E"/>
			<stop  offset="0.042" style="stop-color:#FED51B"/>
			<stop  offset="0.07" style="stop-color:#FDCA10"/>
			<stop  offset="0.1" style="stop-color:#FDC70C"/>
			<stop  offset="0.4" style="stop-color:#F3903F"/>
			<stop  offset="0.8" style="stop-color:#ED683C"/>
			<stop  offset="1" style="stop-color:#E93E3A"/>
		</linearGradient>
		<path style="fill:url(#SVGID_1_);" d="M773.73,794.251L612.676,515.19h145.799c7.904,0,14.311-6.407,14.311-14.311V71.554
			c0-7.904-6.407-14.311-14.311-14.311H486.569V14.311C486.569,6.407,480.162,0,472.258,0h-85.865
			c-7.904,0-14.311,6.407-14.311,14.311v42.932H100.177c-7.904,0-14.311,6.407-14.311,14.311v429.325
			c0,7.904,6.407,14.311,14.311,14.311h145.799L84.921,794.251c-3.952,6.845-1.607,15.597,5.238,19.549l74.416,42.932
			c6.845,3.952,15.597,1.607,19.549-5.238l187.958-325.471v318.316c0,7.904,6.407,14.311,14.311,14.311h85.865
			c7.904,0,14.311-6.407,14.311-14.311V526.023l187.958,325.471c3.952,6.844,12.704,9.189,19.549,5.238l74.416-42.932
			C775.336,809.847,777.681,801.095,773.73,794.251z M572.434,457.946v-14.311c0-7.904,6.407-14.311,14.311-14.311h85.865
			c7.904,0,14.311,6.407,14.311,14.311v14.311H572.434z M400.704,28.622h57.243v28.622h-57.243V28.622z M114.488,85.865h629.676
			v400.703h-42.932c7.904,0,14.311-6.407,14.311-14.311v-28.622c0-23.711-19.222-42.932-42.932-42.932h-85.865
			c-23.711,0-42.932,19.221-42.932,42.932v28.622c0,7.904,6.407,14.311,14.311,14.311H114.488V85.865z M166.493,824.804
			l-49.63-28.622L279.062,515.19h66.245L166.493,824.804z M457.947,830.028h-57.243V515.19h57.243V830.028z M692.158,824.804
			L513.373,515.19h66.216l162.199,280.979L692.158,824.804z"/>
	</g>
</g>
<g>
</g>
<g>
</g>
<g>
</g>
<g>
</g>
<g>
</g>
<g>
</g>
<g>
</g>
<g>
</g>
<g>
</g>
<g>
</g>
<g>
</g>
<g>
</g>
<g>
</g>
<g>
</g>
<g>
</g>
</svg>
