<?xml version="1.0" encoding="iso-8859-1"?>
<!-- Generator: Adobe Illustrator 21.0.0, SVG Export Plug-In . SVG Version: 6.00 Build 0)  -->
<svg version="1.1" id="Capa_1" xmlns="http://www.w3.org/2000/svg" xmlns:xlink="http://www.w3.org/1999/xlink" x="0px" y="0px"
	 viewBox="0 0 858.649 858.649" style="enable-background:new 0 0 858.649 858.649;" xml:space="preserve">
<g>
	<g id="Atom">
		
			<linearGradient id="SVGID_1_" gradientUnits="userSpaceOnUse" x1="429.3246" y1="857.6892" x2="429.3246" y2="-48.658" gradientTransform="matrix(1 0 0 -1 0 843.3784)">
			<stop  offset="0" style="stop-color:#FFF33B"/>
			<stop  offset="0.014" style="stop-color:#FEE72E"/>
			<stop  offset="0.042" style="stop-color:#FED51B"/>
			<stop  offset="0.07" style="stop-color:#FDCA10"/>
			<stop  offset="0.1" style="stop-color:#FDC70C"/>
			<stop  offset="0.4" style="stop-color:#F3903F"/>
			<stop  offset="0.8" style="stop-color:#ED683C"/>
			<stop  offset="1" style="stop-color:#E93E3A"/>
		</linearGradient>
		<path style="fill:url(#SVGID_1_);" d="M695.966,429.224c58.56-54.295,98.63-108.032,110.394-152.067
			c6.794-20.688,4.877-43.25-5.309-62.495c-6.802-11.368-16.666-20.593-28.464-26.618c0-0.673,0.2-1.288,0.2-1.961
			c0.076-31.559-25.446-57.205-57.005-57.281c-28.03-0.068-51.971,20.206-56.523,47.864c-32.756,4.343-65.072,11.526-96.584,21.466
			C534.211,72.026,486.027,0,429.327,0S324.4,72.084,295.936,198.191c-123.517-38.367-210.069-32.629-238.347,16.472
			c-11.034,19.048-17.087,52.635,13.538,106.201c-20.615,23.686-18.126,59.6,5.56,80.215c17.743,15.443,43.163,18.365,63.948,7.353
			c6.769,6.841,14.039,13.839,21.953,21.108C104.085,483.806,64.058,537.5,52.294,581.52c-6.795,20.676-4.888,43.225,5.281,62.467
			c16.515,28.622,51.991,41.072,98.745,41.072c47.472-1.568,94.466-10.008,139.516-25.058
			c28.45,126.393,76.706,198.648,133.491,198.648c26.017,0,50.188-15.169,72.012-44.821c30.515,7.766,61.549-10.677,69.314-41.192
			c5.759-22.629-2.863-46.483-21.759-60.2c5.009-15.957,9.646-33.316,13.853-51.934c44.764,15.105,91.497,23.576,138.715,25.144
			c49.172,0,83.647-13.939,99.603-41.644C829.515,594.901,791.105,517.021,695.966,429.224z M114.489,386.392
			c-15.807,0-28.622-12.814-28.622-28.622s12.814-28.622,28.622-28.622s28.622,12.814,28.622,28.622
			S130.296,386.392,114.489,386.392z M82.361,629.676c-6.229-12.73-7.095-27.426-2.404-40.8
			c10.719-40.07,48.413-89.8,103.868-140.59c29.06,25.123,59.591,48.491,91.432,69.98c2.797,38.221,7.756,76.254,14.855,113.914
			C181.564,665.911,101.896,663.521,82.361,629.676z M273.21,482.031c-24.29-17.23-46.868-34.856-67.733-52.878
			c20.693-17.617,43.376-35.219,67.733-52.506c-0.773,17.831-1.302,35.505-1.302,52.678S272.438,464.171,273.21,482.031z
			 M275.243,340.469c-31.693,21.547-62.142,44.867-91.203,69.851c-7.928-7.213-15.236-14.172-21.924-20.879
			c17.661-26.021,10.883-61.433-15.139-79.093c-15.387-10.443-34.905-12.715-52.28-6.085
			c-17.688-31.856-22.167-58.317-12.322-75.289c20.321-35.248,101.278-36.02,207.764-2.605
			C283.025,264.09,278.051,302.185,275.243,340.469z M552.987,320.434c-14.397-9.159-29.237-18.332-44.95-27.391
			c-15.27-8.815-30.725-17.173-46.195-25.23c26.947-12.307,53.537-23.098,79.282-32.199c5.018,26.904,8.973,55.163,11.864,84.777
			V320.434z M429.327,28.622c40.714,0,81.815,69.722,106.086,178.613c-36.178,12.673-71.598,27.414-106.086,44.149
			c-34.502-16.735-69.937-31.476-106.129-44.149C347.512,98.358,388.599,28.622,429.327,28.622z M317.531,235.57
			c26.203,9.259,52.721,19.935,79.282,32.085c-15.384,8.043-30.797,16.443-46.195,25.344c-15.398,8.901-30.31,18.089-44.95,27.405
			C308.501,290.839,312.494,262.503,317.531,235.57z M305.667,538.259c14.397,9.159,29.237,18.332,44.95,27.391
			c15.298,8.83,30.783,17.173,46.281,25.273c-27.548,12.579-54.109,23.284-79.368,32.156
			C312.513,596.146,308.558,567.872,305.667,538.259z M475.995,799.975c-10.309,16.462-27.415,27.478-46.668,30.053
			c-40.772,0-81.901-69.88-106.158-178.985c36.086-12.651,71.441-27.3,105.9-43.877c34.574,16.778,70.086,31.552,106.358,44.249
			c-4.007,18.146-8.429,35.062-13.223,50.531c-2.319-0.391-4.662-0.63-7.012-0.716c-31.527-0.093-57.161,25.39-57.253,56.918
			C457.892,773.992,464.433,789.142,475.995,799.975z M515.192,787.095c-15.807,0-28.622-12.814-28.622-28.622
			c0-15.807,12.814-28.622,28.622-28.622c15.807,0,28.622,12.814,28.622,28.622C543.814,774.281,530.999,787.095,515.192,787.095z
			 M541.123,623.079c-26.232-9.273-52.75-20.035-79.339-32.114c15.58-8.071,30.997-16.51,46.253-25.316
			c15.398-8.887,30.325-18.089,44.95-27.405C550.153,567.81,546.161,596.146,541.123,623.079z M555.778,502.31
			c-19.878,13.166-40.543,26.074-62.052,38.496c-21.838,12.613-43.305,24.128-64.399,34.546
			c-21.466-10.733-43.161-22.268-64.399-34.546c-22.096-12.737-42.775-25.616-62.052-38.496
			c-1.488-24.801-2.347-49.358-2.347-72.985s0.859-48.242,2.347-72.985c19.878-13.18,40.557-26.089,62.066-38.51
			s42.932-23.87,64.399-34.532c21.466,10.733,43.161,22.268,64.399,34.546c22.096,12.751,42.775,25.759,62.052,38.553
			c1.431,24.801,2.347,49.358,2.347,72.985S557.266,477.566,555.778,502.31z M715.544,157.419c15.807,0,28.622,12.814,28.622,28.622
			s-12.814,28.622-28.622,28.622c-15.807,0-28.622-12.814-28.622-28.622S699.736,157.419,715.544,157.419z M661.749,204.888
			c10.204,29.705,42.557,45.515,72.262,35.311c12.472-4.284,23.068-12.77,29.974-24.005c5.007,3.291,9.213,7.663,12.307,12.794
			c6.229,12.73,7.095,27.426,2.404,40.8c-10.719,40.07-48.413,89.8-103.868,140.59c-29.06-25.123-59.591-48.491-91.432-69.98
			c-2.798-38.265-7.767-76.341-14.883-114.043C598.918,216.534,630.112,209.352,661.749,204.888z M585.444,376.618
			c24.29,17.23,46.873,34.88,67.747,52.95c-20.708,17.617-43.39,35.219-67.747,52.506c0.773-17.903,1.302-35.577,1.302-52.75
			S586.217,394.478,585.444,376.618z M776.279,629.676c-20.321,35.248-101.278,36.006-207.765,2.605
			c7.116-37.726,12.09-75.826,14.898-114.114c31.671-21.531,62.101-44.833,91.146-69.794
			C756.802,523.919,796.7,594.414,776.279,629.676z"/>
		
			<linearGradient id="SVGID_2_" gradientUnits="userSpaceOnUse" x1="429.3272" y1="857.6892" x2="429.3272" y2="-48.658" gradientTransform="matrix(1 0 0 -1 0 843.3784)">
			<stop  offset="0" style="stop-color:#FFF33B"/>
			<stop  offset="0.014" style="stop-color:#FEE72E"/>
			<stop  offset="0.042" style="stop-color:#FED51B"/>
			<stop  offset="0.07" style="stop-color:#FDCA10"/>
			<stop  offset="0.1" style="stop-color:#FDC70C"/>
			<stop  offset="0.4" style="stop-color:#F3903F"/>
			<stop  offset="0.8" style="stop-color:#ED683C"/>
			<stop  offset="1" style="stop-color:#E93E3A"/>
		</linearGradient>
		<path style="fill:url(#SVGID_2_);" d="M429.327,357.771c-39.518,0-71.554,32.036-71.554,71.554s32.036,71.554,71.554,71.554
			s71.554-32.036,71.554-71.554C500.834,389.826,468.826,357.818,429.327,357.771z M429.327,472.257
			c-23.711,0-42.932-19.222-42.932-42.932c0-23.711,19.221-42.932,42.932-42.932c23.711,0,42.932,19.222,42.932,42.932
			C472.26,453.036,453.038,472.257,429.327,472.257z"/>
	</g>
</g>
<g>
</g>
<g>
</g>
<g>
</g>
<g>
</g>
<g>
</g>
<g>
</g>
<g>
</g>
<g>
</g>
<g>
</g>
<g>
</g>
<g>
</g>
<g>
</g>
<g>
</g>
<g>
</g>
<g>
</g>
</svg>
