<?xml version="1.0" encoding="iso-8859-1"?>
<!-- Generator: Adobe Illustrator 21.0.0, SVG Export Plug-In . SVG Version: 6.00 Build 0)  -->
<svg version="1.1" id="Capa_1" xmlns="http://www.w3.org/2000/svg" xmlns:xlink="http://www.w3.org/1999/xlink" x="0px" y="0px"
	 viewBox="0 0 858.664 858.664" style="enable-background:new 0 0 858.664 858.664;" xml:space="preserve">
<g>
	<g id="Document_paper-atom">
		
			<linearGradient id="SVGID_1_" gradientUnits="userSpaceOnUse" x1="357.7104" y1="815.4579" x2="357.7104" y2="-74.5177" gradientTransform="matrix(1 0 0 -1 0 843.3784)">
			<stop  offset="0" style="stop-color:#FFF33B"/>
			<stop  offset="0.014" style="stop-color:#FEE72E"/>
			<stop  offset="0.042" style="stop-color:#FED51B"/>
			<stop  offset="0.07" style="stop-color:#FDCA10"/>
			<stop  offset="0.1" style="stop-color:#FDC70C"/>
			<stop  offset="0.4" style="stop-color:#F3903F"/>
			<stop  offset="0.8" style="stop-color:#ED683C"/>
			<stop  offset="1" style="stop-color:#E93E3A"/>
		</linearGradient>
		<path style="fill:url(#SVGID_1_);" d="M658.238,615.38c-7.904,0-14.311,6.407-14.311,14.311v186.041
			c0,7.904-6.407,14.311-14.311,14.311H85.805c-7.904,0-14.311-6.407-14.311-14.311V42.947c0-7.904,6.407-14.311,14.311-14.311
			h415.014v114.487c0,15.807,12.814,28.622,28.622,28.622h114.487v57.243c0,7.904,6.407,14.311,14.311,14.311
			c7.904,0,14.311-6.407,14.311-14.311v-71.554c0-0.315-0.157-0.601-0.186-0.916c-0.07-1.213-0.301-2.411-0.687-3.563
			c-0.172-0.487-0.301-0.945-0.501-1.431c-0.613-1.375-1.444-2.641-2.461-3.749c-0.1-0.115-0.129-0.258-0.243-0.372L528.696,4.293
			c-2.698-2.753-6.392-4.3-10.247-4.293H85.805C62.094,0,42.872,19.222,42.872,42.932c0,0.005,0,0.01,0,0.014v772.784
			c0,23.711,19.222,42.932,42.932,42.932h543.811c23.711,0,42.932-19.222,42.932-42.932V629.69
			C672.548,621.787,666.141,615.38,658.238,615.38z M529.44,143.123V48.871l94.251,94.251H529.44z"/>
		
			<linearGradient id="SVGID_2_" gradientUnits="userSpaceOnUse" x1="658.2256" y1="819.8943" x2="658.2256" y2="-74.5892" gradientTransform="matrix(1 0 0 -1 0 843.3784)">
			<stop  offset="0" style="stop-color:#FFF33B"/>
			<stop  offset="0.014" style="stop-color:#FEE72E"/>
			<stop  offset="0.042" style="stop-color:#FED51B"/>
			<stop  offset="0.07" style="stop-color:#FDCA10"/>
			<stop  offset="0.1" style="stop-color:#FDC70C"/>
			<stop  offset="0.4" style="stop-color:#F3903F"/>
			<stop  offset="0.8" style="stop-color:#ED683C"/>
			<stop  offset="1" style="stop-color:#E93E3A"/>
		</linearGradient>
		<path style="fill:url(#SVGID_2_);" d="M772.724,428.852c24.328-28.207,36.063-56.513,23.913-78.094
			c-5.831-9.767-15.446-16.684-26.561-19.105c-17.126-3.465-34.809-3.069-51.762,1.159c-11.62-43.72-31.741-75.203-60.077-75.203
			c-28.335,0-48.456,31.484-60.02,75.203c-16.955-4.221-34.636-4.616-51.762-1.159c-11.115,2.421-20.73,9.338-26.561,19.105
			c-12.15,21.581-0.472,49.959,23.856,78.094c-33.802,32.915-52.578,67.876-38.224,93.349c5.835,9.764,15.448,16.679,26.561,19.105
			c6.83,1.715,13.853,2.538,20.894,2.447c16.287-0.407,32.443-3.022,48.027-7.771c11.964,38.367,31.126,65.086,57.229,65.086
			c26.103,0,45.265-26.733,57.243-65.086c15.584,4.749,31.74,7.363,48.027,7.771c7.041,0.091,14.064-0.732,20.894-2.447
			c11.113-2.426,20.726-9.341,26.561-19.105C825.245,496.729,806.469,461.839,772.724,428.852z M671.718,473.702
			c-4.594,2.719-9.002,5.009-13.481,7.442c-4.479-2.433-8.887-4.723-13.481-7.442c-10.318-6.096-19.792-12.365-28.622-18.604
			c-0.487-8.3-0.83-16.829-0.83-25.759c0-7.256,0.243-14.225,0.587-21.051c4.694-3.048,9.502-6.068,14.554-9.059
			c9.56-5.653,18.79-10.476,27.792-14.883c9.002,4.408,18.232,9.23,27.792,14.883c5.052,2.991,9.86,6.011,14.554,9.059
			c0.343,6.826,0.587,13.796,0.587,21.051c0,8.93-0.343,17.459-0.859,25.759C691.51,461.367,682.036,467.635,671.718,473.702z
			 M696.047,492.307c-0.358,2.132-0.716,4.293-1.102,6.34c-1.875-0.759-3.664-1.431-5.596-2.204c2.29-1.345,4.541-2.724,6.755-4.136
			L696.047,492.307z M626.997,496.428c-1.918,0.83-3.706,1.431-5.581,2.204c-0.386-2.061-0.744-4.193-1.102-6.325
			c2.275,1.431,4.494,2.862,6.74,4.136L626.997,496.428z M586.684,429.339c0,0.716,0,1.431,0,2.147l-1.274-1.188L586.684,429.339z
			 M620.028,368.275c1.431,0.487,2.862,1.059,4.293,1.574c-1.674,0.945-3.349,1.817-5.023,2.776c0.301-1.417,0.487-2.862,0.73-4.308
			V368.275z M697.134,372.568c-1.674-0.973-3.349-1.846-5.037-2.862c1.431-0.515,2.948-1.088,4.293-1.574
			c0.301,1.631,0.487,3.077,0.744,4.551L697.134,372.568z M729.792,429.339l1.231,0.959l-1.231,1.231
			C729.792,430.77,729.792,430.097,729.792,429.339z M748.997,357.785c4.583-0.079,9.157,0.431,13.61,1.517
			c3.616,0.582,6.859,2.56,9.03,5.51c4.293,7.556-2.862,24.471-20.45,44.922c-7.299-5.953-15.012-11.749-23.012-17.345
			c-0.916-10.833-2.232-21.466-3.964-31.698C732.359,358.92,740.66,357.947,748.997,357.785z M658.238,286.231
			c10.103,0,23.212,20.035,32.285,54.095c-10.966,3.578-21.742,7.714-32.285,12.393c-10.546-4.681-21.327-8.813-32.299-12.379
			C635.011,306.266,648.134,286.231,658.238,286.231z M544.839,364.811c2.171-2.949,5.414-4.928,9.03-5.51
			c4.453-1.085,9.027-1.595,13.61-1.517c8.335,0.148,16.637,1.107,24.786,2.862c-1.732,10.247-3.048,20.865-3.964,31.698
			c-8,5.596-15.742,11.449-23.012,17.345C547.729,389.269,540.574,372.368,544.839,364.811z M539.558,513.644
			c-3.613-0.579-6.855-2.552-9.03-5.495c-5.181-9.202,6.497-32.257,33.33-58.674c7.685,7.155,15.985,14.096,24.801,20.851
			c1.167,12.725,2.982,25.383,5.438,37.924c-17.467,6.222-36.19,8.079-54.539,5.409V513.644z M658.238,572.447
			c-9.245,0-21.008-16.787-29.895-45.694c9.789-3.821,19.778-8.3,29.895-13.295c10.118,4.994,20.121,9.474,29.895,13.295
			C679.246,555.661,667.482,572.447,658.238,572.447z M785.947,508.163c-2.175,2.943-5.417,4.916-9.03,5.495
			c-18.346,2.689-37.072,0.841-54.539-5.381c2.456-12.545,4.271-25.208,5.438-37.938c8.815-6.755,17.173-13.738,24.801-20.851
			C779.45,475.906,791.128,498.961,785.947,508.163z"/>
	</g>
</g>
<g>
</g>
<g>
</g>
<g>
</g>
<g>
</g>
<g>
</g>
<g>
</g>
<g>
</g>
<g>
</g>
<g>
</g>
<g>
</g>
<g>
</g>
<g>
</g>
<g>
</g>
<g>
</g>
<g>
</g>
</svg>
