<?xml version="1.0" encoding="iso-8859-1"?>
<!-- Generator: Adobe Illustrator 21.0.0, SVG Export Plug-In . SVG Version: 6.00 Build 0)  -->
<svg version="1.1" id="Capa_1" xmlns="http://www.w3.org/2000/svg" xmlns:xlink="http://www.w3.org/1999/xlink" x="0px" y="0px"
	 viewBox="0 0 858.692 858.692" style="enable-background:new 0 0 858.692 858.692;" xml:space="preserve">
<g>
	<g id="Document_paper-pen">
		
			<linearGradient id="SVGID_1_" gradientUnits="userSpaceOnUse" x1="343.4812" y1="840.23" x2="343.4812" y2="-15.9006" gradientTransform="matrix(1 0 0 -1 0 843.3784)">
			<stop  offset="0" style="stop-color:#FFF33B"/>
			<stop  offset="0.014" style="stop-color:#FEE72E"/>
			<stop  offset="0.042" style="stop-color:#FED51B"/>
			<stop  offset="0.07" style="stop-color:#FDCA10"/>
			<stop  offset="0.1" style="stop-color:#FDC70C"/>
			<stop  offset="0.4" style="stop-color:#F3903F"/>
			<stop  offset="0.8" style="stop-color:#ED683C"/>
			<stop  offset="1" style="stop-color:#E93E3A"/>
		</linearGradient>
		<path style="fill:url(#SVGID_1_);" d="M657.432,152.954c-0.157-0.472-0.286-0.916-0.487-1.431
			c-0.602-1.345-1.413-2.587-2.404-3.678c-0.115-0.129-0.172-0.315-0.286-0.444L514.467,4.293c-2.698-2.753-6.392-4.3-10.247-4.293
			H42.954C35.05,0,28.643,6.407,28.643,14.311c0,0.014,0,0.029,0,0.043v830.028c0,7.904,6.407,14.311,14.311,14.311h601.054
			c7.904,0,14.311-6.407,14.311-14.311V157.462c0-0.315-0.157-0.587-0.172-0.902C658.067,155.332,657.826,154.12,657.432,152.954z
			 M609.462,143.151h-94.251V48.9L609.462,143.151z M57.265,830.071V28.665h429.325v114.487c0,15.807,12.814,28.622,28.622,28.622
			h114.487v658.298H57.265z"/>
		
			<linearGradient id="SVGID_2_" gradientUnits="userSpaceOnUse" x1="758.495" y1="850.7484" x2="758.495" y2="-14.4838" gradientTransform="matrix(1 0 0 -1 0 843.3784)">
			<stop  offset="0" style="stop-color:#FFF33B"/>
			<stop  offset="0.014" style="stop-color:#FEE72E"/>
			<stop  offset="0.042" style="stop-color:#FED51B"/>
			<stop  offset="0.07" style="stop-color:#FDCA10"/>
			<stop  offset="0.1" style="stop-color:#FDC70C"/>
			<stop  offset="0.4" style="stop-color:#F3903F"/>
			<stop  offset="0.8" style="stop-color:#ED683C"/>
			<stop  offset="1" style="stop-color:#E93E3A"/>
		</linearGradient>
		<path style="fill:url(#SVGID_2_);" d="M815.738,429.368h-42.932v-71.554c0-7.904-6.407-14.311-14.311-14.311h-57.243
			c-7.904,0-14.311,6.407-14.311,14.311V815.76c0.001,3.795,1.509,7.435,4.193,10.118l28.622,28.622
			c5.588,5.587,14.647,5.587,20.235,0l28.622-28.622c2.684-2.683,4.192-6.323,4.193-10.118V457.989h28.622v100.176
			c0,7.904,6.407,14.311,14.311,14.311s14.311-6.407,14.311-14.311V443.678C830.049,435.775,823.642,429.368,815.738,429.368z
			 M744.184,744.206h-28.622V457.989h28.622V744.206z M715.563,372.124h28.622v57.243h-28.622V372.124z M744.184,809.835
			l-14.311,14.311l-14.311-14.311v-37.008h28.622V809.835z"/>
	</g>
</g>
<g>
</g>
<g>
</g>
<g>
</g>
<g>
</g>
<g>
</g>
<g>
</g>
<g>
</g>
<g>
</g>
<g>
</g>
<g>
</g>
<g>
</g>
<g>
</g>
<g>
</g>
<g>
</g>
<g>
</g>
</svg>
