<?xml version="1.0" encoding="iso-8859-1"?>
<!-- Generator: Adobe Illustrator 21.0.0, SVG Export Plug-In . SVG Version: 6.00 Build 0)  -->
<svg version="1.1" id="Capa_1" xmlns="http://www.w3.org/2000/svg" xmlns:xlink="http://www.w3.org/1999/xlink" x="0px" y="0px"
	 viewBox="0 0 858.692 858.692" style="enable-background:new 0 0 858.692 858.692;" xml:space="preserve">
<g>
	<g id="Document_paper-pencil">
		
			<linearGradient id="SVGID_1_" gradientUnits="userSpaceOnUse" x1="370.5803" y1="845.6108" x2="370.5803" y2="-44.3648" gradientTransform="matrix(1 0 0 -1 0 843.3784)">
			<stop  offset="0" style="stop-color:#FFF33B"/>
			<stop  offset="0.014" style="stop-color:#FEE72E"/>
			<stop  offset="0.042" style="stop-color:#FED51B"/>
			<stop  offset="0.07" style="stop-color:#FDCA10"/>
			<stop  offset="0.1" style="stop-color:#FDC70C"/>
			<stop  offset="0.4" style="stop-color:#F3903F"/>
			<stop  offset="0.8" style="stop-color:#ED683C"/>
			<stop  offset="1" style="stop-color:#E93E3A"/>
		</linearGradient>
		<path style="fill:url(#SVGID_1_);" d="M671.107,615.408c-7.904,0-14.311,6.407-14.311,14.311V815.76
			c0,7.904-6.407,14.311-14.311,14.311H98.675c-7.904,0-14.311-6.407-14.311-14.311V42.975c0-7.904,6.407-14.311,14.311-14.311
			h415.014v114.487c0,15.807,12.814,28.622,28.622,28.622h114.487v57.243c0,7.904,6.407,14.311,14.311,14.311
			s14.311-6.407,14.311-14.311v-71.554c0-0.315-0.157-0.587-0.172-0.902c-0.081-1.228-0.321-2.44-0.716-3.606
			c-0.157-0.472-0.286-0.916-0.487-1.431c-0.602-1.345-1.413-2.587-2.404-3.678c-0.115-0.129-0.172-0.315-0.286-0.444L541.566,4.293
			c-2.698-2.753-6.392-4.3-10.247-4.293H98.675C74.964,0,55.742,19.222,55.742,42.932c0,0.014,0,0.029,0,0.043V815.76
			c0,23.711,19.222,42.932,42.932,42.932h543.811c23.711,0,42.932-19.222,42.932-42.932V629.719
			C685.418,621.815,679.011,615.408,671.107,615.408z M542.31,143.151V48.9l94.251,94.251H542.31z"/>
		
			<linearGradient id="SVGID_2_" gradientUnits="userSpaceOnUse" x1="636.853" y1="852.4657" x2="636.853" y2="-46.8406" gradientTransform="matrix(1 0 0 -1 0 843.3784)">
			<stop  offset="0" style="stop-color:#FFF33B"/>
			<stop  offset="0.014" style="stop-color:#FEE72E"/>
			<stop  offset="0.042" style="stop-color:#FED51B"/>
			<stop  offset="0.07" style="stop-color:#FDCA10"/>
			<stop  offset="0.1" style="stop-color:#FDC70C"/>
			<stop  offset="0.4" style="stop-color:#F3903F"/>
			<stop  offset="0.8" style="stop-color:#ED683C"/>
			<stop  offset="1" style="stop-color:#E93E3A"/>
		</linearGradient>
		<path style="fill:url(#SVGID_2_);" d="M798.76,342.186l-40.471-40.471c-5.677-5.368-14.559-5.368-20.236,0l-263.104,263.09
			c-2.684,2.683-4.192,6.323-4.193,10.118v40.485c0,7.904,6.407,14.311,14.311,14.311h40.471c3.795-0.001,7.435-1.509,10.118-4.193
			L798.76,362.422C804.347,356.833,804.347,347.774,798.76,342.186z M519.613,601.097h-20.236v-20.25l5.925-5.925l20.236,20.25
			L519.613,601.097z M545.773,574.937l-20.235-20.25L707.7,372.539l20.236,20.25L545.773,574.937z M748.171,372.539l-20.236-20.236
			l20.236-20.25l20.25,20.25L748.171,372.539z"/>
	</g>
</g>
<g>
</g>
<g>
</g>
<g>
</g>
<g>
</g>
<g>
</g>
<g>
</g>
<g>
</g>
<g>
</g>
<g>
</g>
<g>
</g>
<g>
</g>
<g>
</g>
<g>
</g>
<g>
</g>
<g>
</g>
</svg>
