<?xml version="1.0" encoding="iso-8859-1"?>
<!-- Generator: Adobe Illustrator 21.0.0, SVG Export Plug-In . SVG Version: 6.00 Build 0)  -->
<svg version="1.1" id="Capa_1" xmlns="http://www.w3.org/2000/svg" xmlns:xlink="http://www.w3.org/1999/xlink" x="0px" y="0px"
	 viewBox="0 0 858.692 858.692" style="enable-background:new 0 0 858.692 858.692;" xml:space="preserve">
<g>
	<g id="Document_paper-Search-World">
		
			<linearGradient id="SVGID_1_" gradientUnits="userSpaceOnUse" x1="342.2837" y1="865.4313" x2="342.2837" y2="-24.5443" gradientTransform="matrix(1 0 0 -1 0 843.3784)">
			<stop  offset="0" style="stop-color:#FFF33B"/>
			<stop  offset="0.014" style="stop-color:#FEE72E"/>
			<stop  offset="0.042" style="stop-color:#FED51B"/>
			<stop  offset="0.07" style="stop-color:#FDCA10"/>
			<stop  offset="0.1" style="stop-color:#FDC70C"/>
			<stop  offset="0.4" style="stop-color:#F3903F"/>
			<stop  offset="0.8" style="stop-color:#ED683C"/>
			<stop  offset="1" style="stop-color:#E93E3A"/>
		</linearGradient>
		<path style="fill:url(#SVGID_1_);" d="M642.811,615.408c-7.904,0-14.311,6.407-14.311,14.311V815.76
			c0,7.904-6.407,14.311-14.311,14.311H70.378c-7.904,0-14.311-6.407-14.311-14.311V42.975c0-7.904,6.407-14.311,14.311-14.311
			h415.014v114.487c0,15.807,12.814,28.622,28.622,28.622H628.5v57.243c0,7.904,6.407,14.311,14.311,14.311
			c7.904,0,14.311-6.407,14.311-14.311v-71.554c0-0.315-0.157-0.587-0.172-0.902c-0.081-1.228-0.321-2.44-0.716-3.606
			c-0.157-0.472-0.286-0.916-0.487-1.431c-0.602-1.345-1.413-2.587-2.404-3.678c-0.115-0.129-0.172-0.315-0.286-0.444L513.269,4.293
			c-2.698-2.753-6.392-4.3-10.247-4.293H70.378C46.667,0,27.446,19.222,27.446,42.932c0,0.014,0,0.029,0,0.043V815.76
			c0,23.711,19.222,42.932,42.932,42.932h543.811c23.711,0,42.932-19.222,42.932-42.932V629.719
			C657.122,621.815,650.715,615.408,642.811,615.408z M514.013,143.151V48.9l94.251,94.251H514.013z"/>
		
			<linearGradient id="SVGID_2_" gradientUnits="userSpaceOnUse" x1="615.0463" y1="868.3937" x2="615.0463" y2="-22.4692" gradientTransform="matrix(1 0 0 -1 0 843.3784)">
			<stop  offset="0" style="stop-color:#FFF33B"/>
			<stop  offset="0.014" style="stop-color:#FEE72E"/>
			<stop  offset="0.042" style="stop-color:#FED51B"/>
			<stop  offset="0.07" style="stop-color:#FDCA10"/>
			<stop  offset="0.1" style="stop-color:#FDC70C"/>
			<stop  offset="0.4" style="stop-color:#F3903F"/>
			<stop  offset="0.8" style="stop-color:#ED683C"/>
			<stop  offset="1" style="stop-color:#E93E3A"/>
		</linearGradient>
		<path style="fill:url(#SVGID_2_);" d="M818.734,613.677l-98.745-98.745c47.467-82.321,19.212-187.535-63.109-235.002
			s-187.535-19.212-235.002,63.109s-19.212,187.535,63.109,235.002c54.274,31.295,121.268,30.616,174.896-1.772l98.072,98.086
			c16.765,16.768,43.948,16.77,60.716,0.005c0.002-0.002,0.003-0.003,0.005-0.005l0,0c16.76-16.765,16.76-43.941,0-60.706
			L818.734,613.677z M470.008,530.674c-55.923-55.918-55.927-146.584-0.009-202.507c55.918-55.923,146.584-55.927,202.507-0.009
			c55.923,55.918,55.927,146.584,0.009,202.507c-0.003,0.003-0.006,0.006-0.009,0.009c-55.971,55.812-146.558,55.787-202.498-0.057
			V530.674z M798.498,654.205L798.498,654.205c-5.657,5.419-14.579,5.419-20.236,0l-91.088-91.131l20.235-20.236l91.074,91.074
			c5.587,5.588,5.587,14.647,0,20.236L798.498,654.205z"/>
		
			<linearGradient id="SVGID_3_" gradientUnits="userSpaceOnUse" x1="571.2711" y1="869.5385" x2="571.2711" y2="-24.9164" gradientTransform="matrix(1 0 0 -1 0 843.3784)">
			<stop  offset="0" style="stop-color:#FFF33B"/>
			<stop  offset="0.014" style="stop-color:#FEE72E"/>
			<stop  offset="0.042" style="stop-color:#FED51B"/>
			<stop  offset="0.07" style="stop-color:#FDCA10"/>
			<stop  offset="0.1" style="stop-color:#FDC70C"/>
			<stop  offset="0.4" style="stop-color:#F3903F"/>
			<stop  offset="0.8" style="stop-color:#ED683C"/>
			<stop  offset="1" style="stop-color:#E93E3A"/>
		</linearGradient>
		<path style="fill:url(#SVGID_3_);" d="M685.743,429.368c0-0.343-0.172-0.615-0.186-0.959
			c-0.338-30.373-12.608-59.395-34.16-80.799c-44.517-43.636-115.764-43.636-160.281,0c0,0-0.072,0.157-0.143,0.215
			c-0.072,0.057-0.444,0.372-0.644,0.587c-21.244,21.209-33.227,49.965-33.33,79.983c0,0.343-0.2,0.63-0.2,0.973
			c0,0.343,0.172,0.615,0.186,0.959c0.332,30.369,12.591,59.389,34.131,80.799c44.517,43.636,115.764,43.636,160.281,0v-0.086
			l0.258-0.243l0,0c0.072-0.086,0.115-0.186,0.186-0.272l0.1,0.1l0.243-0.243c21.241-21.21,33.224-49.966,33.33-79.983
			C685.572,429.997,685.743,429.711,685.743,429.368z M639.62,480.729c-4.674-3.539-9.611-6.716-14.769-9.502
			c1.609-9.111,2.67-18.31,3.177-27.548h27.663C653.382,457.139,647.87,469.846,639.62,480.729z M618.64,501.036
			c-0.773,0.501-1.631,0.859-2.419,1.345c0.315-0.801,0.658-1.56,0.959-2.376c0.53,0.329,1.102,0.558,1.617,0.902L618.64,501.036z
			 M502.951,377.963c4.649,3.537,9.568,6.705,14.712,9.474c-1.612,9.135-2.673,18.358-3.177,27.62h-27.563
			c2.349-13.432,7.841-26.118,16.028-37.022V377.963z M523.874,357.627c0.773-0.501,1.631-0.859,2.419-1.345
			c-0.315,0.801-0.658,1.56-0.959,2.376c-0.529-0.329-1.102-0.558-1.617-0.902L523.874,357.627z M572.445,515.232h-2.376
			c-5.281-1.145-12.264-10.103-17.931-25.573c12.6-2.734,25.639-2.734,38.239,0C584.709,505.129,577.725,514.088,572.445,515.232z
			 M571.257,457.989c-8.795,0.034-17.557,1.071-26.117,3.091c-0.859-5.457-1.488-11.258-1.889-17.402h56.013
			c-0.401,6.154-1.03,11.954-1.889,17.402C588.814,459.061,580.052,458.024,571.257,457.989z M543.25,415.057
			c0.401-6.154,1.03-11.954,1.889-17.402c17.168,4.121,35.067,4.121,52.234,0c0.859,5.457,1.488,11.258,1.889,17.402H543.25z
			 M552.138,369.076c5.724-15.47,12.651-24.429,17.931-25.573c0.801,0,1.574,0,2.376,0c5.281,1.145,12.264,10.103,17.931,25.573
			C577.776,371.81,564.737,371.81,552.138,369.076z M616.822,356.697c0.644,0.401,1.302,0.744,1.932,1.159
			c-0.501,0.329-1.073,0.558-1.574,0.873c-0.301-0.816-0.644-1.574-0.959-2.376C616.422,356.483,616.622,356.568,616.822,356.697z
			 M514.486,443.678c0.507,9.238,1.568,18.437,3.177,27.548c-5.161,2.782-10.098,5.959-14.769,9.502
			c-8.264-10.875-13.777-23.586-16.071-37.051H514.486z M525.705,502.052c-0.644-0.401-1.302-0.759-1.932-1.173
			c0.487-0.329,1.059-0.558,1.56-0.873c0.301,0.816,0.644,1.574,0.959,2.376L525.705,502.052z M628.028,415.057
			c-0.507-9.238-1.568-18.437-3.177-27.548c5.158-2.787,10.095-5.964,14.769-9.502c8.251,10.883,13.763,23.59,16.071,37.051H628.028
			z"/>
	</g>
</g>
<g>
</g>
<g>
</g>
<g>
</g>
<g>
</g>
<g>
</g>
<g>
</g>
<g>
</g>
<g>
</g>
<g>
</g>
<g>
</g>
<g>
</g>
<g>
</g>
<g>
</g>
<g>
</g>
<g>
</g>
</svg>
