<?xml version="1.0" encoding="iso-8859-1"?>
<!-- Generator: Adobe Illustrator 21.0.0, SVG Export Plug-In . SVG Version: 6.00 Build 0)  -->
<svg version="1.1" id="Capa_1" xmlns="http://www.w3.org/2000/svg" xmlns:xlink="http://www.w3.org/1999/xlink" x="0px" y="0px"
	 viewBox="0 0 858.692 858.692" style="enable-background:new 0 0 858.692 858.692;" xml:space="preserve">
<g>
	<g id="Document_paper-Search">
		
			<linearGradient id="SVGID_1_" gradientUnits="userSpaceOnUse" x1="342.2837" y1="855.4138" x2="342.2837" y2="-34.5619" gradientTransform="matrix(1 0 0 -1 0 843.3784)">
			<stop  offset="0" style="stop-color:#FFF33B"/>
			<stop  offset="0.014" style="stop-color:#FEE72E"/>
			<stop  offset="0.042" style="stop-color:#FED51B"/>
			<stop  offset="0.07" style="stop-color:#FDCA10"/>
			<stop  offset="0.1" style="stop-color:#FDC70C"/>
			<stop  offset="0.4" style="stop-color:#F3903F"/>
			<stop  offset="0.8" style="stop-color:#ED683C"/>
			<stop  offset="1" style="stop-color:#E93E3A"/>
		</linearGradient>
		<path style="fill:url(#SVGID_1_);" d="M642.811,615.408c-7.904,0-14.311,6.407-14.311,14.311V815.76
			c0,7.904-6.407,14.311-14.311,14.311H70.378c-7.904,0-14.311-6.407-14.311-14.311V42.975c0-7.904,6.407-14.311,14.311-14.311
			h415.014v114.487c0,15.807,12.814,28.622,28.622,28.622H628.5v57.243c0,7.904,6.407,14.311,14.311,14.311
			c7.904,0,14.311-6.407,14.311-14.311v-71.554c0-0.315-0.157-0.587-0.172-0.902c-0.081-1.228-0.321-2.44-0.716-3.606
			c-0.157-0.472-0.286-0.916-0.487-1.431c-0.602-1.345-1.413-2.587-2.404-3.678c-0.115-0.129-0.172-0.315-0.286-0.444L513.269,4.293
			c-2.698-2.753-6.392-4.3-10.247-4.293H70.378C46.667,0,27.446,19.222,27.446,42.932c0,0.014,0,0.029,0,0.043V815.76
			c0,23.711,19.222,42.932,42.932,42.932h543.811c23.711,0,42.932-19.222,42.932-42.932V629.719
			C657.122,621.815,650.715,615.408,642.811,615.408z M514.013,143.151V48.9l94.251,94.251H514.013z"/>
		
			<linearGradient id="SVGID_2_" gradientUnits="userSpaceOnUse" x1="575.9576" y1="853.5247" x2="575.9576" y2="-31.6568" gradientTransform="matrix(1 0 0 -1 0 843.3784)">
			<stop  offset="0" style="stop-color:#FFF33B"/>
			<stop  offset="0.014" style="stop-color:#FEE72E"/>
			<stop  offset="0.042" style="stop-color:#FED51B"/>
			<stop  offset="0.07" style="stop-color:#FDCA10"/>
			<stop  offset="0.1" style="stop-color:#FDC70C"/>
			<stop  offset="0.4" style="stop-color:#F3903F"/>
			<stop  offset="0.8" style="stop-color:#ED683C"/>
			<stop  offset="1" style="stop-color:#E93E3A"/>
		</linearGradient>
		<path style="fill:url(#SVGID_2_);" d="M646.703,502.353c-39.155,39.047-102.523,39.047-141.677,0
			c-5.685-5.491-14.744-5.334-20.236,0.35c-5.357,5.546-5.357,14.339,0,19.885c50.343,50.206,131.82,50.206,182.162,0
			c5.588-5.592,5.585-14.655-0.007-20.243S652.291,496.761,646.703,502.353z"/>
		
			<linearGradient id="SVGID_3_" gradientUnits="userSpaceOnUse" x1="615.0463" y1="858.3618" x2="615.0463" y2="-32.5011" gradientTransform="matrix(1 0 0 -1 0 843.3784)">
			<stop  offset="0" style="stop-color:#FFF33B"/>
			<stop  offset="0.014" style="stop-color:#FEE72E"/>
			<stop  offset="0.042" style="stop-color:#FED51B"/>
			<stop  offset="0.07" style="stop-color:#FDCA10"/>
			<stop  offset="0.1" style="stop-color:#FDC70C"/>
			<stop  offset="0.4" style="stop-color:#F3903F"/>
			<stop  offset="0.8" style="stop-color:#ED683C"/>
			<stop  offset="1" style="stop-color:#E93E3A"/>
		</linearGradient>
		<path style="fill:url(#SVGID_3_);" d="M818.734,613.677l-98.745-98.745c47.467-82.321,19.212-187.535-63.109-235.002
			s-187.535-19.212-235.002,63.109s-19.212,187.535,63.109,235.002c54.274,31.295,121.268,30.616,174.896-1.772l98.072,98.086
			c16.765,16.768,43.948,16.77,60.716,0.005c0.002-0.002,0.003-0.003,0.005-0.005l0,0c16.76-16.765,16.76-43.941,0-60.706
			L818.734,613.677z M470.008,530.674c-55.923-55.918-55.927-146.584-0.009-202.507c55.918-55.923,146.584-55.927,202.507-0.009
			c55.923,55.918,55.927,146.584,0.009,202.507c-0.003,0.003-0.006,0.006-0.009,0.009c-55.971,55.812-146.558,55.787-202.498-0.057
			V530.674z M798.498,654.205L798.498,654.205c-5.657,5.419-14.579,5.419-20.236,0l-91.088-91.131l20.235-20.236l91.074,91.074
			c5.587,5.588,5.587,14.647,0,20.236L798.498,654.205z"/>
	</g>
</g>
<g>
</g>
<g>
</g>
<g>
</g>
<g>
</g>
<g>
</g>
<g>
</g>
<g>
</g>
<g>
</g>
<g>
</g>
<g>
</g>
<g>
</g>
<g>
</g>
<g>
</g>
<g>
</g>
<g>
</g>
</svg>
