<?xml version="1.0" encoding="iso-8859-1"?>
<!-- Generator: Adobe Illustrator 21.0.0, SVG Export Plug-In . SVG Version: 6.00 Build 0)  -->
<svg version="1.1" id="Capa_1" xmlns="http://www.w3.org/2000/svg" xmlns:xlink="http://www.w3.org/1999/xlink" x="0px" y="0px"
	 viewBox="0 0 858.692 858.692" style="enable-background:new 0 0 858.692 858.692;" xml:space="preserve">
<g>
	<g id="Document_paper-symbol">
		
			<linearGradient id="SVGID_1_" gradientUnits="userSpaceOnUse" x1="429.3461" y1="862.2114" x2="429.3461" y2="6.0808" gradientTransform="matrix(1 0 0 -1 0 843.3784)">
			<stop  offset="0" style="stop-color:#FFF33B"/>
			<stop  offset="0.014" style="stop-color:#FEE72E"/>
			<stop  offset="0.042" style="stop-color:#FED51B"/>
			<stop  offset="0.07" style="stop-color:#FDCA10"/>
			<stop  offset="0.1" style="stop-color:#FDC70C"/>
			<stop  offset="0.4" style="stop-color:#F3903F"/>
			<stop  offset="0.8" style="stop-color:#ED683C"/>
			<stop  offset="1" style="stop-color:#E93E3A"/>
		</linearGradient>
		<path style="fill:url(#SVGID_1_);" d="M744.012,156.56c-0.081-1.228-0.321-2.44-0.716-3.606c-0.157-0.472-0.286-0.916-0.487-1.431
			c-0.602-1.345-1.413-2.587-2.404-3.678c-0.114-0.129-0.172-0.315-0.286-0.444L600.332,4.293c-2.698-2.753-6.392-4.3-10.247-4.293
			H128.819c-7.904,0-14.311,6.407-14.311,14.311v830.07c0,7.904,6.407,14.311,14.311,14.311h601.054
			c7.904,0,14.311-6.407,14.311-14.311V157.462C744.184,157.147,744.027,156.875,744.012,156.56z M695.327,143.151h-94.251V48.9
			L695.327,143.151z M143.13,830.071V28.665h429.325v114.487c0,15.807,12.814,28.622,28.622,28.622h114.487v658.298H143.13z"/>
		
			<linearGradient id="SVGID_2_" gradientUnits="userSpaceOnUse" x1="572.4543" y1="838.9706" x2="572.4543" y2="51.0741" gradientTransform="matrix(1 0 0 -1 0 843.3784)">
			<stop  offset="0" style="stop-color:#FFF33B"/>
			<stop  offset="0.014" style="stop-color:#FEE72E"/>
			<stop  offset="0.042" style="stop-color:#FED51B"/>
			<stop  offset="0.07" style="stop-color:#FDCA10"/>
			<stop  offset="0.1" style="stop-color:#FDC70C"/>
			<stop  offset="0.4" style="stop-color:#F3903F"/>
			<stop  offset="0.8" style="stop-color:#ED683C"/>
			<stop  offset="1" style="stop-color:#E93E3A"/>
		</linearGradient>
		<rect x="486.589" y="300.57" style="fill:url(#SVGID_2_);" width="171.73" height="28.622"/>
		
			<linearGradient id="SVGID_3_" gradientUnits="userSpaceOnUse" x1="572.4543" y1="817.0321" x2="572.4543" y2="29.1213" gradientTransform="matrix(1 0 0 -1 0 843.3784)">
			<stop  offset="0" style="stop-color:#FFF33B"/>
			<stop  offset="0.014" style="stop-color:#FEE72E"/>
			<stop  offset="0.042" style="stop-color:#FED51B"/>
			<stop  offset="0.07" style="stop-color:#FDCA10"/>
			<stop  offset="0.1" style="stop-color:#FDC70C"/>
			<stop  offset="0.4" style="stop-color:#F3903F"/>
			<stop  offset="0.8" style="stop-color:#ED683C"/>
			<stop  offset="1" style="stop-color:#E93E3A"/>
		</linearGradient>
		<rect x="486.589" y="543.854" style="fill:url(#SVGID_3_);" width="171.73" height="28.622"/>
		
			<linearGradient id="SVGID_4_" gradientUnits="userSpaceOnUse" x1="286.2379" y1="864.1147" x2="286.2379" y2="0.4567" gradientTransform="matrix(1 0 0 -1 0 843.3784)">
			<stop  offset="0" style="stop-color:#FFF33B"/>
			<stop  offset="0.014" style="stop-color:#FEE72E"/>
			<stop  offset="0.042" style="stop-color:#FED51B"/>
			<stop  offset="0.07" style="stop-color:#FDCA10"/>
			<stop  offset="0.1" style="stop-color:#FDC70C"/>
			<stop  offset="0.4" style="stop-color:#F3903F"/>
			<stop  offset="0.8" style="stop-color:#ED683C"/>
			<stop  offset="1" style="stop-color:#E93E3A"/>
		</linearGradient>
		<polygon style="fill:url(#SVGID_4_);" points="300.549,229.016 271.927,229.016 271.927,300.57 200.373,300.57 200.373,329.192 
			271.927,329.192 271.927,400.746 300.549,400.746 300.549,329.192 372.103,329.192 372.103,300.57 300.549,300.57 		"/>
		
			<linearGradient id="SVGID_5_" gradientUnits="userSpaceOnUse" x1="289.7083" y1="858.3761" x2="289.7083" y2="2.4316" gradientTransform="matrix(1 0 0 -1 0 843.3784)">
			<stop  offset="0" style="stop-color:#FFF33B"/>
			<stop  offset="0.014" style="stop-color:#FEE72E"/>
			<stop  offset="0.042" style="stop-color:#FED51B"/>
			<stop  offset="0.07" style="stop-color:#FDCA10"/>
			<stop  offset="0.1" style="stop-color:#FDC70C"/>
			<stop  offset="0.4" style="stop-color:#F3903F"/>
			<stop  offset="0.8" style="stop-color:#ED683C"/>
			<stop  offset="1" style="stop-color:#E93E3A"/>
		</linearGradient>
		<polygon style="fill:url(#SVGID_5_);" points="340.304,483.863 289.715,534.452 239.112,483.863 218.877,504.099 269.48,554.687 
			218.877,605.29 239.112,625.526 289.715,574.923 340.304,625.526 360.54,605.29 309.951,554.687 360.54,504.099 		"/>
		
			<linearGradient id="SVGID_6_" gradientUnits="userSpaceOnUse" x1="572.4543" y1="859.249" x2="572.4543" y2="7.3975" gradientTransform="matrix(1 0 0 -1 0 843.3784)">
			<stop  offset="0" style="stop-color:#FFF33B"/>
			<stop  offset="0.014" style="stop-color:#FEE72E"/>
			<stop  offset="0.042" style="stop-color:#FED51B"/>
			<stop  offset="0.07" style="stop-color:#FDCA10"/>
			<stop  offset="0.1" style="stop-color:#FDC70C"/>
			<stop  offset="0.4" style="stop-color:#F3903F"/>
			<stop  offset="0.8" style="stop-color:#ED683C"/>
			<stop  offset="1" style="stop-color:#E93E3A"/>
		</linearGradient>
		<path style="fill:url(#SVGID_6_);" d="M586.765,601.097h-28.622c-7.904,0-14.311,6.407-14.311,14.311
			c0,7.904,6.407,14.311,14.311,14.311h28.622c7.904,0,14.311-6.407,14.311-14.311C601.076,607.505,594.669,601.097,586.765,601.097
			z"/>
		
			<linearGradient id="SVGID_7_" gradientUnits="userSpaceOnUse" x1="572.4543" y1="861.1238" x2="572.4543" y2="9.2865" gradientTransform="matrix(1 0 0 -1 0 843.3784)">
			<stop  offset="0" style="stop-color:#FFF33B"/>
			<stop  offset="0.014" style="stop-color:#FEE72E"/>
			<stop  offset="0.042" style="stop-color:#FED51B"/>
			<stop  offset="0.07" style="stop-color:#FDCA10"/>
			<stop  offset="0.1" style="stop-color:#FDC70C"/>
			<stop  offset="0.4" style="stop-color:#F3903F"/>
			<stop  offset="0.8" style="stop-color:#ED683C"/>
			<stop  offset="1" style="stop-color:#E93E3A"/>
		</linearGradient>
		<path style="fill:url(#SVGID_7_);" d="M586.765,515.232c7.904,0,14.311-6.407,14.311-14.311c0-7.904-6.407-14.311-14.311-14.311
			h-28.622c-7.904,0-14.311,6.407-14.311,14.311c0,7.904,6.407,14.311,14.311,14.311H586.765z"/>
	</g>
</g>
<g>
</g>
<g>
</g>
<g>
</g>
<g>
</g>
<g>
</g>
<g>
</g>
<g>
</g>
<g>
</g>
<g>
</g>
<g>
</g>
<g>
</g>
<g>
</g>
<g>
</g>
<g>
</g>
<g>
</g>
</svg>
