<?xml version="1.0" encoding="iso-8859-1"?>
<!-- Generator: Adobe Illustrator 21.0.0, SVG Export Plug-In . SVG Version: 6.00 Build 0)  -->
<svg version="1.1" id="Capa_1" xmlns="http://www.w3.org/2000/svg" xmlns:xlink="http://www.w3.org/1999/xlink" x="0px" y="0px"
	 viewBox="0 0 858.664 858.664" style="enable-background:new 0 0 858.664 858.664;" xml:space="preserve">
<g>
	<g id="Document_paper-_text">
		
			<linearGradient id="SVGID_1_" gradientUnits="userSpaceOnUse" x1="429.3318" y1="800.5175" x2="429.3318" y2="-55.6131" gradientTransform="matrix(1 0 0 -1 0 843.3784)">
			<stop  offset="0" style="stop-color:#FFF33B"/>
			<stop  offset="0.014" style="stop-color:#FEE72E"/>
			<stop  offset="0.042" style="stop-color:#FED51B"/>
			<stop  offset="0.07" style="stop-color:#FDCA10"/>
			<stop  offset="0.1" style="stop-color:#FDC70C"/>
			<stop  offset="0.4" style="stop-color:#F3903F"/>
			<stop  offset="0.8" style="stop-color:#ED683C"/>
			<stop  offset="1" style="stop-color:#E93E3A"/>
		</linearGradient>
		<path style="fill:url(#SVGID_1_);" d="M743.984,156.517c-0.07-1.213-0.301-2.411-0.687-3.563
			c-0.172-0.487-0.301-0.945-0.501-1.431c-0.612-1.375-1.444-2.641-2.461-3.749c-0.1-0.115-0.129-0.258-0.243-0.372L600.317,4.293
			c-2.698-2.753-6.392-4.3-10.247-4.293H128.805c-7.904,0-14.311,6.407-14.311,14.311v830.042c0,7.904,6.407,14.311,14.311,14.311
			h601.054c7.904,0,14.311-6.407,14.311-14.311V157.433C744.17,157.119,744.012,156.832,743.984,156.517z M695.313,143.123h-94.251
			V48.871L695.313,143.123z M143.115,830.042V28.636H572.44v114.487c0,15.807,12.814,28.622,28.622,28.622h114.487v658.298H143.115z
			"/>
		
			<linearGradient id="SVGID_2_" gradientUnits="userSpaceOnUse" x1="329.156" y1="780.7112" x2="329.156" y2="26.8172" gradientTransform="matrix(1 0 0 -1 0 843.3784)">
			<stop  offset="0" style="stop-color:#FFF33B"/>
			<stop  offset="0.014" style="stop-color:#FEE72E"/>
			<stop  offset="0.042" style="stop-color:#FED51B"/>
			<stop  offset="0.07" style="stop-color:#FDCA10"/>
			<stop  offset="0.1" style="stop-color:#FDC70C"/>
			<stop  offset="0.4" style="stop-color:#F3903F"/>
			<stop  offset="0.8" style="stop-color:#ED683C"/>
			<stop  offset="1" style="stop-color:#E93E3A"/>
		</linearGradient>
		<rect x="200.359" y="200.366" style="fill:url(#SVGID_2_);" width="257.595" height="28.622"/>
		
			<linearGradient id="SVGID_3_" gradientUnits="userSpaceOnUse" x1="357.7777" y1="768.0605" x2="357.7777" y2="35.2463" gradientTransform="matrix(1 0 0 -1 0 843.3784)">
			<stop  offset="0" style="stop-color:#FFF33B"/>
			<stop  offset="0.014" style="stop-color:#FEE72E"/>
			<stop  offset="0.042" style="stop-color:#FED51B"/>
			<stop  offset="0.07" style="stop-color:#FDCA10"/>
			<stop  offset="0.1" style="stop-color:#FDC70C"/>
			<stop  offset="0.4" style="stop-color:#F3903F"/>
			<stop  offset="0.8" style="stop-color:#ED683C"/>
			<stop  offset="1" style="stop-color:#E93E3A"/>
		</linearGradient>
		<rect x="200.359" y="257.609" style="fill:url(#SVGID_3_);" width="314.838" height="28.622"/>
		
			<linearGradient id="SVGID_4_" gradientUnits="userSpaceOnUse" x1="386.3993" y1="752.9769" x2="386.3993" y2="40.1119" gradientTransform="matrix(1 0 0 -1 0 843.3784)">
			<stop  offset="0" style="stop-color:#FFF33B"/>
			<stop  offset="0.014" style="stop-color:#FEE72E"/>
			<stop  offset="0.042" style="stop-color:#FED51B"/>
			<stop  offset="0.07" style="stop-color:#FDCA10"/>
			<stop  offset="0.1" style="stop-color:#FDC70C"/>
			<stop  offset="0.4" style="stop-color:#F3903F"/>
			<stop  offset="0.8" style="stop-color:#ED683C"/>
			<stop  offset="1" style="stop-color:#E93E3A"/>
		</linearGradient>
		<rect x="200.359" y="314.852" style="fill:url(#SVGID_4_);" width="372.081" height="28.622"/>
		
			<linearGradient id="SVGID_5_" gradientUnits="userSpaceOnUse" x1="415.021" y1="735.6608" x2="415.021" y2="41.6719" gradientTransform="matrix(1 0 0 -1 0 843.3784)">
			<stop  offset="0" style="stop-color:#FFF33B"/>
			<stop  offset="0.014" style="stop-color:#FEE72E"/>
			<stop  offset="0.042" style="stop-color:#FED51B"/>
			<stop  offset="0.07" style="stop-color:#FDCA10"/>
			<stop  offset="0.1" style="stop-color:#FDC70C"/>
			<stop  offset="0.4" style="stop-color:#F3903F"/>
			<stop  offset="0.8" style="stop-color:#ED683C"/>
			<stop  offset="1" style="stop-color:#E93E3A"/>
		</linearGradient>
		<rect x="200.359" y="372.096" style="fill:url(#SVGID_5_);" width="429.325" height="28.622"/>
	</g>
</g>
<g>
</g>
<g>
</g>
<g>
</g>
<g>
</g>
<g>
</g>
<g>
</g>
<g>
</g>
<g>
</g>
<g>
</g>
<g>
</g>
<g>
</g>
<g>
</g>
<g>
</g>
<g>
</g>
<g>
</g>
</svg>
