<?xml version="1.0" encoding="iso-8859-1"?>
<!-- Generator: Adobe Illustrator 21.0.0, SVG Export Plug-In . SVG Version: 6.00 Build 0)  -->
<svg version="1.1" id="Capa_1" xmlns="http://www.w3.org/2000/svg" xmlns:xlink="http://www.w3.org/1999/xlink" x="0px" y="0px"
	 viewBox="0 0 858.664 858.664" style="enable-background:new 0 0 858.664 858.664;" xml:space="preserve">
<g>
	<g id="Document_paper-_text-pen">
		
			<linearGradient id="SVGID_1_" gradientUnits="userSpaceOnUse" x1="429.3318" y1="821.0821" x2="429.3318" y2="-35.0485" gradientTransform="matrix(1 0 0 -1 0 843.3784)">
			<stop  offset="0" style="stop-color:#FFF33B"/>
			<stop  offset="0.014" style="stop-color:#FEE72E"/>
			<stop  offset="0.042" style="stop-color:#FED51B"/>
			<stop  offset="0.07" style="stop-color:#FDCA10"/>
			<stop  offset="0.1" style="stop-color:#FDC70C"/>
			<stop  offset="0.4" style="stop-color:#F3903F"/>
			<stop  offset="0.8" style="stop-color:#ED683C"/>
			<stop  offset="1" style="stop-color:#E93E3A"/>
		</linearGradient>
		<path style="fill:url(#SVGID_1_);" d="M743.984,156.517c-0.07-1.213-0.301-2.411-0.687-3.563
			c-0.172-0.487-0.301-0.945-0.501-1.431c-0.612-1.375-1.444-2.641-2.461-3.749c-0.1-0.115-0.129-0.258-0.243-0.372L600.317,4.293
			c-2.698-2.753-6.392-4.3-10.247-4.293H128.805c-7.904,0-14.311,6.407-14.311,14.311v830.042c0,7.904,6.407,14.311,14.311,14.311
			h601.054c7.904,0,14.311-6.407,14.311-14.311V157.433C744.17,157.119,744.012,156.832,743.984,156.517z M695.313,143.123h-94.251
			V48.871L695.313,143.123z M143.115,830.042V28.636H572.44v114.487c0,15.807,12.814,28.622,28.622,28.622h114.487v658.298H143.115z
			"/>
		
			<linearGradient id="SVGID_2_" gradientUnits="userSpaceOnUse" x1="482.681" y1="833.7758" x2="482.681" y2="-42.7048" gradientTransform="matrix(1 0 0 -1 0 843.3784)">
			<stop  offset="0" style="stop-color:#FFF33B"/>
			<stop  offset="0.014" style="stop-color:#FEE72E"/>
			<stop  offset="0.042" style="stop-color:#FED51B"/>
			<stop  offset="0.07" style="stop-color:#FDCA10"/>
			<stop  offset="0.1" style="stop-color:#FDC70C"/>
			<stop  offset="0.4" style="stop-color:#F3903F"/>
			<stop  offset="0.8" style="stop-color:#ED683C"/>
			<stop  offset="1" style="stop-color:#E93E3A"/>
		</linearGradient>
		<path style="fill:url(#SVGID_2_);" d="M634.463,412.695c-5.588-5.587-14.647-5.587-20.236,0L290.417,736.506
			c-2.684,2.683-4.192,6.323-4.193,10.118v40.485c0,7.904,6.407,14.311,14.311,14.311h40.485c3.795-0.001,7.435-1.509,10.118-4.193
			L604.11,544.241l20.236,20.25l-70.824,70.839c-5.685,5.491-5.842,14.551-0.351,20.236c5.491,5.685,14.551,5.842,20.236,0.35
			c0.119-0.115,0.236-0.232,0.35-0.35l80.956-80.956c5.587-5.588,5.587-14.647,0-20.236l-30.368-30.368l50.603-50.589
			c5.587-5.588,5.587-14.647,0-20.236L634.463,412.695z M335.095,772.799h-20.25v-20.25l26.174-26.16l20.236,20.235L335.095,772.799
			z M381.491,726.389l-20.235-20.236l202.384-202.398l20.25,20.25L381.491,726.389z M604.11,503.755l-20.221-20.221l40.471-40.485
			l20.25,20.25L604.11,503.755z"/>
		
			<linearGradient id="SVGID_3_" gradientUnits="userSpaceOnUse" x1="243.2911" y1="816.2593" x2="243.2911" y2="-8.8596" gradientTransform="matrix(1 0 0 -1 0 843.3784)">
			<stop  offset="0" style="stop-color:#FFF33B"/>
			<stop  offset="0.014" style="stop-color:#FEE72E"/>
			<stop  offset="0.042" style="stop-color:#FED51B"/>
			<stop  offset="0.07" style="stop-color:#FDCA10"/>
			<stop  offset="0.1" style="stop-color:#FDC70C"/>
			<stop  offset="0.4" style="stop-color:#F3903F"/>
			<stop  offset="0.8" style="stop-color:#ED683C"/>
			<stop  offset="1" style="stop-color:#E93E3A"/>
		</linearGradient>
		<rect x="200.359" y="143.123" style="fill:url(#SVGID_3_);" width="85.865" height="28.622"/>
		
			<linearGradient id="SVGID_4_" gradientUnits="userSpaceOnUse" x1="400.7101" y1="814.6851" x2="400.7101" y2="14.7532" gradientTransform="matrix(1 0 0 -1 0 843.3784)">
			<stop  offset="0" style="stop-color:#FFF33B"/>
			<stop  offset="0.014" style="stop-color:#FEE72E"/>
			<stop  offset="0.042" style="stop-color:#FED51B"/>
			<stop  offset="0.07" style="stop-color:#FDCA10"/>
			<stop  offset="0.1" style="stop-color:#FDC70C"/>
			<stop  offset="0.4" style="stop-color:#F3903F"/>
			<stop  offset="0.8" style="stop-color:#ED683C"/>
			<stop  offset="1" style="stop-color:#E93E3A"/>
		</linearGradient>
		<rect x="329.156" y="143.123" style="fill:url(#SVGID_4_);" width="143.108" height="28.622"/>
		
			<linearGradient id="SVGID_5_" gradientUnits="userSpaceOnUse" x1="228.9803" y1="816.288" x2="228.9803" y2="-22.0399" gradientTransform="matrix(1 0 0 -1 0 843.3784)">
			<stop  offset="0" style="stop-color:#FFF33B"/>
			<stop  offset="0.014" style="stop-color:#FEE72E"/>
			<stop  offset="0.042" style="stop-color:#FED51B"/>
			<stop  offset="0.07" style="stop-color:#FDCA10"/>
			<stop  offset="0.1" style="stop-color:#FDC70C"/>
			<stop  offset="0.4" style="stop-color:#F3903F"/>
			<stop  offset="0.8" style="stop-color:#ED683C"/>
			<stop  offset="1" style="stop-color:#E93E3A"/>
		</linearGradient>
		<rect x="200.359" y="200.366" style="fill:url(#SVGID_5_);" width="57.243" height="28.622"/>
		
			<linearGradient id="SVGID_6_" gradientUnits="userSpaceOnUse" x1="429.3318" y1="805.3545" x2="429.3318" y2="29.1356" gradientTransform="matrix(1 0 0 -1 0 843.3784)">
			<stop  offset="0" style="stop-color:#FFF33B"/>
			<stop  offset="0.014" style="stop-color:#FEE72E"/>
			<stop  offset="0.042" style="stop-color:#FED51B"/>
			<stop  offset="0.07" style="stop-color:#FDCA10"/>
			<stop  offset="0.1" style="stop-color:#FDC70C"/>
			<stop  offset="0.4" style="stop-color:#F3903F"/>
			<stop  offset="0.8" style="stop-color:#ED683C"/>
			<stop  offset="1" style="stop-color:#E93E3A"/>
		</linearGradient>
		<rect x="329.156" y="200.366" style="fill:url(#SVGID_6_);" width="200.351" height="28.622"/>
		
			<linearGradient id="SVGID_7_" gradientUnits="userSpaceOnUse" x1="243.2911" y1="810.8499" x2="243.2911" y2="-14.2692" gradientTransform="matrix(1 0 0 -1 0 843.3784)">
			<stop  offset="0" style="stop-color:#FFF33B"/>
			<stop  offset="0.014" style="stop-color:#FEE72E"/>
			<stop  offset="0.042" style="stop-color:#FED51B"/>
			<stop  offset="0.07" style="stop-color:#FDCA10"/>
			<stop  offset="0.1" style="stop-color:#FDC70C"/>
			<stop  offset="0.4" style="stop-color:#F3903F"/>
			<stop  offset="0.8" style="stop-color:#ED683C"/>
			<stop  offset="1" style="stop-color:#E93E3A"/>
		</linearGradient>
		<rect x="200.359" y="257.609" style="fill:url(#SVGID_7_);" width="85.865" height="28.622"/>
		
			<linearGradient id="SVGID_8_" gradientUnits="userSpaceOnUse" x1="429.3318" y1="799.4298" x2="429.3318" y2="23.1966" gradientTransform="matrix(1 0 0 -1 0 843.3784)">
			<stop  offset="0" style="stop-color:#FFF33B"/>
			<stop  offset="0.014" style="stop-color:#FEE72E"/>
			<stop  offset="0.042" style="stop-color:#FED51B"/>
			<stop  offset="0.07" style="stop-color:#FDCA10"/>
			<stop  offset="0.1" style="stop-color:#FDC70C"/>
			<stop  offset="0.4" style="stop-color:#F3903F"/>
			<stop  offset="0.8" style="stop-color:#ED683C"/>
			<stop  offset="1" style="stop-color:#E93E3A"/>
		</linearGradient>
		<rect x="329.156" y="257.609" style="fill:url(#SVGID_8_);" width="200.351" height="28.622"/>
	</g>
</g>
<g>
</g>
<g>
</g>
<g>
</g>
<g>
</g>
<g>
</g>
<g>
</g>
<g>
</g>
<g>
</g>
<g>
</g>
<g>
</g>
<g>
</g>
<g>
</g>
<g>
</g>
<g>
</g>
<g>
</g>
</svg>
