<?xml version="1.0" encoding="iso-8859-1"?>
<!-- Generator: Adobe Illustrator 21.0.0, SVG Export Plug-In . SVG Version: 6.00 Build 0)  -->
<svg version="1.1" id="Capa_1" xmlns="http://www.w3.org/2000/svg" xmlns:xlink="http://www.w3.org/1999/xlink" x="0px" y="0px"
	 viewBox="0 0 858.664 858.664" style="enable-background:new 0 0 858.664 858.664;" xml:space="preserve">
<g>
	<g id="Document_paper-world">
		
			<linearGradient id="SVGID_1_" gradientUnits="userSpaceOnUse" x1="357.7061" y1="825.4755" x2="357.7061" y2="-64.4859" gradientTransform="matrix(1 0 0 -1 0 843.3784)">
			<stop  offset="0" style="stop-color:#FFF33B"/>
			<stop  offset="0.014" style="stop-color:#FEE72E"/>
			<stop  offset="0.042" style="stop-color:#FED51B"/>
			<stop  offset="0.07" style="stop-color:#FDCA10"/>
			<stop  offset="0.1" style="stop-color:#FDC70C"/>
			<stop  offset="0.4" style="stop-color:#F3903F"/>
			<stop  offset="0.8" style="stop-color:#ED683C"/>
			<stop  offset="1" style="stop-color:#E93E3A"/>
		</linearGradient>
		<path style="fill:url(#SVGID_1_);" d="M658.233,615.38c-7.904,0-14.311,6.407-14.311,14.311v186.041
			c0,7.904-6.407,14.311-14.311,14.311H85.8c-7.904,0-14.311-6.407-14.311-14.311V42.947c0-7.904,6.407-14.311,14.311-14.311
			h415.014v114.487c0,15.807,12.814,28.622,28.622,28.622h114.487v57.243c0,7.904,6.407,14.311,14.311,14.311
			c7.904,0,14.311-6.407,14.311-14.311v-71.554c0-0.315-0.157-0.601-0.186-0.916c-0.07-1.213-0.301-2.411-0.687-3.563
			c-0.172-0.487-0.301-0.945-0.501-1.431c-0.613-1.375-1.444-2.641-2.461-3.749c-0.1-0.115-0.129-0.258-0.243-0.372L528.692,4.293
			c-2.698-2.753-6.392-4.3-10.247-4.293H85.8C62.09,0,42.868,19.222,42.868,42.932c0,0.005,0,0.01,0,0.014v772.784
			c0,23.711,19.222,42.932,42.932,42.932h543.811c23.711,0,42.932-19.222,42.932-42.932V629.69
			C672.544,621.787,666.137,615.38,658.233,615.38z M529.436,143.123V48.871l94.251,94.251H529.436z"/>
		
			<linearGradient id="SVGID_2_" gradientUnits="userSpaceOnUse" x1="658.3765" y1="829.9548" x2="658.3765" y2="-64.5002" gradientTransform="matrix(1 0 0 -1 0 843.3784)">
			<stop  offset="0" style="stop-color:#FFF33B"/>
			<stop  offset="0.014" style="stop-color:#FEE72E"/>
			<stop  offset="0.042" style="stop-color:#FED51B"/>
			<stop  offset="0.07" style="stop-color:#FDCA10"/>
			<stop  offset="0.1" style="stop-color:#FDC70C"/>
			<stop  offset="0.4" style="stop-color:#F3903F"/>
			<stop  offset="0.8" style="stop-color:#ED683C"/>
			<stop  offset="1" style="stop-color:#E93E3A"/>
		</linearGradient>
		<path style="fill:url(#SVGID_2_);" d="M770.616,319.146l-0.143-0.129l0,0l0,0c-60.921-61.949-160.526-62.782-222.475-1.862
			c-0.626,0.615-1.246,1.236-1.862,1.862l0,0l0,0l-0.143,0.129c-60.879,62.067-59.915,161.735,2.152,222.614
			s161.735,59.915,222.614-2.152c60.048-61.22,60.048-159.241,0-220.462H770.616z M759.339,509.093
			c-10.455-8.735-22.001-16.076-34.346-21.838c2.434-14.424,3.94-28.989,4.508-43.605h56.671
			c-2.583,23.907-11.886,46.593-26.833,65.429L759.339,509.093z M730.36,536.055c-3.306,2.232-6.712,4.293-10.175,6.197
			c-1.102,0.601-2.247,1.13-3.363,1.703c-2.419,1.231-4.851,2.433-7.327,3.52c-1.231,0.529-2.49,1.002-3.735,1.431
			c5.29-10.592,9.536-21.673,12.679-33.087c7.313,3.889,14.234,8.476,20.665,13.696c-2.748,2.218-5.538,4.379-8.443,6.354
			L730.36,536.055z M599.645,543.954c-1.116-0.572-2.261-1.102-3.363-1.703c-3.463-1.918-6.869-3.964-10.175-6.197l-0.301-0.229
			c-2.862-1.975-5.724-4.136-8.443-6.354c6.436-5.18,13.356-9.728,20.665-13.581c3.143,11.414,7.39,22.495,12.679,33.087
			c-1.245-0.501-2.504-0.973-3.735-1.431C604.496,546.387,602.063,545.257,599.645,543.954z M557.127,349.599
			c10.455,8.735,22.001,16.076,34.346,21.838c-2.433,14.419-3.939,28.979-4.508,43.591h-56.671
			C532.877,391.121,542.181,368.435,557.127,349.599z M691.95,353.191c-22.06,6.125-45.372,6.125-67.433,0
			c8.987-33.359,22.869-52.65,33.716-52.65S682.962,319.833,691.95,353.191z M705.745,309.672
			c12.012,4.787,23.234,11.358,33.287,19.491c-6.405,5.202-13.296,9.774-20.579,13.653
			C715.304,331.381,711.048,320.281,705.745,309.672z M615.587,415.028c0.451-11.313,1.521-22.592,3.206-33.788
			c25.843,6.889,53.039,6.889,78.881,0c1.684,11.196,2.754,22.475,3.206,33.788H615.587z M700.88,443.65
			c-0.451,11.313-1.522,22.592-3.206,33.788c-25.843-6.889-53.039-6.889-78.881,0c-1.684-11.196-2.754-22.475-3.206-33.788H700.88z
			 M598.013,342.816c-7.283-3.879-14.174-8.451-20.579-13.653c10.053-8.133,21.275-14.704,33.287-19.491
			C605.418,320.281,601.162,331.381,598.013,342.816z M586.965,443.65c0.588,14.613,2.113,29.173,4.565,43.591
			c-12.345,5.763-23.891,13.103-34.346,21.838c-14.967-18.83-24.291-41.516-26.89-65.429H586.965z M624.488,505.387
			c22.098-5.991,45.392-5.991,67.49,0c-9.002,33.416-22.883,52.75-33.745,52.75C647.371,558.136,633.49,538.802,624.488,505.387z
			 M729.501,415.028c-0.588-14.613-2.113-29.173-4.565-43.591c12.345-5.762,23.891-13.103,34.346-21.838
			c14.967,18.83,24.291,41.516,26.89,65.429H729.501z"/>
	</g>
</g>
<g>
</g>
<g>
</g>
<g>
</g>
<g>
</g>
<g>
</g>
<g>
</g>
<g>
</g>
<g>
</g>
<g>
</g>
<g>
</g>
<g>
</g>
<g>
</g>
<g>
</g>
<g>
</g>
<g>
</g>
</svg>
