<?xml version="1.0" encoding="iso-8859-1"?>
<!-- Generator: Adobe Illustrator 21.0.0, SVG Export Plug-In . SVG Version: 6.00 Build 0)  -->
<svg version="1.1" id="Capa_1" xmlns="http://www.w3.org/2000/svg" xmlns:xlink="http://www.w3.org/1999/xlink" x="0px" y="0px"
	 viewBox="0 0 858.692 858.692" style="enable-background:new 0 0 858.692 858.692;" xml:space="preserve">
<g>
	<g id="Document_paper-world-2">
		
			<linearGradient id="SVGID_1_" gradientUnits="userSpaceOnUse" x1="429.3461" y1="882.7903" x2="429.3461" y2="26.6598" gradientTransform="matrix(1 0 0 -1 0 843.3784)">
			<stop  offset="0" style="stop-color:#FFF33B"/>
			<stop  offset="0.014" style="stop-color:#FEE72E"/>
			<stop  offset="0.042" style="stop-color:#FED51B"/>
			<stop  offset="0.07" style="stop-color:#FDCA10"/>
			<stop  offset="0.1" style="stop-color:#FDC70C"/>
			<stop  offset="0.4" style="stop-color:#F3903F"/>
			<stop  offset="0.8" style="stop-color:#ED683C"/>
			<stop  offset="1" style="stop-color:#E93E3A"/>
		</linearGradient>
		<path style="fill:url(#SVGID_1_);" d="M744.012,156.56c-0.081-1.228-0.321-2.44-0.716-3.606c-0.157-0.472-0.286-0.916-0.487-1.431
			c-0.602-1.345-1.413-2.587-2.404-3.678c-0.114-0.129-0.172-0.315-0.286-0.444L600.332,4.293c-2.698-2.753-6.392-4.3-10.247-4.293
			H128.819c-7.904,0-14.311,6.407-14.311,14.311v830.07c0,7.904,6.407,14.311,14.311,14.311h601.054
			c7.904,0,14.311-6.407,14.311-14.311V157.462C744.184,157.147,744.027,156.875,744.012,156.56z M695.327,143.151h-94.251V48.9
			L695.327,143.151z M143.13,830.071V28.665h429.325v114.487c0,15.807,12.814,28.622,28.622,28.622h114.487v658.298H143.13z"/>
		
			<linearGradient id="SVGID_2_" gradientUnits="userSpaceOnUse" x1="429.3203" y1="888.1569" x2="429.3203" y2="22.2378" gradientTransform="matrix(1 0 0 -1 0 843.3784)">
			<stop  offset="0" style="stop-color:#FFF33B"/>
			<stop  offset="0.014" style="stop-color:#FEE72E"/>
			<stop  offset="0.042" style="stop-color:#FED51B"/>
			<stop  offset="0.07" style="stop-color:#FDCA10"/>
			<stop  offset="0.1" style="stop-color:#FDC70C"/>
			<stop  offset="0.4" style="stop-color:#F3903F"/>
			<stop  offset="0.8" style="stop-color:#ED683C"/>
			<stop  offset="1" style="stop-color:#E93E3A"/>
		</linearGradient>
		<path style="fill:url(#SVGID_2_);" d="M429.346,171.773C287.08,171.759,171.74,287.076,171.725,429.342
			c-0.014,142.266,115.303,257.606,257.569,257.621c142.266,0.014,257.606-115.303,257.621-257.569
			c0.007-68.174-27.012-133.57-75.135-181.859C563.561,198.88,497.847,171.59,429.346,171.773z M600.661,580.876
			c-16.729-15.024-35.353-27.793-55.397-37.981c7.61-32.548,11.811-65.799,12.536-99.217h99.818
			C654.587,494.512,634.523,542.842,600.661,580.876z M569.964,609.827c-3.206,2.504-6.454,4.952-9.774,7.284
			c-2.605,1.832-5.266,3.592-7.943,5.295c-3.406,2.19-6.883,4.293-10.39,6.268c-2.748,1.546-5.495,3.077-8.3,4.508
			c-3.621,1.86-7.313,3.578-11.019,5.223c-2.862,1.274-5.724,2.533-8.586,3.678c-3.85,1.531-7.785,2.862-11.706,4.207l-3.764,1.231
			c17.38-22.97,30.541-48.845,38.868-76.42c15.492,8.251,29.98,18.263,43.176,29.838c-1.045,0.93-2.046,1.918-3.105,2.862
			C575.016,605.863,572.454,607.852,569.964,609.827z M344.683,642.084c-2.862-1.145-5.724-2.404-8.586-3.678
			c-3.707-1.646-7.399-3.363-11.019-5.223c-2.862-1.431-5.553-2.962-8.3-4.508c-3.506-2.003-6.984-4.079-10.39-6.268
			c-2.676-1.703-5.338-3.463-7.943-5.295c-3.32-2.333-6.569-4.78-9.774-7.284c-2.533-1.975-5.052-3.964-7.513-6.053
			c-1.059-0.916-2.061-1.903-3.105-2.862c13.212-11.588,27.719-21.61,43.233-29.867c8.332,27.575,21.497,53.451,38.883,76.42
			l-3.778-1.231C352.468,644.974,348.533,643.615,344.683,642.084z M258.031,277.859c16.729,15.024,35.353,27.793,55.397,37.981
			c-7.61,32.548-11.811,65.799-12.536,99.217h-99.818C204.105,364.224,224.17,315.893,258.031,277.859z M288.728,248.908
			c3.206-2.504,6.454-4.952,9.774-7.284c2.605-1.832,5.266-3.592,7.943-5.295c3.406-2.19,6.884-4.293,10.39-6.268
			c2.748-1.546,5.495-3.077,8.3-4.508c3.621-1.86,7.313-3.578,11.019-5.223c2.862-1.274,5.653-2.533,8.586-3.678
			c3.85-1.531,7.785-2.862,11.706-4.207l3.778-1.231c-17.385,22.969-30.551,48.844-38.882,76.42
			c-15.492-8.251-29.98-18.263-43.176-29.838c1.045-0.93,2.046-1.918,3.105-2.862C283.676,252.872,286.238,250.883,288.728,248.908z
			 M514.009,216.652c2.862,1.145,5.724,2.404,8.586,3.678c3.706,1.646,7.399,3.363,11.019,5.223c2.862,1.431,5.553,2.962,8.3,4.508
			c3.506,2.004,6.984,4.079,10.39,6.268c2.676,1.703,5.338,3.463,7.943,5.295c3.32,2.333,6.569,4.78,9.774,7.284
			c2.533,1.975,5.052,3.964,7.513,6.053c1.059,0.916,2.061,1.903,3.105,2.862c-13.212,11.588-27.719,21.61-43.233,29.867
			c-8.327-27.574-21.488-53.45-38.868-76.42l3.764,1.231C506.224,213.761,510.159,215.12,514.009,216.652z M511.447,299.726
			c-52.869,20.207-111.333,20.207-164.202,0c19.334-62.123,51.376-99.331,82.101-99.331S492.113,237.603,511.447,299.726z
			 M329.514,415.057c0.643-29.515,4.142-58.899,10.447-87.74c57.636,21.581,121.134,21.581,178.771,0
			c6.305,28.841,9.803,58.225,10.447,87.74H329.514z M529.178,443.678c-0.643,29.515-4.142,58.899-10.447,87.74
			c-57.636-21.581-121.134-21.581-178.771,0c-6.305-28.841-9.803-58.225-10.447-87.74H529.178z M300.892,443.678
			c0.73,33.418,4.936,66.67,12.551,99.217c-20.049,10.187-38.678,22.956-55.411,37.981c-33.862-38.034-53.926-86.365-56.957-137.198
			H300.892z M347.245,559.009c52.869-20.207,111.333-20.207,164.202,0c-19.334,62.123-51.376,99.331-82.101,99.331
			S366.579,621.133,347.245,559.009z M557.8,415.057c-0.73-33.418-4.936-66.67-12.551-99.217
			c20.049-10.187,38.678-22.956,55.412-37.981c33.862,38.034,53.926,86.365,56.957,137.198H557.8z"/>
	</g>
</g>
<g>
</g>
<g>
</g>
<g>
</g>
<g>
</g>
<g>
</g>
<g>
</g>
<g>
</g>
<g>
</g>
<g>
</g>
<g>
</g>
<g>
</g>
<g>
</g>
<g>
</g>
<g>
</g>
<g>
</g>
</svg>
