<?xml version="1.0" encoding="iso-8859-1"?>
<!-- Generator: Adobe Illustrator 21.0.0, SVG Export Plug-In . SVG Version: 6.00 Build 0)  -->
<svg version="1.1" id="Capa_1" xmlns="http://www.w3.org/2000/svg" xmlns:xlink="http://www.w3.org/1999/xlink" x="0px" y="0px"
	 viewBox="0 0 858.664 858.664" style="enable-background:new 0 0 858.664 858.664;" xml:space="preserve">
<g>
	<g id="Document_paper">
		
			<linearGradient id="SVGID_1_" gradientUnits="userSpaceOnUse" x1="372.0885" y1="835.6219" x2="372.0885" y2="-54.3538" gradientTransform="matrix(1 0 0 -1 0 843.3784)">
			<stop  offset="0" style="stop-color:#FFF33B"/>
			<stop  offset="0.014" style="stop-color:#FEE72E"/>
			<stop  offset="0.042" style="stop-color:#FED51B"/>
			<stop  offset="0.07" style="stop-color:#FDCA10"/>
			<stop  offset="0.1" style="stop-color:#FDC70C"/>
			<stop  offset="0.4" style="stop-color:#F3903F"/>
			<stop  offset="0.8" style="stop-color:#ED683C"/>
			<stop  offset="1" style="stop-color:#E93E3A"/>
		</linearGradient>
		<path style="fill:url(#SVGID_1_);" d="M672.616,615.38c-7.904,0-14.311,6.407-14.311,14.311v186.041
			c0,7.904-6.407,14.311-14.311,14.311H100.183c-7.904,0-14.311-6.407-14.311-14.311V42.947c0-7.904,6.407-14.311,14.311-14.311
			h415.014v114.487c0,15.807,12.814,28.622,28.622,28.622h114.487v57.243c0,7.904,6.407,14.311,14.311,14.311
			s14.311-6.407,14.311-14.311v-71.554c0-0.315-0.157-0.601-0.186-0.916c-0.07-1.213-0.301-2.411-0.687-3.563
			c-0.172-0.487-0.301-0.945-0.501-1.431c-0.612-1.375-1.444-2.641-2.461-3.749c-0.1-0.115-0.129-0.258-0.243-0.372L543.074,4.293
			c-2.698-2.753-6.392-4.3-10.247-4.293H100.183C76.472,0,57.25,19.222,57.25,42.932c0,0.005,0,0.01,0,0.014v772.784
			c0,23.711,19.222,42.932,42.932,42.932h543.811c23.711,0,42.932-19.222,42.932-42.932V629.69
			C686.927,621.787,680.519,615.38,672.616,615.38z M543.818,143.123V48.871l94.251,94.251H543.818z"/>
		
			<linearGradient id="SVGID_2_" gradientUnits="userSpaceOnUse" x1="672.6157" y1="838.298" x2="672.6157" y2="-52.293" gradientTransform="matrix(1 0 0 -1 0 843.3784)">
			<stop  offset="0" style="stop-color:#FFF33B"/>
			<stop  offset="0.014" style="stop-color:#FEE72E"/>
			<stop  offset="0.042" style="stop-color:#FED51B"/>
			<stop  offset="0.07" style="stop-color:#FDCA10"/>
			<stop  offset="0.1" style="stop-color:#FDC70C"/>
			<stop  offset="0.4" style="stop-color:#F3903F"/>
			<stop  offset="0.8" style="stop-color:#ED683C"/>
			<stop  offset="1" style="stop-color:#E93E3A"/>
		</linearGradient>
		<path style="fill:url(#SVGID_2_);" d="M801.241,371.208c-0.085-1.289-0.345-2.56-0.773-3.778
			c-0.157-0.458-0.272-0.902-0.472-1.345c-0.675-1.51-1.61-2.891-2.762-4.079l0,0l-85.865-85.865l0,0
			c-1.197-1.154-2.587-2.089-4.107-2.762c-0.415-0.2-0.859-0.315-1.288-0.472c-1.254-0.442-2.565-0.702-3.893-0.773
			c-0.277-0.086-0.559-0.158-0.844-0.215H586.751c-23.711,0-42.932,19.222-42.932,42.932v228.973
			c0,23.711,19.221,42.932,42.932,42.932h171.73c23.711,0,42.932-19.222,42.932-42.932v-171.73
			C801.413,371.781,801.256,371.523,801.241,371.208z M715.548,320.777l37.008,37.008h-37.008V320.777z M758.481,558.136h-171.73
			c-7.904,0-14.311-6.407-14.311-14.311V314.852c0-7.904,6.407-14.311,14.311-14.311h100.176v71.554
			c0,7.904,6.407,14.311,14.311,14.311h71.554v157.419C772.791,551.729,766.384,558.136,758.481,558.136z"/>
		
			<linearGradient id="SVGID_3_" gradientUnits="userSpaceOnUse" x1="629.6833" y1="834.0048" x2="629.6833" y2="-46.3826" gradientTransform="matrix(1 0 0 -1 0 843.3784)">
			<stop  offset="0" style="stop-color:#FFF33B"/>
			<stop  offset="0.014" style="stop-color:#FEE72E"/>
			<stop  offset="0.042" style="stop-color:#FED51B"/>
			<stop  offset="0.07" style="stop-color:#FDCA10"/>
			<stop  offset="0.1" style="stop-color:#FDC70C"/>
			<stop  offset="0.4" style="stop-color:#F3903F"/>
			<stop  offset="0.8" style="stop-color:#ED683C"/>
			<stop  offset="1" style="stop-color:#E93E3A"/>
		</linearGradient>
		<rect x="601.062" y="357.785" style="fill:url(#SVGID_3_);" width="57.243" height="28.622"/>
		
			<linearGradient id="SVGID_4_" gradientUnits="userSpaceOnUse" x1="672.6157" y1="823.7725" x2="672.6157" y2="-36.3078" gradientTransform="matrix(1 0 0 -1 0 843.3784)">
			<stop  offset="0" style="stop-color:#FFF33B"/>
			<stop  offset="0.014" style="stop-color:#FEE72E"/>
			<stop  offset="0.042" style="stop-color:#FED51B"/>
			<stop  offset="0.07" style="stop-color:#FDCA10"/>
			<stop  offset="0.1" style="stop-color:#FDC70C"/>
			<stop  offset="0.4" style="stop-color:#F3903F"/>
			<stop  offset="0.8" style="stop-color:#ED683C"/>
			<stop  offset="1" style="stop-color:#E93E3A"/>
		</linearGradient>
		<rect x="601.062" y="415.028" style="fill:url(#SVGID_4_);" width="143.108" height="28.622"/>
		
			<linearGradient id="SVGID_5_" gradientUnits="userSpaceOnUse" x1="672.6157" y1="821.5687" x2="672.6157" y2="-38.5117" gradientTransform="matrix(1 0 0 -1 0 843.3784)">
			<stop  offset="0" style="stop-color:#FFF33B"/>
			<stop  offset="0.014" style="stop-color:#FEE72E"/>
			<stop  offset="0.042" style="stop-color:#FED51B"/>
			<stop  offset="0.07" style="stop-color:#FDCA10"/>
			<stop  offset="0.1" style="stop-color:#FDC70C"/>
			<stop  offset="0.4" style="stop-color:#F3903F"/>
			<stop  offset="0.8" style="stop-color:#ED683C"/>
			<stop  offset="1" style="stop-color:#E93E3A"/>
		</linearGradient>
		<rect x="601.062" y="472.271" style="fill:url(#SVGID_5_);" width="143.108" height="28.622"/>
	</g>
</g>
<g>
</g>
<g>
</g>
<g>
</g>
<g>
</g>
<g>
</g>
<g>
</g>
<g>
</g>
<g>
</g>
<g>
</g>
<g>
</g>
<g>
</g>
<g>
</g>
<g>
</g>
<g>
</g>
<g>
</g>
</svg>
