<?xml version="1.0" encoding="iso-8859-1"?>
<!-- Generator: Adobe Illustrator 21.0.0, SVG Export Plug-In . SVG Version: 6.00 Build 0)  -->
<svg version="1.1" id="Capa_1" xmlns="http://www.w3.org/2000/svg" xmlns:xlink="http://www.w3.org/1999/xlink" x="0px" y="0px"
	 viewBox="0 0 858.649 858.649" style="enable-background:new 0 0 858.649 858.649;" xml:space="preserve">
<g>
	<g id="Notebook-alphabet_ABC">
		
			<linearGradient id="SVGID_1_" gradientUnits="userSpaceOnUse" x1="429.3246" y1="855.2134" x2="429.3246" y2="-0.2588" gradientTransform="matrix(1 0 0 -1 0 843.3784)">
			<stop  offset="0" style="stop-color:#FFF33B"/>
			<stop  offset="0.014" style="stop-color:#FEE72E"/>
			<stop  offset="0.042" style="stop-color:#FED51B"/>
			<stop  offset="0.07" style="stop-color:#FDCA10"/>
			<stop  offset="0.1" style="stop-color:#FDC70C"/>
			<stop  offset="0.4" style="stop-color:#F3903F"/>
			<stop  offset="0.8" style="stop-color:#ED683C"/>
			<stop  offset="1" style="stop-color:#E93E3A"/>
		</linearGradient>
		<path style="fill:url(#SVGID_1_);" d="M757.185,0H158.707c-24.412,0.024-44.197,19.808-44.22,44.22v55.955H71.554
			c-7.904,0-14.311,6.407-14.311,14.311v57.243c0,7.904,6.407,14.311,14.311,14.311h42.932v57.243H71.554
			c-7.904,0-14.311,6.407-14.311,14.311v57.243c0,7.904,6.407,14.311,14.311,14.311h42.932v57.243H71.554
			c-7.904,0-14.311,6.407-14.311,14.311v57.243c0,7.904,6.407,14.311,14.311,14.311h42.932V529.5H71.554
			c-7.904,0-14.311,6.407-14.311,14.311v57.243c0,7.904,6.407,14.311,14.311,14.311h42.932v57.243H71.554
			c-7.904,0-14.311,6.407-14.311,14.311v57.243c0,7.904,6.407,14.311,14.311,14.311h42.932v55.955
			c0.024,24.412,19.808,44.197,44.22,44.22h598.479c24.412-0.024,44.197-19.808,44.22-44.22V44.22
			C801.382,19.808,781.598,0.024,757.185,0z M85.865,128.797h85.865v28.622H85.865V128.797z M85.865,271.906h85.865v28.622H85.865
			V271.906z M85.865,415.014h85.865v28.622H85.865V415.014z M85.865,558.122h85.865v28.622H85.865V558.122z M85.865,701.23h85.865
			v28.622H85.865V701.23z M772.784,814.429c-0.008,8.612-6.987,15.591-15.599,15.599H158.707
			c-8.612-0.008-15.591-6.987-15.599-15.599v-55.955h42.932c7.904,0,14.311-6.407,14.311-14.311v-57.243
			c0-7.904-6.407-14.311-14.311-14.311h-42.932v-57.243h42.932c7.904,0,14.311-6.407,14.311-14.311v-57.243
			c0-7.904-6.407-14.311-14.311-14.311h-42.932v-57.243h42.932c7.904,0,14.311-6.407,14.311-14.311v-57.243
			c0-7.904-6.407-14.311-14.311-14.311h-42.932v-57.243h42.932c7.904,0,14.311-6.407,14.311-14.311v-57.243
			c0-7.904-6.407-14.311-14.311-14.311h-42.932v-57.243h42.932c7.904,0,14.311-6.407,14.311-14.311v-57.243
			c0-7.904-6.407-14.311-14.311-14.311h-42.932V44.22c0.008-8.612,6.987-15.591,15.599-15.599h598.479
			c8.612,0.008,15.591,6.987,15.599,15.599V814.429z"/>
		
			<linearGradient id="SVGID_2_" gradientUnits="userSpaceOnUse" x1="343.4597" y1="848.1725" x2="343.4597" y2="-3.7649" gradientTransform="matrix(1 0 0 -1 0 843.3784)">
			<stop  offset="0" style="stop-color:#FFF33B"/>
			<stop  offset="0.014" style="stop-color:#FEE72E"/>
			<stop  offset="0.042" style="stop-color:#FED51B"/>
			<stop  offset="0.07" style="stop-color:#FDCA10"/>
			<stop  offset="0.1" style="stop-color:#FDC70C"/>
			<stop  offset="0.4" style="stop-color:#F3903F"/>
			<stop  offset="0.8" style="stop-color:#ED683C"/>
			<stop  offset="1" style="stop-color:#E93E3A"/>
		</linearGradient>
		<path style="fill:url(#SVGID_2_);" d="M457.946,443.635H228.973c-7.904,0-14.311,6.407-14.311,14.311v228.973
			c0,7.904,6.407,14.311,14.311,14.311h228.973c7.904,0,14.311-6.407,14.311-14.311V457.946
			C472.257,450.043,465.85,443.635,457.946,443.635z M443.635,672.609H243.284V472.257h200.351V672.609z"/>
		
			<linearGradient id="SVGID_3_" gradientUnits="userSpaceOnUse" x1="486.5679" y1="856.759" x2="486.5679" y2="4.8072" gradientTransform="matrix(1 0 0 -1 0 843.3784)">
			<stop  offset="0" style="stop-color:#FFF33B"/>
			<stop  offset="0.014" style="stop-color:#FEE72E"/>
			<stop  offset="0.042" style="stop-color:#FED51B"/>
			<stop  offset="0.07" style="stop-color:#FDCA10"/>
			<stop  offset="0.1" style="stop-color:#FDC70C"/>
			<stop  offset="0.4" style="stop-color:#F3903F"/>
			<stop  offset="0.8" style="stop-color:#ED683C"/>
			<stop  offset="1" style="stop-color:#E93E3A"/>
		</linearGradient>
		<path style="fill:url(#SVGID_3_);" d="M372.081,415.014h228.973c7.904,0,14.311-6.407,14.311-14.311V171.73
			c0-7.904-6.407-14.311-14.311-14.311H372.081c-7.904,0-14.311,6.407-14.311,14.311v228.973
			C357.771,408.607,364.178,415.014,372.081,415.014z M386.392,186.041h200.352v200.351H386.392V186.041z"/>
		
			<linearGradient id="SVGID_4_" gradientUnits="userSpaceOnUse" x1="629.6761" y1="854.3547" x2="629.6761" y2="2.403" gradientTransform="matrix(1 0 0 -1 0 843.3784)">
			<stop  offset="0" style="stop-color:#FFF33B"/>
			<stop  offset="0.014" style="stop-color:#FEE72E"/>
			<stop  offset="0.042" style="stop-color:#FED51B"/>
			<stop  offset="0.07" style="stop-color:#FDCA10"/>
			<stop  offset="0.1" style="stop-color:#FDC70C"/>
			<stop  offset="0.4" style="stop-color:#F3903F"/>
			<stop  offset="0.8" style="stop-color:#ED683C"/>
			<stop  offset="1" style="stop-color:#E93E3A"/>
		</linearGradient>
		<path style="fill:url(#SVGID_4_);" d="M744.163,443.635H515.19c-7.904,0-14.311,6.407-14.311,14.311v228.973
			c0,7.904,6.407,14.311,14.311,14.311h228.973c7.904,0,14.311-6.407,14.311-14.311V457.946
			C758.474,450.043,752.066,443.635,744.163,443.635z M729.852,672.609H529.5V472.257h200.352V672.609z"/>
		
			<linearGradient id="SVGID_5_" gradientUnits="userSpaceOnUse" x1="486.5679" y1="860.58" x2="486.5679" y2="-0.0585" gradientTransform="matrix(1 0 0 -1 0 843.3784)">
			<stop  offset="0" style="stop-color:#FFF33B"/>
			<stop  offset="0.014" style="stop-color:#FEE72E"/>
			<stop  offset="0.042" style="stop-color:#FED51B"/>
			<stop  offset="0.07" style="stop-color:#FDCA10"/>
			<stop  offset="0.1" style="stop-color:#FDC70C"/>
			<stop  offset="0.4" style="stop-color:#F3903F"/>
			<stop  offset="0.8" style="stop-color:#ED683C"/>
			<stop  offset="1" style="stop-color:#E93E3A"/>
		</linearGradient>
		<path style="fill:url(#SVGID_5_);" d="M486.568,200.351c-39.499,0.047-71.507,32.055-71.554,71.554v100.176h28.622v-57.243H529.5
			v57.243h28.622V271.906C558.075,232.407,526.067,200.399,486.568,200.351z M443.635,286.216v-14.311
			c0-23.711,19.222-42.932,42.932-42.932c23.711,0,42.932,19.222,42.932,42.932v14.311H443.635z"/>
		
			<linearGradient id="SVGID_6_" gradientUnits="userSpaceOnUse" x1="343.4597" y1="852.9237" x2="343.4597" y2="-6.5269" gradientTransform="matrix(1 0 0 -1 0 843.3784)">
			<stop  offset="0" style="stop-color:#FFF33B"/>
			<stop  offset="0.014" style="stop-color:#FEE72E"/>
			<stop  offset="0.042" style="stop-color:#FED51B"/>
			<stop  offset="0.07" style="stop-color:#FDCA10"/>
			<stop  offset="0.1" style="stop-color:#FDC70C"/>
			<stop  offset="0.4" style="stop-color:#F3903F"/>
			<stop  offset="0.8" style="stop-color:#ED683C"/>
			<stop  offset="1" style="stop-color:#E93E3A"/>
		</linearGradient>
		<path style="fill:url(#SVGID_6_);" d="M286.216,658.298h82.488c25.563-0.032,46.278-20.747,46.31-46.31v-7.556
			c-0.014-11.946-4.668-23.419-12.98-31.999c8.312-8.58,12.966-20.053,12.98-31.999v-7.556c-0.032-25.563-20.747-46.278-46.31-46.31
			h-82.488c-7.904,0-14.311,6.407-14.311,14.311v143.108C271.906,651.891,278.313,658.298,286.216,658.298z M386.392,611.988
			c-0.008,9.766-7.923,17.68-17.688,17.688h-68.177v-42.932h68.177c9.766,0.008,17.68,7.922,17.688,17.688V611.988z M300.527,515.19
			h68.177c9.766,0.008,17.68,7.923,17.688,17.688v7.556c-0.008,9.766-7.923,17.68-17.688,17.688h-68.177V515.19z"/>
		
			<linearGradient id="SVGID_7_" gradientUnits="userSpaceOnUse" x1="629.6761" y1="861.0809" x2="629.6761" y2="0.4281" gradientTransform="matrix(1 0 0 -1 0 843.3784)">
			<stop  offset="0" style="stop-color:#FFF33B"/>
			<stop  offset="0.014" style="stop-color:#FEE72E"/>
			<stop  offset="0.042" style="stop-color:#FED51B"/>
			<stop  offset="0.07" style="stop-color:#FDCA10"/>
			<stop  offset="0.1" style="stop-color:#FDC70C"/>
			<stop  offset="0.4" style="stop-color:#F3903F"/>
			<stop  offset="0.8" style="stop-color:#ED683C"/>
			<stop  offset="1" style="stop-color:#E93E3A"/>
		</linearGradient>
		<path style="fill:url(#SVGID_7_);" d="M629.676,658.298h71.554v-28.622h-71.554c-23.711,0-42.932-19.222-42.932-42.932v-28.622
			c0-23.711,19.221-42.932,42.932-42.932h71.554v-28.622h-71.554c-39.499,0.047-71.507,32.056-71.554,71.554v28.622
			C558.169,626.242,590.177,658.25,629.676,658.298z"/>
	</g>
</g>
<g>
</g>
<g>
</g>
<g>
</g>
<g>
</g>
<g>
</g>
<g>
</g>
<g>
</g>
<g>
</g>
<g>
</g>
<g>
</g>
<g>
</g>
<g>
</g>
<g>
</g>
<g>
</g>
<g>
</g>
</svg>
