<?xml version="1.0" encoding="iso-8859-1"?>
<!-- Generator: Adobe Illustrator 21.0.0, SVG Export Plug-In . SVG Version: 6.00 Build 0)  -->
<svg version="1.1" id="Capa_1" xmlns="http://www.w3.org/2000/svg" xmlns:xlink="http://www.w3.org/1999/xlink" x="0px" y="0px"
	 viewBox="0 0 858.649 858.649" style="enable-background:new 0 0 858.649 858.649;" xml:space="preserve">
<g>
	<g id="Notebook-Art">
		
			<linearGradient id="SVGID_1_" gradientUnits="userSpaceOnUse" x1="429.3246" y1="882.4755" x2="429.3246" y2="26.989" gradientTransform="matrix(1 0 0 -1 0 843.3784)">
			<stop  offset="0" style="stop-color:#FFF33B"/>
			<stop  offset="0.014" style="stop-color:#FEE72E"/>
			<stop  offset="0.042" style="stop-color:#FED51B"/>
			<stop  offset="0.07" style="stop-color:#FDCA10"/>
			<stop  offset="0.1" style="stop-color:#FDC70C"/>
			<stop  offset="0.4" style="stop-color:#F3903F"/>
			<stop  offset="0.8" style="stop-color:#ED683C"/>
			<stop  offset="1" style="stop-color:#E93E3A"/>
		</linearGradient>
		<path style="fill:url(#SVGID_1_);" d="M757.185,0H158.707c-24.412,0.024-44.197,19.808-44.22,44.22v55.955H71.554
			c-7.904,0-14.311,6.407-14.311,14.311v57.243c0,7.904,6.407,14.311,14.311,14.311h42.932v57.243H71.554
			c-7.904,0-14.311,6.407-14.311,14.311v57.243c0,7.904,6.407,14.311,14.311,14.311h42.932v57.243H71.554
			c-7.904,0-14.311,6.407-14.311,14.311v57.243c0,7.904,6.407,14.311,14.311,14.311h42.932V529.5H71.554
			c-7.904,0-14.311,6.407-14.311,14.311v57.243c0,7.904,6.407,14.311,14.311,14.311h42.932v57.243H71.554
			c-7.904,0-14.311,6.407-14.311,14.311v57.243c0,7.904,6.407,14.311,14.311,14.311h42.932v55.955
			c0.024,24.412,19.808,44.197,44.22,44.22h598.479c24.412-0.024,44.197-19.808,44.22-44.22V44.22
			C801.382,19.808,781.598,0.024,757.185,0z M85.865,128.797h85.865v28.622H85.865V128.797z M85.865,271.906h85.865v28.622H85.865
			V271.906z M85.865,415.014h85.865v28.622H85.865V415.014z M85.865,558.122h85.865v28.622H85.865V558.122z M85.865,701.23h85.865
			v28.622H85.865V701.23z M772.784,814.429c-0.008,8.612-6.987,15.591-15.599,15.599H158.707
			c-8.612-0.008-15.591-6.987-15.599-15.599v-55.955h42.932c7.904,0,14.311-6.407,14.311-14.311v-57.243
			c0-7.904-6.407-14.311-14.311-14.311h-42.932v-57.243h42.932c7.904,0,14.311-6.407,14.311-14.311v-57.243
			c0-7.904-6.407-14.311-14.311-14.311h-42.932v-57.243h42.932c7.904,0,14.311-6.407,14.311-14.311v-57.243
			c0-7.904-6.407-14.311-14.311-14.311h-42.932v-57.243h42.932c7.904,0,14.311-6.407,14.311-14.311v-57.243
			c0-7.904-6.407-14.311-14.311-14.311h-42.932v-57.243h42.932c7.904,0,14.311-6.407,14.311-14.311v-57.243
			c0-7.904-6.407-14.311-14.311-14.311h-42.932V44.22c0.008-8.612,6.987-15.591,15.599-15.599h598.479
			c8.612,0.008,15.591,6.987,15.599,15.599V814.429z"/>
		
			<linearGradient id="SVGID_2_" gradientUnits="userSpaceOnUse" x1="446.3087" y1="891.248" x2="446.3087" y2="18.2307" gradientTransform="matrix(1 0 0 -1 0 843.3784)">
			<stop  offset="0" style="stop-color:#FFF33B"/>
			<stop  offset="0.014" style="stop-color:#FEE72E"/>
			<stop  offset="0.042" style="stop-color:#FED51B"/>
			<stop  offset="0.07" style="stop-color:#FDCA10"/>
			<stop  offset="0.1" style="stop-color:#FDC70C"/>
			<stop  offset="0.4" style="stop-color:#F3903F"/>
			<stop  offset="0.8" style="stop-color:#ED683C"/>
			<stop  offset="1" style="stop-color:#E93E3A"/>
		</linearGradient>
		<path style="fill:url(#SVGID_2_);" d="M674.612,396.553c-0.072-0.372,0-0.73-0.086-1.088c-0.21-0.468-0.449-0.922-0.716-1.36
			c-0.375-0.934-0.855-1.822-1.431-2.647c-0.486-0.699-1.037-1.351-1.646-1.946c-0.664-0.695-1.403-1.314-2.204-1.846
			c-0.725-0.506-1.503-0.933-2.318-1.274c-0.461-0.291-0.939-0.554-1.431-0.787c-0.389-0.05-0.781-0.079-1.174-0.086
			c-0.906-0.165-1.827-0.237-2.748-0.215c-0.959-0.028-1.918,0.044-2.862,0.215c-0.401,0-0.773,0-1.173,0.086
			c-59.791,17.173-112.698,8.429-145.112-23.985s-41.144-85.293-23.985-145.112c0.1-0.358,0-0.716,0.086-1.088
			c0.307-1.896,0.307-3.829,0-5.724c-0.072-0.358,0-0.716-0.086-1.088c-0.686-1.331-1.373-2.662-2.061-3.993
			c-0.505-0.719-1.075-1.389-1.703-2.004c-0.642-0.668-1.352-1.268-2.118-1.789c-0.789-0.514-1.628-0.945-2.504-1.288
			c-0.462-0.277-0.939-0.525-1.431-0.744c-0.38-0.05-0.762-0.079-1.145-0.086c-0.943-0.183-1.903-0.26-2.862-0.229
			c-0.959-0.023-1.919,0.054-2.862,0.229c-0.358,0.072-0.716,0-1.059,0.086c-57.062,17.665-108.82,49.277-150.593,91.976
			c-48.377,46.59-82.133,106.265-97.142,171.73c-12.45,62.195,0.487,116.233,36.435,152.167
			c28.874,27.663,67.714,42.463,107.675,41.029c14.984-0.068,29.925-1.611,44.607-4.608c65.467-15.012,125.143-48.773,171.73-97.156
			c42.706-41.762,74.318-93.517,91.976-150.578c0.1-0.358,0-0.716,0.086-1.088c0.307-1.896,0.307-3.829,0-5.724L674.612,396.553z
			 M562.315,533.693c-42.573,44.384-97.139,75.421-157.047,89.328c-52.478,10.476-97.314,0.329-126.293-28.622
			c-28.979-28.951-39.111-73.815-28.622-126.307c13.908-59.904,44.939-114.47,89.314-157.047
			c32.584-32.981,71.536-58.991,114.487-76.448c-10.762,59.59,2.333,112.311,37.323,147.287
			c28.96,27.625,67.834,42.406,107.832,41.001c13.263-0.098,26.49-1.377,39.526-3.821
			C621.376,462.073,595.34,501.075,562.315,533.693z"/>
		
			<linearGradient id="SVGID_3_" gradientUnits="userSpaceOnUse" x1="329.1489" y1="886.6972" x2="329.1489" y2="18.288" gradientTransform="matrix(1 0 0 -1 0 843.3784)">
			<stop  offset="0" style="stop-color:#FFF33B"/>
			<stop  offset="0.014" style="stop-color:#FEE72E"/>
			<stop  offset="0.042" style="stop-color:#FED51B"/>
			<stop  offset="0.07" style="stop-color:#FDCA10"/>
			<stop  offset="0.1" style="stop-color:#FDC70C"/>
			<stop  offset="0.4" style="stop-color:#F3903F"/>
			<stop  offset="0.8" style="stop-color:#ED683C"/>
			<stop  offset="1" style="stop-color:#E93E3A"/>
		</linearGradient>
		<path style="fill:url(#SVGID_3_);" d="M359.502,513.444c-16.769-16.764-43.952-16.76-60.716,0.009
			c-16.764,16.769-16.76,43.952,0.009,60.716c16.769,16.764,43.952,16.76,60.716-0.009c8.047-8.05,12.569-18.966,12.57-30.348
			C372.083,532.421,367.558,521.497,359.502,513.444z M339.267,553.929c-5.588,5.59-14.649,5.591-20.239,0.003
			c-5.59-5.588-5.591-14.649-0.003-20.239c5.588-5.59,14.649-5.591,20.239-0.003c0.001,0.001,0.002,0.002,0.003,0.003l0,0
			C344.853,539.282,344.853,548.341,339.267,553.929z"/>
		
			<linearGradient id="SVGID_4_" gradientUnits="userSpaceOnUse" x1="329.1489" y1="886.7115" x2="329.1489" y2="18.3166" gradientTransform="matrix(1 0 0 -1 0 843.3784)">
			<stop  offset="0" style="stop-color:#FFF33B"/>
			<stop  offset="0.014" style="stop-color:#FEE72E"/>
			<stop  offset="0.042" style="stop-color:#FED51B"/>
			<stop  offset="0.07" style="stop-color:#FDCA10"/>
			<stop  offset="0.1" style="stop-color:#FDC70C"/>
			<stop  offset="0.4" style="stop-color:#F3903F"/>
			<stop  offset="0.8" style="stop-color:#ED683C"/>
			<stop  offset="1" style="stop-color:#E93E3A"/>
		</linearGradient>
		<path style="fill:url(#SVGID_4_);" d="M359.502,413.268c-16.769-16.764-43.952-16.76-60.716,0.009
			c-16.764,16.769-16.76,43.952,0.009,60.716c16.769,16.764,43.952,16.76,60.716-0.009c8.047-8.05,12.569-18.966,12.57-30.348
			C372.083,432.245,367.558,421.321,359.502,413.268z M339.267,453.753c-5.588,5.59-14.649,5.591-20.239,0.003
			c-5.59-5.588-5.591-14.649-0.003-20.239c5.588-5.59,14.649-5.591,20.239-0.003c0.001,0.001,0.002,0.002,0.003,0.003l0,0
			C344.853,439.106,344.853,448.165,339.267,453.753z"/>
		
			<linearGradient id="SVGID_5_" gradientUnits="userSpaceOnUse" x1="429.3246" y1="888.8868" x2="429.3246" y2="20.4919" gradientTransform="matrix(1 0 0 -1 0 843.3784)">
			<stop  offset="0" style="stop-color:#FFF33B"/>
			<stop  offset="0.014" style="stop-color:#FEE72E"/>
			<stop  offset="0.042" style="stop-color:#FED51B"/>
			<stop  offset="0.07" style="stop-color:#FDCA10"/>
			<stop  offset="0.1" style="stop-color:#FDC70C"/>
			<stop  offset="0.4" style="stop-color:#F3903F"/>
			<stop  offset="0.8" style="stop-color:#ED683C"/>
			<stop  offset="1" style="stop-color:#E93E3A"/>
		</linearGradient>
		<path style="fill:url(#SVGID_5_);" d="M459.678,513.444c-16.769-16.764-43.952-16.76-60.716,0.009
			c-16.764,16.769-16.759,43.952,0.009,60.716c16.769,16.764,43.952,16.759,60.716-0.009c8.047-8.05,12.569-18.966,12.57-30.348
			C472.258,532.421,467.733,521.497,459.678,513.444z M439.442,553.929c-5.588,5.59-14.649,5.591-20.239,0.003
			c-5.59-5.588-5.591-14.649-0.003-20.239c5.588-5.59,14.649-5.591,20.239-0.003c0.001,0.001,0.002,0.002,0.003,0.003l0,0
			C445.029,539.282,445.029,548.341,439.442,553.929z"/>
		
			<linearGradient id="SVGID_6_" gradientUnits="userSpaceOnUse" x1="515.1895" y1="890.7901" x2="515.1895" y2="22.3952" gradientTransform="matrix(1 0 0 -1 0 843.3784)">
			<stop  offset="0" style="stop-color:#FFF33B"/>
			<stop  offset="0.014" style="stop-color:#FEE72E"/>
			<stop  offset="0.042" style="stop-color:#FED51B"/>
			<stop  offset="0.07" style="stop-color:#FDCA10"/>
			<stop  offset="0.1" style="stop-color:#FDC70C"/>
			<stop  offset="0.4" style="stop-color:#F3903F"/>
			<stop  offset="0.8" style="stop-color:#ED683C"/>
			<stop  offset="1" style="stop-color:#E93E3A"/>
		</linearGradient>
		<path style="fill:url(#SVGID_6_);" d="M545.543,456.2c-16.769-16.764-43.952-16.76-60.716,0.009
			c-16.764,16.769-16.759,43.952,0.009,60.716c16.769,16.764,43.952,16.759,60.716-0.009c8.047-8.05,12.569-18.966,12.57-30.348
			C558.123,475.177,553.598,464.253,545.543,456.2z M525.307,496.686c-5.588,5.59-14.649,5.591-20.239,0.003
			c-5.59-5.588-5.591-14.649-0.003-20.239c5.588-5.59,14.649-5.591,20.239-0.003c0.001,0.001,0.002,0.002,0.003,0.003l0,0
			C530.894,482.038,530.894,491.097,525.307,496.686z"/>
		
			<linearGradient id="SVGID_7_" gradientUnits="userSpaceOnUse" x1="386.3687" y1="887.9995" x2="386.3687" y2="19.6046" gradientTransform="matrix(1 0 0 -1 0 843.3784)">
			<stop  offset="0" style="stop-color:#FFF33B"/>
			<stop  offset="0.014" style="stop-color:#FEE72E"/>
			<stop  offset="0.042" style="stop-color:#FED51B"/>
			<stop  offset="0.07" style="stop-color:#FDCA10"/>
			<stop  offset="0.1" style="stop-color:#FDC70C"/>
			<stop  offset="0.4" style="stop-color:#F3903F"/>
			<stop  offset="0.8" style="stop-color:#ED683C"/>
			<stop  offset="1" style="stop-color:#E93E3A"/>
		</linearGradient>
		<path style="fill:url(#SVGID_7_);" d="M386.392,400.703c23.711-0.013,42.922-19.245,42.909-42.956
			c-0.006-11.369-4.522-22.271-12.556-30.315l0,0c-16.756-16.777-43.939-16.794-60.716-0.038
			c-16.777,16.756-16.794,43.939-0.038,60.716C364.051,396.178,374.988,400.709,386.392,400.703z M376.274,347.667
			c5.588-5.587,14.647-5.587,20.236,0l0,0c5.59,5.588,5.591,14.649,0.003,20.239s-14.649,5.591-20.239,0.003
			c-5.59-5.588-5.591-14.649-0.003-20.239C376.272,347.669,376.273,347.668,376.274,347.667z"/>
		
			<linearGradient id="SVGID_8_" gradientUnits="userSpaceOnUse" x1="715.5792" y1="894.9545" x2="715.5792" y2="26.7457" gradientTransform="matrix(1 0 0 -1 0 843.3784)">
			<stop  offset="0" style="stop-color:#FFF33B"/>
			<stop  offset="0.014" style="stop-color:#FEE72E"/>
			<stop  offset="0.042" style="stop-color:#FED51B"/>
			<stop  offset="0.07" style="stop-color:#FDCA10"/>
			<stop  offset="0.1" style="stop-color:#FDC70C"/>
			<stop  offset="0.4" style="stop-color:#F3903F"/>
			<stop  offset="0.8" style="stop-color:#ED683C"/>
			<stop  offset="1" style="stop-color:#E93E3A"/>
		</linearGradient>
		<path style="fill:url(#SVGID_8_);" d="M729.852,661.16V85.865H701.23V661.16c-16.888,6.571-26.806,24.133-23.713,41.988
			c0.175,1.071,0.472,2.117,0.887,3.12l23.913,57.63c3.022,7.303,11.393,10.773,18.696,7.751c3.51-1.453,6.298-4.241,7.751-7.751
			l23.985-57.572c0.415-1.002,0.713-2.049,0.887-3.12C756.749,685.311,746.792,667.71,729.852,661.16z M715.541,721.079
			l-9.932-23.942c0-5.485,4.447-9.932,9.932-9.932s9.932,4.447,9.932,9.932L715.541,721.079z"/>
	</g>
</g>
<g>
</g>
<g>
</g>
<g>
</g>
<g>
</g>
<g>
</g>
<g>
</g>
<g>
</g>
<g>
</g>
<g>
</g>
<g>
</g>
<g>
</g>
<g>
</g>
<g>
</g>
<g>
</g>
<g>
</g>
</svg>
