<?xml version="1.0" encoding="iso-8859-1"?>
<!-- Generator: Adobe Illustrator 21.0.0, SVG Export Plug-In . SVG Version: 6.00 Build 0)  -->
<svg version="1.1" id="Capa_1" xmlns="http://www.w3.org/2000/svg" xmlns:xlink="http://www.w3.org/1999/xlink" x="0px" y="0px"
	 viewBox="0 0 858.649 858.649" style="enable-background:new 0 0 858.649 858.649;" xml:space="preserve">
<g>
	<g id="Notebook-Certificate">
		
			<linearGradient id="SVGID_1_" gradientUnits="userSpaceOnUse" x1="429.3246" y1="850.5338" x2="429.3246" y2="-65.3587" gradientTransform="matrix(1 0 0 -1 0 843.3784)">
			<stop  offset="0" style="stop-color:#FFF33B"/>
			<stop  offset="0.014" style="stop-color:#FEE72E"/>
			<stop  offset="0.042" style="stop-color:#FED51B"/>
			<stop  offset="0.07" style="stop-color:#FDCA10"/>
			<stop  offset="0.1" style="stop-color:#FDC70C"/>
			<stop  offset="0.4" style="stop-color:#F3903F"/>
			<stop  offset="0.8" style="stop-color:#ED683C"/>
			<stop  offset="1" style="stop-color:#E93E3A"/>
		</linearGradient>
		<path style="fill:url(#SVGID_1_);" d="M786.966,157.419c0.033-3.777-1.427-7.414-4.064-10.118L639.794,4.193
			c-2.696-2.649-6.338-4.112-10.118-4.064V0h-515.19c-7.904,0-14.311,6.407-14.311,14.311v57.243H71.554v28.622h28.622v57.243
			H71.554v28.622h28.622v57.243H71.554v28.622h28.622v57.243H71.554v28.622h28.622v57.243H71.554v28.622h28.622v57.243H71.554V529.5
			h28.622v57.243H71.554v28.622h28.622v57.243H71.554v28.622h28.622v57.243H71.554v28.622h28.622v57.243
			c0,7.904,6.407,14.311,14.311,14.311h658.298c7.904,0,14.311-6.407,14.311-14.311V157.419H786.966z M643.987,48.857l94.251,94.251
			h-94.251V48.857z M758.474,830.028H128.797v-42.932h28.622v-28.622h-28.622V701.23h28.622v-28.622h-28.622v-57.243h28.622v-28.622
			h-28.622V529.5h28.622v-28.622h-28.622v-57.243h28.622v-28.622h-28.622v-57.243h28.622v-28.622h-28.622v-57.243h28.622v-28.622
			h-28.622v-57.243h28.622v-28.622h-28.622v-57.243h28.622V71.554h-28.622V28.622h486.568v128.797
			c0,7.904,6.407,14.311,14.311,14.311h128.797V830.028z"/>
		
			<linearGradient id="SVGID_2_" gradientUnits="userSpaceOnUse" x1="457.9463" y1="850.5338" x2="457.9463" y2="-65.3587" gradientTransform="matrix(1 0 0 -1 0 843.3784)">
			<stop  offset="0" style="stop-color:#FFF33B"/>
			<stop  offset="0.014" style="stop-color:#FEE72E"/>
			<stop  offset="0.042" style="stop-color:#FED51B"/>
			<stop  offset="0.07" style="stop-color:#FDCA10"/>
			<stop  offset="0.1" style="stop-color:#FDC70C"/>
			<stop  offset="0.4" style="stop-color:#F3903F"/>
			<stop  offset="0.8" style="stop-color:#ED683C"/>
			<stop  offset="1" style="stop-color:#E93E3A"/>
		</linearGradient>
		<path style="fill:url(#SVGID_2_);" d="M186.041,228.973v400.703c0,7.904,6.407,14.311,14.311,14.311h515.19
			c7.904,0,14.311-6.407,14.311-14.311V228.973c0-7.904-6.407-14.311-14.311-14.311h-515.19
			C192.448,214.662,186.041,221.069,186.041,228.973z M214.662,243.284H701.23v372.081H214.662V243.284z"/>
		
			<linearGradient id="SVGID_3_" gradientUnits="userSpaceOnUse" x1="572.4316" y1="850.5338" x2="572.4316" y2="-65.3587" gradientTransform="matrix(1 0 0 -1 0 843.3784)">
			<stop  offset="0" style="stop-color:#FFF33B"/>
			<stop  offset="0.014" style="stop-color:#FEE72E"/>
			<stop  offset="0.042" style="stop-color:#FED51B"/>
			<stop  offset="0.07" style="stop-color:#FDCA10"/>
			<stop  offset="0.1" style="stop-color:#FDC70C"/>
			<stop  offset="0.4" style="stop-color:#F3903F"/>
			<stop  offset="0.8" style="stop-color:#ED683C"/>
			<stop  offset="1" style="stop-color:#E93E3A"/>
		</linearGradient>
		<path style="fill:url(#SVGID_3_);" d="M645.232,427.378c8.487-11.983,13.051-26.302,13.066-40.986v-28.622
			c-0.047-39.499-32.055-71.507-71.554-71.554h-28.622c-39.499,0.047-71.507,32.055-71.554,71.554v28.622
			c0.015,14.684,4.579,29.003,13.066,40.986L473.974,555.26c-1.512,7.758,3.552,15.272,11.31,16.784
			c4.66,0.908,9.468-0.554,12.833-3.904l18.504-18.404l18.504,18.504c5.587,5.591,14.648,5.594,20.239,0.007
			c2.001-1.999,3.364-4.547,3.918-7.32l13.152-65.773l13.152,65.83c1.548,7.751,9.086,12.779,16.836,11.231
			c2.774-0.554,5.321-1.917,7.32-3.918l18.504-18.561l18.504,18.504c5.602,5.576,14.663,5.555,20.239-0.047
			c3.349-3.365,4.812-8.172,3.904-12.833L645.232,427.378z M536.47,529.1l-9.717-9.717c-4.135-4.131-10.367-5.332-15.742-3.034
			l13.481-67.261c8.176,4.395,17.139,7.133,26.375,8.057L536.47,529.1z M586.744,429.325h-28.622
			c-11.069-0.008-21.702-4.319-29.652-12.021c-1.171-2.747-3.173-5.059-5.724-6.612c-4.934-7.142-7.57-15.619-7.556-24.3v-28.622
			c0-23.711,19.222-42.932,42.932-42.932h28.622c23.711,0,42.932,19.222,42.932,42.932v28.622
			c0.007,8.695-2.644,17.184-7.599,24.328c-2.551,1.553-4.553,3.864-5.724,6.612C608.409,425.014,597.794,429.313,586.744,429.325z
			 M618.127,519.383l-9.717,9.717l-14.382-71.898c9.236-0.924,18.199-3.662,26.375-8.057l13.481,67.261
			C628.516,514.086,622.278,515.265,618.127,519.383z"/>
		
			<linearGradient id="SVGID_4_" gradientUnits="userSpaceOnUse" x1="314.838" y1="850.5338" x2="314.838" y2="-65.3587" gradientTransform="matrix(1 0 0 -1 0 843.3784)">
			<stop  offset="0" style="stop-color:#FFF33B"/>
			<stop  offset="0.014" style="stop-color:#FEE72E"/>
			<stop  offset="0.042" style="stop-color:#FED51B"/>
			<stop  offset="0.07" style="stop-color:#FDCA10"/>
			<stop  offset="0.1" style="stop-color:#FDC70C"/>
			<stop  offset="0.4" style="stop-color:#F3903F"/>
			<stop  offset="0.8" style="stop-color:#ED683C"/>
			<stop  offset="1" style="stop-color:#E93E3A"/>
		</linearGradient>
		<rect x="257.595" y="286.216" style="fill:url(#SVGID_4_);" width="114.487" height="28.622"/>
		
			<linearGradient id="SVGID_5_" gradientUnits="userSpaceOnUse" x1="343.4597" y1="850.5338" x2="343.4597" y2="-65.3587" gradientTransform="matrix(1 0 0 -1 0 843.3784)">
			<stop  offset="0" style="stop-color:#FFF33B"/>
			<stop  offset="0.014" style="stop-color:#FEE72E"/>
			<stop  offset="0.042" style="stop-color:#FED51B"/>
			<stop  offset="0.07" style="stop-color:#FDCA10"/>
			<stop  offset="0.1" style="stop-color:#FDC70C"/>
			<stop  offset="0.4" style="stop-color:#F3903F"/>
			<stop  offset="0.8" style="stop-color:#ED683C"/>
			<stop  offset="1" style="stop-color:#E93E3A"/>
		</linearGradient>
		<rect x="257.595" y="329.149" style="fill:url(#SVGID_5_);" width="171.73" height="28.622"/>
		
			<linearGradient id="SVGID_6_" gradientUnits="userSpaceOnUse" x1="357.7705" y1="850.5338" x2="357.7705" y2="-65.3587" gradientTransform="matrix(1 0 0 -1 0 843.3784)">
			<stop  offset="0" style="stop-color:#FFF33B"/>
			<stop  offset="0.014" style="stop-color:#FEE72E"/>
			<stop  offset="0.042" style="stop-color:#FED51B"/>
			<stop  offset="0.07" style="stop-color:#FDCA10"/>
			<stop  offset="0.1" style="stop-color:#FDC70C"/>
			<stop  offset="0.4" style="stop-color:#F3903F"/>
			<stop  offset="0.8" style="stop-color:#ED683C"/>
			<stop  offset="1" style="stop-color:#E93E3A"/>
		</linearGradient>
		<rect x="257.595" y="372.081" style="fill:url(#SVGID_6_);" width="200.351" height="28.622"/>
		
			<linearGradient id="SVGID_7_" gradientUnits="userSpaceOnUse" x1="343.4597" y1="850.5338" x2="343.4597" y2="-65.3587" gradientTransform="matrix(1 0 0 -1 0 843.3784)">
			<stop  offset="0" style="stop-color:#FFF33B"/>
			<stop  offset="0.014" style="stop-color:#FEE72E"/>
			<stop  offset="0.042" style="stop-color:#FED51B"/>
			<stop  offset="0.07" style="stop-color:#FDCA10"/>
			<stop  offset="0.1" style="stop-color:#FDC70C"/>
			<stop  offset="0.4" style="stop-color:#F3903F"/>
			<stop  offset="0.8" style="stop-color:#ED683C"/>
			<stop  offset="1" style="stop-color:#E93E3A"/>
		</linearGradient>
		<rect x="257.595" y="415.014" style="fill:url(#SVGID_7_);" width="171.73" height="28.622"/>
		
			<linearGradient id="SVGID_8_" gradientUnits="userSpaceOnUse" x1="300.5272" y1="850.5338" x2="300.5272" y2="-65.3587" gradientTransform="matrix(1 0 0 -1 0 843.3784)">
			<stop  offset="0" style="stop-color:#FFF33B"/>
			<stop  offset="0.014" style="stop-color:#FEE72E"/>
			<stop  offset="0.042" style="stop-color:#FED51B"/>
			<stop  offset="0.07" style="stop-color:#FDCA10"/>
			<stop  offset="0.1" style="stop-color:#FDC70C"/>
			<stop  offset="0.4" style="stop-color:#F3903F"/>
			<stop  offset="0.8" style="stop-color:#ED683C"/>
			<stop  offset="1" style="stop-color:#E93E3A"/>
		</linearGradient>
		<rect x="257.595" y="457.946" style="fill:url(#SVGID_8_);" width="85.865" height="28.622"/>
		
			<linearGradient id="SVGID_9_" gradientUnits="userSpaceOnUse" x1="314.838" y1="850.5338" x2="314.838" y2="-65.3587" gradientTransform="matrix(1 0 0 -1 0 843.3784)">
			<stop  offset="0" style="stop-color:#FFF33B"/>
			<stop  offset="0.014" style="stop-color:#FEE72E"/>
			<stop  offset="0.042" style="stop-color:#FED51B"/>
			<stop  offset="0.07" style="stop-color:#FDCA10"/>
			<stop  offset="0.1" style="stop-color:#FDC70C"/>
			<stop  offset="0.4" style="stop-color:#F3903F"/>
			<stop  offset="0.8" style="stop-color:#ED683C"/>
			<stop  offset="1" style="stop-color:#E93E3A"/>
		</linearGradient>
		<rect x="257.595" y="500.879" style="fill:url(#SVGID_9_);" width="114.487" height="28.622"/>
		
			<linearGradient id="SVGID_10_" gradientUnits="userSpaceOnUse" x1="329.1489" y1="850.5338" x2="329.1489" y2="-65.3587" gradientTransform="matrix(1 0 0 -1 0 843.3784)">
			<stop  offset="0" style="stop-color:#FFF33B"/>
			<stop  offset="0.014" style="stop-color:#FEE72E"/>
			<stop  offset="0.042" style="stop-color:#FED51B"/>
			<stop  offset="0.07" style="stop-color:#FDCA10"/>
			<stop  offset="0.1" style="stop-color:#FDC70C"/>
			<stop  offset="0.4" style="stop-color:#F3903F"/>
			<stop  offset="0.8" style="stop-color:#ED683C"/>
			<stop  offset="1" style="stop-color:#E93E3A"/>
		</linearGradient>
		<rect x="257.595" y="543.811" style="fill:url(#SVGID_10_);" width="143.108" height="28.622"/>
	</g>
</g>
<g>
</g>
<g>
</g>
<g>
</g>
<g>
</g>
<g>
</g>
<g>
</g>
<g>
</g>
<g>
</g>
<g>
</g>
<g>
</g>
<g>
</g>
<g>
</g>
<g>
</g>
<g>
</g>
<g>
</g>
</svg>
