<?xml version="1.0" encoding="iso-8859-1"?>
<!-- Generator: Adobe Illustrator 21.0.0, SVG Export Plug-In . SVG Version: 6.00 Build 0)  -->
<svg version="1.1" id="Capa_1" xmlns="http://www.w3.org/2000/svg" xmlns:xlink="http://www.w3.org/1999/xlink" x="0px" y="0px"
	 viewBox="0 0 858.649 858.649" style="enable-background:new 0 0 858.649 858.649;" xml:space="preserve">
<g>
	<g id="Notebook-graph">
		
			<linearGradient id="SVGID_1_" gradientUnits="userSpaceOnUse" x1="429.3246" y1="850.5338" x2="429.3246" y2="-65.3587" gradientTransform="matrix(1 0 0 -1 0 843.3784)">
			<stop  offset="0" style="stop-color:#FFF33B"/>
			<stop  offset="0.014" style="stop-color:#FEE72E"/>
			<stop  offset="0.042" style="stop-color:#FED51B"/>
			<stop  offset="0.07" style="stop-color:#FDCA10"/>
			<stop  offset="0.1" style="stop-color:#FDC70C"/>
			<stop  offset="0.4" style="stop-color:#F3903F"/>
			<stop  offset="0.8" style="stop-color:#ED683C"/>
			<stop  offset="1" style="stop-color:#E93E3A"/>
		</linearGradient>
		<path style="fill:url(#SVGID_1_);" d="M786.966,157.419c0.033-3.777-1.427-7.414-4.064-10.118L639.794,4.193
			c-2.696-2.649-6.338-4.112-10.118-4.064V0h-515.19c-7.904,0-14.311,6.407-14.311,14.311v57.243H71.554v28.622h28.622v57.243
			H71.554v28.622h28.622v57.243H71.554v28.622h28.622v57.243H71.554v28.622h28.622v57.243H71.554v28.622h28.622v57.243H71.554V529.5
			h28.622v57.243H71.554v28.622h28.622v57.243H71.554v28.622h28.622v57.243H71.554v28.622h28.622v57.243
			c0,7.904,6.407,14.311,14.311,14.311h658.298c7.904,0,14.311-6.407,14.311-14.311V157.419H786.966z M643.987,48.857l94.251,94.251
			h-94.251V48.857z M128.797,830.028v-42.932h28.622v-28.622h-28.622V701.23h28.622v-28.622h-28.622v-57.243h28.622v-28.622h-28.622
			V529.5h28.622v-28.622h-28.622v-57.243h28.622v-28.622h-28.622v-57.243h28.622v-28.622h-28.622v-57.243h28.622v-28.622h-28.622
			v-57.243h28.622v-28.622h-28.622v-57.243h28.622V71.554h-28.622V28.622h486.568v128.797c0,7.904,6.407,14.311,14.311,14.311
			h128.797v658.298H128.797z"/>
		
			<linearGradient id="SVGID_2_" gradientUnits="userSpaceOnUse" x1="457.9463" y1="850.5338" x2="457.9463" y2="-65.3587" gradientTransform="matrix(1 0 0 -1 0 843.3784)">
			<stop  offset="0" style="stop-color:#FFF33B"/>
			<stop  offset="0.014" style="stop-color:#FEE72E"/>
			<stop  offset="0.042" style="stop-color:#FED51B"/>
			<stop  offset="0.07" style="stop-color:#FDCA10"/>
			<stop  offset="0.1" style="stop-color:#FDC70C"/>
			<stop  offset="0.4" style="stop-color:#F3903F"/>
			<stop  offset="0.8" style="stop-color:#ED683C"/>
			<stop  offset="1" style="stop-color:#E93E3A"/>
		</linearGradient>
		<path style="fill:url(#SVGID_2_);" d="M686.919,271.906c0-7.904-6.407-14.311-14.311-14.311h-57.243
			c-7.904,0-14.311,6.407-14.311,14.311v357.771h-28.622V415.014c0-7.904-6.407-14.311-14.311-14.311h-57.243
			c-7.904,0-14.311,6.407-14.311,14.311v214.662h-28.622V386.392c0-7.904-6.407-14.311-14.311-14.311h-57.243
			c-7.904,0-14.311,6.407-14.311,14.311v243.284H343.46V472.257c0-7.904-6.407-14.311-14.311-14.311h-57.243
			c-7.904,0-14.311,6.407-14.311,14.311v157.419h-42.932v-28.622h14.311v-28.622h-14.311v-28.622h14.311V515.19h-14.311v-28.622
			h14.311v-28.622h-14.311v-28.622h14.311v-28.622h-14.311v-28.622h14.311V343.46h-14.311v-28.622h14.311v-28.622h-14.311v-28.622
			h14.311v-28.622h-14.311v-28.622h-28.622v443.635c0,7.904,6.407,14.311,14.311,14.311h529.5v-28.622h-42.932V271.906z
			 M286.216,629.676V486.568h28.622v143.108H286.216z M400.703,629.676V400.703h28.622v228.973H400.703z M515.19,629.676V429.325
			h28.622v200.351H515.19z M629.676,629.676v-343.46h28.622v343.46H629.676z"/>
	</g>
</g>
<g>
</g>
<g>
</g>
<g>
</g>
<g>
</g>
<g>
</g>
<g>
</g>
<g>
</g>
<g>
</g>
<g>
</g>
<g>
</g>
<g>
</g>
<g>
</g>
<g>
</g>
<g>
</g>
<g>
</g>
</svg>
