<?xml version="1.0" encoding="iso-8859-1"?>
<!-- Generator: Adobe Illustrator 21.0.0, SVG Export Plug-In . SVG Version: 6.00 Build 0)  -->
<svg version="1.1" id="Capa_1" xmlns="http://www.w3.org/2000/svg" xmlns:xlink="http://www.w3.org/1999/xlink" x="0px" y="0px"
	 viewBox="0 0 858.649 858.649" style="enable-background:new 0 0 858.649 858.649;" xml:space="preserve">
<g>
	<g id="Notebook-people">
		
			<linearGradient id="SVGID_1_" gradientUnits="userSpaceOnUse" x1="429.3246" y1="850.5338" x2="429.3246" y2="-65.3587" gradientTransform="matrix(1 0 0 -1 0 843.3784)">
			<stop  offset="0" style="stop-color:#FFF33B"/>
			<stop  offset="0.014" style="stop-color:#FEE72E"/>
			<stop  offset="0.042" style="stop-color:#FED51B"/>
			<stop  offset="0.07" style="stop-color:#FDCA10"/>
			<stop  offset="0.1" style="stop-color:#FDC70C"/>
			<stop  offset="0.4" style="stop-color:#F3903F"/>
			<stop  offset="0.8" style="stop-color:#ED683C"/>
			<stop  offset="1" style="stop-color:#E93E3A"/>
		</linearGradient>
		<path style="fill:url(#SVGID_1_);" d="M786.966,157.419c0.048-3.779-1.415-7.422-4.064-10.118L639.794,4.193
			c-2.696-2.649-6.338-4.112-10.118-4.064V0h-515.19c-7.904,0-14.311,6.407-14.311,14.311v57.243H71.554v28.622h28.622v57.243
			H71.554v28.622h28.622v57.243H71.554v28.622h28.622v57.243H71.554v28.622h28.622v57.243H71.554v28.622h28.622v57.243H71.554V529.5
			h28.622v57.243H71.554v28.622h28.622v57.243H71.554v28.622h28.622v57.243H71.554v28.622h28.622v57.243
			c0,7.904,6.407,14.311,14.311,14.311h658.298c7.904,0,14.311-6.407,14.311-14.311V157.419H786.966z M643.987,48.857l94.251,94.251
			h-94.251V48.857z M128.797,830.028v-42.932h28.622v-28.622h-28.622V701.23h28.622v-28.622h-28.622v-57.243h28.622v-28.622h-28.622
			V529.5h28.622v-28.622h-28.622v-57.243h28.622v-28.622h-28.622v-57.243h28.622v-28.622h-28.622v-57.243h28.622v-28.622h-28.622
			v-57.243h28.622v-28.622h-28.622v-57.243h28.622V71.554h-28.622V28.622h486.568v128.797c0,7.904,6.407,14.311,14.311,14.311
			h128.797v658.298H128.797z"/>
		
			<linearGradient id="SVGID_2_" gradientUnits="userSpaceOnUse" x1="300.5272" y1="850.5338" x2="300.5272" y2="-65.3587" gradientTransform="matrix(1 0 0 -1 0 843.3784)">
			<stop  offset="0" style="stop-color:#FFF33B"/>
			<stop  offset="0.014" style="stop-color:#FEE72E"/>
			<stop  offset="0.042" style="stop-color:#FED51B"/>
			<stop  offset="0.07" style="stop-color:#FDCA10"/>
			<stop  offset="0.1" style="stop-color:#FDC70C"/>
			<stop  offset="0.4" style="stop-color:#F3903F"/>
			<stop  offset="0.8" style="stop-color:#ED683C"/>
			<stop  offset="1" style="stop-color:#E93E3A"/>
		</linearGradient>
		<path style="fill:url(#SVGID_2_);" d="M351.803,522.345c3.864-6.497,5.924-13.907,5.968-21.466v-28.622
			c0-23.711-19.221-42.932-42.932-42.932h-28.622c-23.711,0-42.932,19.222-42.932,42.932v28.622
			c0.044,7.559,2.104,14.969,5.968,21.466c-38.112,15.161-63.148,52.004-63.211,93.02v85.865c0,7.904,6.407,14.311,14.311,14.311
			h200.351c7.904,0,14.311-6.407,14.311-14.311v-85.865C414.951,574.349,389.915,537.506,351.803,522.345z M271.906,500.879v-28.622
			c0-7.904,6.407-14.311,14.311-14.311h28.622c7.904,0,14.311,6.407,14.311,14.311v28.622c0,7.904-6.407,14.311-14.311,14.311
			h-28.622C278.313,515.19,271.906,508.782,271.906,500.879z M386.392,686.919h-171.73v-71.554
			c0.047-39.499,32.055-71.507,71.554-71.554h28.622c39.499,0.047,71.507,32.056,71.554,71.554V686.919z"/>
		
			<linearGradient id="SVGID_3_" gradientUnits="userSpaceOnUse" x1="558.122" y1="850.5338" x2="558.122" y2="-65.3587" gradientTransform="matrix(1 0 0 -1 0 843.3784)">
			<stop  offset="0" style="stop-color:#FFF33B"/>
			<stop  offset="0.014" style="stop-color:#FEE72E"/>
			<stop  offset="0.042" style="stop-color:#FED51B"/>
			<stop  offset="0.07" style="stop-color:#FDCA10"/>
			<stop  offset="0.1" style="stop-color:#FDC70C"/>
			<stop  offset="0.4" style="stop-color:#F3903F"/>
			<stop  offset="0.8" style="stop-color:#ED683C"/>
			<stop  offset="1" style="stop-color:#E93E3A"/>
		</linearGradient>
		<path style="fill:url(#SVGID_3_);" d="M609.398,522.345c3.864-6.497,5.924-13.907,5.968-21.466v-28.622
			c0-23.711-19.222-42.932-42.932-42.932h-28.622c-23.711,0-42.932,19.222-42.932,42.932v28.622
			c0.044,7.559,2.104,14.969,5.968,21.466c-38.112,15.161-63.148,52.004-63.211,93.02v85.865c0,7.904,6.407,14.311,14.311,14.311
			h200.351c7.904,0,14.311-6.407,14.311-14.311v-85.865C672.546,574.349,647.509,537.506,609.398,522.345z M529.5,500.879v-28.622
			c0-7.904,6.407-14.311,14.311-14.311h28.622c7.904,0,14.311,6.407,14.311,14.311v28.622c0,7.904-6.407,14.311-14.311,14.311
			h-28.622C535.908,515.19,529.5,508.782,529.5,500.879z M643.987,686.919h-171.73v-71.554
			c0.047-39.499,32.055-71.507,71.554-71.554h28.622c39.499,0.047,71.507,32.056,71.554,71.554V686.919z"/>
		
			<linearGradient id="SVGID_4_" gradientUnits="userSpaceOnUse" x1="429.3246" y1="850.5338" x2="429.3246" y2="-65.3587" gradientTransform="matrix(1 0 0 -1 0 843.3784)">
			<stop  offset="0" style="stop-color:#FFF33B"/>
			<stop  offset="0.014" style="stop-color:#FEE72E"/>
			<stop  offset="0.042" style="stop-color:#FED51B"/>
			<stop  offset="0.07" style="stop-color:#FDCA10"/>
			<stop  offset="0.1" style="stop-color:#FDC70C"/>
			<stop  offset="0.4" style="stop-color:#F3903F"/>
			<stop  offset="0.8" style="stop-color:#ED683C"/>
			<stop  offset="1" style="stop-color:#E93E3A"/>
		</linearGradient>
		<path style="fill:url(#SVGID_4_);" d="M280.735,399.615c1.736,0.724,3.6,1.094,5.481,1.088c3.795-0.001,7.435-1.509,10.118-4.193
			l69.093-69.093c8.039-8.077,18.972-12.606,30.368-12.579H515.19c39.499-0.047,71.507-32.055,71.554-71.554v-28.622
			c-0.047-39.499-32.056-71.507-71.554-71.554H343.46c-39.499,0.047-71.507,32.055-71.554,71.554v171.73
			C271.904,392.18,275.389,397.399,280.735,399.615z M300.527,214.662c0-23.711,19.222-42.932,42.932-42.932h171.73
			c23.711,0,42.932,19.222,42.932,42.932v28.622c0,23.711-19.222,42.932-42.932,42.932H395.794
			c-18.99-0.049-37.212,7.5-50.603,20.965l-44.664,44.664V214.662z"/>
	</g>
</g>
<g>
</g>
<g>
</g>
<g>
</g>
<g>
</g>
<g>
</g>
<g>
</g>
<g>
</g>
<g>
</g>
<g>
</g>
<g>
</g>
<g>
</g>
<g>
</g>
<g>
</g>
<g>
</g>
<g>
</g>
</svg>
