<?xml version="1.0" encoding="iso-8859-1"?>
<!-- Generator: Adobe Illustrator 21.0.0, SVG Export Plug-In . SVG Version: 6.00 Build 0)  -->
<svg version="1.1" id="Capa_1" xmlns="http://www.w3.org/2000/svg" xmlns:xlink="http://www.w3.org/1999/xlink" x="0px" y="0px"
	 viewBox="0 0 858.649 858.649" style="enable-background:new 0 0 858.649 858.649;" xml:space="preserve">
<g>
	<g id="Notebook-personnel">
		
			<linearGradient id="SVGID_1_" gradientUnits="userSpaceOnUse" x1="429.3246" y1="850.5338" x2="429.3246" y2="-65.3587" gradientTransform="matrix(1 0 0 -1 0 843.3784)">
			<stop  offset="0" style="stop-color:#FFF33B"/>
			<stop  offset="0.014" style="stop-color:#FEE72E"/>
			<stop  offset="0.042" style="stop-color:#FED51B"/>
			<stop  offset="0.07" style="stop-color:#FDCA10"/>
			<stop  offset="0.1" style="stop-color:#FDC70C"/>
			<stop  offset="0.4" style="stop-color:#F3903F"/>
			<stop  offset="0.8" style="stop-color:#ED683C"/>
			<stop  offset="1" style="stop-color:#E93E3A"/>
		</linearGradient>
		<path style="fill:url(#SVGID_1_);" d="M786.966,157.419c0.048-3.779-1.415-7.422-4.064-10.118L639.794,4.193
			c-2.696-2.649-6.338-4.112-10.118-4.064V0h-515.19c-7.904,0-14.311,6.407-14.311,14.311v57.243H71.554v28.622h28.622v57.243
			H71.554v28.622h28.622v57.243H71.554v28.622h28.622v57.243H71.554v28.622h28.622v57.243H71.554v28.622h28.622v57.243H71.554V529.5
			h28.622v57.243H71.554v28.622h28.622v57.243H71.554v28.622h28.622v57.243H71.554v28.622h28.622v57.243
			c0,7.904,6.407,14.311,14.311,14.311h658.298c7.904,0,14.311-6.407,14.311-14.311V157.419H786.966z M643.987,48.857l94.251,94.251
			h-94.251V48.857z M128.797,830.028v-42.932h28.622v-28.622h-28.622V701.23h28.622v-28.622h-28.622v-57.243h28.622v-28.622h-28.622
			V529.5h28.622v-28.622h-28.622v-57.243h28.622v-28.622h-28.622v-57.243h28.622v-28.622h-28.622v-57.243h28.622v-28.622h-28.622
			v-57.243h28.622v-28.622h-28.622v-57.243h28.622V71.554h-28.622V28.622h486.568v128.797c0,7.904,6.407,14.311,14.311,14.311
			h128.797v658.298H128.797z"/>
		
			<linearGradient id="SVGID_2_" gradientUnits="userSpaceOnUse" x1="329.1489" y1="850.5338" x2="329.1489" y2="-65.3587" gradientTransform="matrix(1 0 0 -1 0 843.3784)">
			<stop  offset="0" style="stop-color:#FFF33B"/>
			<stop  offset="0.014" style="stop-color:#FEE72E"/>
			<stop  offset="0.042" style="stop-color:#FED51B"/>
			<stop  offset="0.07" style="stop-color:#FDCA10"/>
			<stop  offset="0.1" style="stop-color:#FDC70C"/>
			<stop  offset="0.4" style="stop-color:#F3903F"/>
			<stop  offset="0.8" style="stop-color:#ED683C"/>
			<stop  offset="1" style="stop-color:#E93E3A"/>
		</linearGradient>
		<path style="fill:url(#SVGID_2_);" d="M399.544,344.419c9.955-12.469,15.407-27.936,15.47-43.891
			c-0.047-39.499-32.055-71.507-71.554-71.554h-28.622c-39.499,0.047-71.507,32.055-71.554,71.554
			c0.063,15.956,5.515,31.422,15.47,43.891c-49.751,6.633-86.934,49.026-87.024,99.217v171.73c0,7.904,6.407,14.311,14.311,14.311
			h286.216c7.904,0,14.311-6.407,14.311-14.311v-171.73C486.478,393.445,449.294,351.051,399.544,344.419z M314.838,257.595h28.622
			c23.711,0,42.932,19.222,42.932,42.932c0,23.711-19.222,42.932-42.932,42.932h-28.622c-23.711,0-42.932-19.221-42.932-42.932
			C271.906,276.816,291.127,257.595,314.838,257.595z M457.946,601.054H200.351V443.635c0.047-39.499,32.055-71.507,71.554-71.554
			h114.487c39.499,0.047,71.507,32.055,71.554,71.554V601.054z"/>
		
			<linearGradient id="SVGID_3_" gradientUnits="userSpaceOnUse" x1="629.6761" y1="850.5338" x2="629.6761" y2="-65.3587" gradientTransform="matrix(1 0 0 -1 0 843.3784)">
			<stop  offset="0" style="stop-color:#FFF33B"/>
			<stop  offset="0.014" style="stop-color:#FEE72E"/>
			<stop  offset="0.042" style="stop-color:#FED51B"/>
			<stop  offset="0.07" style="stop-color:#FDCA10"/>
			<stop  offset="0.1" style="stop-color:#FDC70C"/>
			<stop  offset="0.4" style="stop-color:#F3903F"/>
			<stop  offset="0.8" style="stop-color:#ED683C"/>
			<stop  offset="1" style="stop-color:#E93E3A"/>
		</linearGradient>
		<path style="fill:url(#SVGID_3_);" d="M729.852,457.946h-42.932v-42.932c0-7.904-6.407-14.311-14.311-14.311h-85.865
			c-7.904,0-14.311,6.407-14.311,14.311v42.932H529.5c-7.904,0-14.311,6.407-14.311,14.311v143.108
			c0,7.904,6.407,14.311,14.311,14.311h200.352c7.904,0,14.311-6.407,14.311-14.311V472.257
			C744.163,464.353,737.755,457.946,729.852,457.946z M601.054,429.325h57.243v28.622h-57.243V429.325z M543.811,486.568h171.73
			v28.622h-28.622v-14.311h-28.622v14.311h-57.243v-14.311h-28.622v14.311h-28.622V486.568z M715.541,601.054h-171.73v-57.243
			h28.622v14.311h28.622v-14.311h57.243v14.311h28.622v-14.311h28.622V601.054z"/>
	</g>
</g>
<g>
</g>
<g>
</g>
<g>
</g>
<g>
</g>
<g>
</g>
<g>
</g>
<g>
</g>
<g>
</g>
<g>
</g>
<g>
</g>
<g>
</g>
<g>
</g>
<g>
</g>
<g>
</g>
<g>
</g>
</svg>
