<?xml version="1.0" encoding="iso-8859-1"?>
<!-- Generator: Adobe Illustrator 21.0.0, SVG Export Plug-In . SVG Version: 6.00 Build 0)  -->
<svg version="1.1" id="Capa_1" xmlns="http://www.w3.org/2000/svg" xmlns:xlink="http://www.w3.org/1999/xlink" x="0px" y="0px"
	 viewBox="0 0 858.649 858.649" style="enable-background:new 0 0 858.649 858.649;" xml:space="preserve">
<g>
	<g id="Notebook-School_Building">
		
			<linearGradient id="SVGID_1_" gradientUnits="userSpaceOnUse" x1="429.3246" y1="850.5338" x2="429.3246" y2="-65.3587" gradientTransform="matrix(1 0 0 -1 0 843.3784)">
			<stop  offset="0" style="stop-color:#FFF33B"/>
			<stop  offset="0.014" style="stop-color:#FEE72E"/>
			<stop  offset="0.042" style="stop-color:#FED51B"/>
			<stop  offset="0.07" style="stop-color:#FDCA10"/>
			<stop  offset="0.1" style="stop-color:#FDC70C"/>
			<stop  offset="0.4" style="stop-color:#F3903F"/>
			<stop  offset="0.8" style="stop-color:#ED683C"/>
			<stop  offset="1" style="stop-color:#E93E3A"/>
		</linearGradient>
		<path style="fill:url(#SVGID_1_);" d="M786.966,157.419c0.048-3.779-1.415-7.422-4.064-10.118L639.794,4.193
			c-2.696-2.649-6.338-4.112-10.118-4.064V0h-515.19c-7.904,0-14.311,6.407-14.311,14.311v57.243H71.554v28.622h28.622v57.243
			H71.554v28.622h28.622v57.243H71.554v28.622h28.622v57.243H71.554v28.622h28.622v57.243H71.554v28.622h28.622v57.243H71.554V529.5
			h28.622v57.243H71.554v28.622h28.622v57.243H71.554v28.622h28.622v57.243H71.554v28.622h28.622v57.243
			c0,7.904,6.407,14.311,14.311,14.311h658.298c7.904,0,14.311-6.407,14.311-14.311V157.419H786.966z M643.987,48.857l94.251,94.251
			h-94.251V48.857z M128.797,830.028v-42.932h28.622v-28.622h-28.622V701.23h28.622v-28.622h-28.622v-57.243h28.622v-28.622h-28.622
			V529.5h28.622v-28.622h-28.622v-57.243h28.622v-28.622h-28.622v-57.243h28.622v-28.622h-28.622v-57.243h28.622v-28.622h-28.622
			v-57.243h28.622v-28.622h-28.622v-57.243h28.622V71.554h-28.622V28.622h486.568v128.797c0,7.904,6.407,14.311,14.311,14.311
			h128.797v658.298H128.797z"/>
		
			<linearGradient id="SVGID_2_" gradientUnits="userSpaceOnUse" x1="300.5272" y1="850.5338" x2="300.5272" y2="-65.3587" gradientTransform="matrix(1 0 0 -1 0 843.3784)">
			<stop  offset="0" style="stop-color:#FFF33B"/>
			<stop  offset="0.014" style="stop-color:#FEE72E"/>
			<stop  offset="0.042" style="stop-color:#FED51B"/>
			<stop  offset="0.07" style="stop-color:#FDCA10"/>
			<stop  offset="0.1" style="stop-color:#FDC70C"/>
			<stop  offset="0.4" style="stop-color:#F3903F"/>
			<stop  offset="0.8" style="stop-color:#ED683C"/>
			<stop  offset="1" style="stop-color:#E93E3A"/>
		</linearGradient>
		<rect x="271.906" y="558.122" style="fill:url(#SVGID_2_);" width="57.243" height="28.622"/>
		
			<linearGradient id="SVGID_3_" gradientUnits="userSpaceOnUse" x1="300.5272" y1="850.5338" x2="300.5272" y2="-65.3587" gradientTransform="matrix(1 0 0 -1 0 843.3784)">
			<stop  offset="0" style="stop-color:#FFF33B"/>
			<stop  offset="0.014" style="stop-color:#FEE72E"/>
			<stop  offset="0.042" style="stop-color:#FED51B"/>
			<stop  offset="0.07" style="stop-color:#FDCA10"/>
			<stop  offset="0.1" style="stop-color:#FDC70C"/>
			<stop  offset="0.4" style="stop-color:#F3903F"/>
			<stop  offset="0.8" style="stop-color:#ED683C"/>
			<stop  offset="1" style="stop-color:#E93E3A"/>
		</linearGradient>
		<rect x="271.906" y="615.365" style="fill:url(#SVGID_3_);" width="57.243" height="28.622"/>
		
			<linearGradient id="SVGID_4_" gradientUnits="userSpaceOnUse" x1="300.5272" y1="850.5338" x2="300.5272" y2="-65.3587" gradientTransform="matrix(1 0 0 -1 0 843.3784)">
			<stop  offset="0" style="stop-color:#FFF33B"/>
			<stop  offset="0.014" style="stop-color:#FEE72E"/>
			<stop  offset="0.042" style="stop-color:#FED51B"/>
			<stop  offset="0.07" style="stop-color:#FDCA10"/>
			<stop  offset="0.1" style="stop-color:#FDC70C"/>
			<stop  offset="0.4" style="stop-color:#F3903F"/>
			<stop  offset="0.8" style="stop-color:#ED683C"/>
			<stop  offset="1" style="stop-color:#E93E3A"/>
		</linearGradient>
		<rect x="271.906" y="672.609" style="fill:url(#SVGID_4_);" width="57.243" height="28.622"/>
		
			<linearGradient id="SVGID_5_" gradientUnits="userSpaceOnUse" x1="457.9463" y1="850.5338" x2="457.9463" y2="-65.3587" gradientTransform="matrix(1 0 0 -1 0 843.3784)">
			<stop  offset="0" style="stop-color:#FFF33B"/>
			<stop  offset="0.014" style="stop-color:#FEE72E"/>
			<stop  offset="0.042" style="stop-color:#FED51B"/>
			<stop  offset="0.07" style="stop-color:#FDCA10"/>
			<stop  offset="0.1" style="stop-color:#FDC70C"/>
			<stop  offset="0.4" style="stop-color:#F3903F"/>
			<stop  offset="0.8" style="stop-color:#ED683C"/>
			<stop  offset="1" style="stop-color:#E93E3A"/>
		</linearGradient>
		<path style="fill:url(#SVGID_5_);" d="M686.919,500.879H558.122V400.703c-0.001-3.795-1.509-7.435-4.193-10.118l-81.672-81.672
			V114.487c0-7.904-6.407-14.311-14.311-14.311H343.46c-7.904,0.002-14.309,6.41-14.308,14.314c0.001,3.794,1.508,7.432,4.19,10.115
			l110.294,110.293v74.016l-81.672,81.672c-2.684,2.683-4.192,6.323-4.193,10.118v100.176H228.973
			c-7.904,0-14.311,6.407-14.311,14.311v228.973c0,7.904,6.407,14.311,14.311,14.311h457.946c7.904,0,14.311-6.407,14.311-14.311
			V515.19C701.23,507.286,694.823,500.879,686.919,500.879z M443.635,128.797v65.629l-65.629-65.629H443.635z M386.392,406.628
			l71.554-71.554l71.554,71.554v37.008H386.392V406.628z M243.284,529.5h114.487v200.352H243.284V529.5z M386.392,472.257H529.5
			v257.595h-28.622v-71.554c0-23.711-19.222-42.932-42.932-42.932c-23.711,0-42.932,19.221-42.932,42.932v71.554h-28.622V472.257z
			 M443.635,729.852v-71.554c0-7.904,6.407-14.311,14.311-14.311c7.904,0,14.311,6.407,14.311,14.311v71.554H443.635z
			 M672.609,729.852H558.122V529.5h114.487V729.852z"/>
		
			<linearGradient id="SVGID_6_" gradientUnits="userSpaceOnUse" x1="615.3653" y1="850.5338" x2="615.3653" y2="-65.3587" gradientTransform="matrix(1 0 0 -1 0 843.3784)">
			<stop  offset="0" style="stop-color:#FFF33B"/>
			<stop  offset="0.014" style="stop-color:#FEE72E"/>
			<stop  offset="0.042" style="stop-color:#FED51B"/>
			<stop  offset="0.07" style="stop-color:#FDCA10"/>
			<stop  offset="0.1" style="stop-color:#FDC70C"/>
			<stop  offset="0.4" style="stop-color:#F3903F"/>
			<stop  offset="0.8" style="stop-color:#ED683C"/>
			<stop  offset="1" style="stop-color:#E93E3A"/>
		</linearGradient>
		<rect x="586.744" y="558.122" style="fill:url(#SVGID_6_);" width="57.243" height="28.622"/>
		
			<linearGradient id="SVGID_7_" gradientUnits="userSpaceOnUse" x1="615.3653" y1="850.5338" x2="615.3653" y2="-65.3587" gradientTransform="matrix(1 0 0 -1 0 843.3784)">
			<stop  offset="0" style="stop-color:#FFF33B"/>
			<stop  offset="0.014" style="stop-color:#FEE72E"/>
			<stop  offset="0.042" style="stop-color:#FED51B"/>
			<stop  offset="0.07" style="stop-color:#FDCA10"/>
			<stop  offset="0.1" style="stop-color:#FDC70C"/>
			<stop  offset="0.4" style="stop-color:#F3903F"/>
			<stop  offset="0.8" style="stop-color:#ED683C"/>
			<stop  offset="1" style="stop-color:#E93E3A"/>
		</linearGradient>
		<rect x="586.744" y="615.365" style="fill:url(#SVGID_7_);" width="57.243" height="28.622"/>
		
			<linearGradient id="SVGID_8_" gradientUnits="userSpaceOnUse" x1="615.3653" y1="850.5338" x2="615.3653" y2="-65.3587" gradientTransform="matrix(1 0 0 -1 0 843.3784)">
			<stop  offset="0" style="stop-color:#FFF33B"/>
			<stop  offset="0.014" style="stop-color:#FEE72E"/>
			<stop  offset="0.042" style="stop-color:#FED51B"/>
			<stop  offset="0.07" style="stop-color:#FDCA10"/>
			<stop  offset="0.1" style="stop-color:#FDC70C"/>
			<stop  offset="0.4" style="stop-color:#F3903F"/>
			<stop  offset="0.8" style="stop-color:#ED683C"/>
			<stop  offset="1" style="stop-color:#E93E3A"/>
		</linearGradient>
		<rect x="586.744" y="672.609" style="fill:url(#SVGID_8_);" width="57.243" height="28.622"/>
		
			<linearGradient id="SVGID_9_" gradientUnits="userSpaceOnUse" x1="429.3246" y1="850.5338" x2="429.3246" y2="-65.3587" gradientTransform="matrix(1 0 0 -1 0 843.3784)">
			<stop  offset="0" style="stop-color:#FFF33B"/>
			<stop  offset="0.014" style="stop-color:#FEE72E"/>
			<stop  offset="0.042" style="stop-color:#FED51B"/>
			<stop  offset="0.07" style="stop-color:#FDCA10"/>
			<stop  offset="0.1" style="stop-color:#FDC70C"/>
			<stop  offset="0.4" style="stop-color:#F3903F"/>
			<stop  offset="0.8" style="stop-color:#ED683C"/>
			<stop  offset="1" style="stop-color:#E93E3A"/>
		</linearGradient>
		<rect x="415.014" y="558.122" style="fill:url(#SVGID_9_);" width="28.622" height="28.622"/>
		
			<linearGradient id="SVGID_10_" gradientUnits="userSpaceOnUse" x1="429.3246" y1="850.5338" x2="429.3246" y2="-65.3587" gradientTransform="matrix(1 0 0 -1 0 843.3784)">
			<stop  offset="0" style="stop-color:#FFF33B"/>
			<stop  offset="0.014" style="stop-color:#FEE72E"/>
			<stop  offset="0.042" style="stop-color:#FED51B"/>
			<stop  offset="0.07" style="stop-color:#FDCA10"/>
			<stop  offset="0.1" style="stop-color:#FDC70C"/>
			<stop  offset="0.4" style="stop-color:#F3903F"/>
			<stop  offset="0.8" style="stop-color:#ED683C"/>
			<stop  offset="1" style="stop-color:#E93E3A"/>
		</linearGradient>
		<rect x="415.014" y="500.879" style="fill:url(#SVGID_10_);" width="28.622" height="28.622"/>
		
			<linearGradient id="SVGID_11_" gradientUnits="userSpaceOnUse" x1="486.5679" y1="850.5338" x2="486.5679" y2="-65.3587" gradientTransform="matrix(1 0 0 -1 0 843.3784)">
			<stop  offset="0" style="stop-color:#FFF33B"/>
			<stop  offset="0.014" style="stop-color:#FEE72E"/>
			<stop  offset="0.042" style="stop-color:#FED51B"/>
			<stop  offset="0.07" style="stop-color:#FDCA10"/>
			<stop  offset="0.1" style="stop-color:#FDC70C"/>
			<stop  offset="0.4" style="stop-color:#F3903F"/>
			<stop  offset="0.8" style="stop-color:#ED683C"/>
			<stop  offset="1" style="stop-color:#E93E3A"/>
		</linearGradient>
		<rect x="472.257" y="500.879" style="fill:url(#SVGID_11_);" width="28.622" height="28.622"/>
		
			<linearGradient id="SVGID_12_" gradientUnits="userSpaceOnUse" x1="486.5679" y1="850.5338" x2="486.5679" y2="-65.3587" gradientTransform="matrix(1 0 0 -1 0 843.3784)">
			<stop  offset="0" style="stop-color:#FFF33B"/>
			<stop  offset="0.014" style="stop-color:#FEE72E"/>
			<stop  offset="0.042" style="stop-color:#FED51B"/>
			<stop  offset="0.07" style="stop-color:#FDCA10"/>
			<stop  offset="0.1" style="stop-color:#FDC70C"/>
			<stop  offset="0.4" style="stop-color:#F3903F"/>
			<stop  offset="0.8" style="stop-color:#ED683C"/>
			<stop  offset="1" style="stop-color:#E93E3A"/>
		</linearGradient>
		<rect x="472.257" y="558.122" style="fill:url(#SVGID_12_);" width="28.622" height="28.622"/>
		
			<linearGradient id="SVGID_13_" gradientUnits="userSpaceOnUse" x1="457.9463" y1="850.5338" x2="457.9463" y2="-65.3587" gradientTransform="matrix(1 0 0 -1 0 843.3784)">
			<stop  offset="0" style="stop-color:#FFF33B"/>
			<stop  offset="0.014" style="stop-color:#FEE72E"/>
			<stop  offset="0.042" style="stop-color:#FED51B"/>
			<stop  offset="0.07" style="stop-color:#FDCA10"/>
			<stop  offset="0.1" style="stop-color:#FDC70C"/>
			<stop  offset="0.4" style="stop-color:#F3903F"/>
			<stop  offset="0.8" style="stop-color:#ED683C"/>
			<stop  offset="1" style="stop-color:#E93E3A"/>
		</linearGradient>
		<rect x="429.325" y="386.392" style="fill:url(#SVGID_13_);" width="57.243" height="28.622"/>
	</g>
</g>
<g>
</g>
<g>
</g>
<g>
</g>
<g>
</g>
<g>
</g>
<g>
</g>
<g>
</g>
<g>
</g>
<g>
</g>
<g>
</g>
<g>
</g>
<g>
</g>
<g>
</g>
<g>
</g>
<g>
</g>
</svg>
