<?xml version="1.0" encoding="iso-8859-1"?>
<!-- Generator: Adobe Illustrator 21.0.0, SVG Export Plug-In . SVG Version: 6.00 Build 0)  -->
<svg version="1.1" id="Capa_1" xmlns="http://www.w3.org/2000/svg" xmlns:xlink="http://www.w3.org/1999/xlink" x="0px" y="0px"
	 viewBox="0 0 858.649 858.649" style="enable-background:new 0 0 858.649 858.649;" xml:space="preserve">
<g>
	<g id="Notebook-Science_experiment_bottle">
		
			<linearGradient id="SVGID_1_" gradientUnits="userSpaceOnUse" x1="429.3246" y1="827.9656" x2="429.3246" y2="-27.5209" gradientTransform="matrix(1 0 0 -1 0 843.3784)">
			<stop  offset="0" style="stop-color:#FFF33B"/>
			<stop  offset="0.014" style="stop-color:#FEE72E"/>
			<stop  offset="0.042" style="stop-color:#FED51B"/>
			<stop  offset="0.07" style="stop-color:#FDCA10"/>
			<stop  offset="0.1" style="stop-color:#FDC70C"/>
			<stop  offset="0.4" style="stop-color:#F3903F"/>
			<stop  offset="0.8" style="stop-color:#ED683C"/>
			<stop  offset="1" style="stop-color:#E93E3A"/>
		</linearGradient>
		<path style="fill:url(#SVGID_1_);" d="M757.185,0H158.707c-24.412,0.024-44.197,19.808-44.22,44.22v55.955H71.554
			c-7.904,0-14.311,6.407-14.311,14.311v57.243c0,7.904,6.407,14.311,14.311,14.311h42.932v57.243H71.554
			c-7.904,0-14.311,6.407-14.311,14.311v57.243c0,7.904,6.407,14.311,14.311,14.311h42.932v57.243H71.554
			c-7.904,0-14.311,6.407-14.311,14.311v57.243c0,7.904,6.407,14.311,14.311,14.311h42.932V529.5H71.554
			c-7.904,0-14.311,6.407-14.311,14.311v57.243c0,7.904,6.407,14.311,14.311,14.311h42.932v57.243H71.554
			c-7.904,0-14.311,6.407-14.311,14.311v57.243c0,7.904,6.407,14.311,14.311,14.311h42.932v55.955
			c0.024,24.412,19.808,44.197,44.22,44.22h598.479c24.412-0.024,44.197-19.808,44.22-44.22V44.22
			C801.382,19.808,781.598,0.024,757.185,0z M85.865,128.797h85.865v28.622H85.865V128.797z M85.865,271.906h85.865v28.622H85.865
			V271.906z M85.865,415.014h85.865v28.622H85.865V415.014z M85.865,558.122h85.865v28.622H85.865V558.122z M85.865,701.23h85.865
			v28.622H85.865V701.23z M772.784,814.429c-0.008,8.612-6.987,15.591-15.599,15.599H158.707
			c-8.612-0.008-15.591-6.987-15.599-15.599v-55.955h42.932c7.904,0,14.311-6.407,14.311-14.311v-57.243
			c0-7.904-6.407-14.311-14.311-14.311h-42.932v-57.243h42.932c7.904,0,14.311-6.407,14.311-14.311v-57.243
			c0-7.904-6.407-14.311-14.311-14.311h-42.932v-57.243h42.932c7.904,0,14.311-6.407,14.311-14.311v-57.243
			c0-7.904-6.407-14.311-14.311-14.311h-42.932v-57.243h42.932c7.904,0,14.311-6.407,14.311-14.311v-57.243
			c0-7.904-6.407-14.311-14.311-14.311h-42.932v-57.243h42.932c7.904,0,14.311-6.407,14.311-14.311v-57.243
			c0-7.904-6.407-14.311-14.311-14.311h-42.932V44.22c0.008-8.612,6.987-15.591,15.599-15.599h598.479
			c8.612,0.008,15.591,6.987,15.599,15.599V814.429z"/>
		
			<linearGradient id="SVGID_2_" gradientUnits="userSpaceOnUse" x1="486.5632" y1="833.7901" x2="486.5632" y2="-28.9664" gradientTransform="matrix(1 0 0 -1 0 843.3784)">
			<stop  offset="0" style="stop-color:#FFF33B"/>
			<stop  offset="0.014" style="stop-color:#FEE72E"/>
			<stop  offset="0.042" style="stop-color:#FED51B"/>
			<stop  offset="0.07" style="stop-color:#FDCA10"/>
			<stop  offset="0.1" style="stop-color:#FDC70C"/>
			<stop  offset="0.4" style="stop-color:#F3903F"/>
			<stop  offset="0.8" style="stop-color:#ED683C"/>
			<stop  offset="1" style="stop-color:#E93E3A"/>
		</linearGradient>
		<path style="fill:url(#SVGID_2_);" d="M558.122,411.636V186.041c-0.075-18.129-11.529-34.256-28.622-40.299v-45.566
			c0-7.904-6.407-14.311-14.311-14.311h-57.243c-7.904,0-14.311,6.407-14.311,14.311v45.566
			c-17.092,6.043-28.547,22.171-28.622,40.299v225.596l-149.505,299.01c-10.607,21.206-2.014,46.996,19.192,57.602
			c5.962,2.982,12.537,4.535,19.204,4.535h365.327c23.711-0.001,42.932-19.223,42.931-42.934c0-6.666-1.553-13.241-4.535-19.204
			L558.122,411.636z M472.257,171.73h28.622v14.311c0,7.904-6.407,14.311-14.311,14.311c-7.904,0-14.311-6.407-14.311-14.311V171.73
			z M500.879,114.487v28.622h-28.622v-28.622H500.879z M442.204,421.411c0.966-1.993,1.455-4.183,1.431-6.397V186.041
			c0,23.711,19.222,42.932,42.932,42.932c23.711,0,42.932-19.222,42.932-42.932v228.973c-0.024,2.214,0.466,4.404,1.431,6.397
			l111.367,222.576H330.838L442.204,421.411z M681.395,737.379c-2.574,4.248-7.197,6.826-12.164,6.783H303.905
			c-7.904-0.004-14.307-6.415-14.303-14.318c0.001-2.218,0.518-4.405,1.509-6.389l25.416-50.846h340.082l25.416,50.846
			C684.297,727.88,684.057,733.177,681.395,737.379z"/>
	</g>
</g>
<g>
</g>
<g>
</g>
<g>
</g>
<g>
</g>
<g>
</g>
<g>
</g>
<g>
</g>
<g>
</g>
<g>
</g>
<g>
</g>
<g>
</g>
<g>
</g>
<g>
</g>
<g>
</g>
<g>
</g>
</svg>
