<?xml version="1.0" encoding="iso-8859-1"?>
<!-- Generator: Adobe Illustrator 21.0.0, SVG Export Plug-In . SVG Version: 6.00 Build 0)  -->
<svg version="1.1" id="Capa_1" xmlns="http://www.w3.org/2000/svg" xmlns:xlink="http://www.w3.org/1999/xlink" x="0px" y="0px"
	 viewBox="0 0 858.649 858.649" style="enable-background:new 0 0 858.649 858.649;" xml:space="preserve">
<g>
	<g id="Notebook-Symbol">
		
			<linearGradient id="SVGID_1_" gradientUnits="userSpaceOnUse" x1="429.3246" y1="773.4414" x2="429.3246" y2="-82.0451" gradientTransform="matrix(1 0 0 -1 0 843.3784)">
			<stop  offset="0" style="stop-color:#FFF33B"/>
			<stop  offset="0.014" style="stop-color:#FEE72E"/>
			<stop  offset="0.042" style="stop-color:#FED51B"/>
			<stop  offset="0.07" style="stop-color:#FDCA10"/>
			<stop  offset="0.1" style="stop-color:#FDC70C"/>
			<stop  offset="0.4" style="stop-color:#F3903F"/>
			<stop  offset="0.8" style="stop-color:#ED683C"/>
			<stop  offset="1" style="stop-color:#E93E3A"/>
		</linearGradient>
		<path style="fill:url(#SVGID_1_);" d="M757.185,0H158.707c-24.412,0.024-44.197,19.808-44.22,44.22v55.955H71.554
			c-7.904,0-14.311,6.407-14.311,14.311v57.243c0,7.904,6.407,14.311,14.311,14.311h42.932v57.243H71.554
			c-7.904,0-14.311,6.407-14.311,14.311v57.243c0,7.904,6.407,14.311,14.311,14.311h42.932v57.243H71.554
			c-7.904,0-14.311,6.407-14.311,14.311v57.243c0,7.904,6.407,14.311,14.311,14.311h42.932V529.5H71.554
			c-7.904,0-14.311,6.407-14.311,14.311v57.243c0,7.904,6.407,14.311,14.311,14.311h42.932v57.243H71.554
			c-7.904,0-14.311,6.407-14.311,14.311v57.243c0,7.904,6.407,14.311,14.311,14.311h42.932v55.955
			c0.024,24.412,19.808,44.197,44.22,44.22h598.479c24.412-0.024,44.197-19.808,44.22-44.22V44.22
			C801.382,19.808,781.598,0.024,757.185,0z M85.865,128.797h85.865v28.622H85.865V128.797z M85.865,271.906h85.865v28.622H85.865
			V271.906z M85.865,415.014h85.865v28.622H85.865V415.014z M85.865,558.122h85.865v28.622H85.865V558.122z M85.865,701.23h85.865
			v28.622H85.865V701.23z M772.784,814.429c-0.008,8.612-6.987,15.591-15.599,15.599H158.707
			c-8.612-0.008-15.591-6.987-15.599-15.599v-55.955h42.932c7.904,0,14.311-6.407,14.311-14.311v-57.243
			c0-7.904-6.407-14.311-14.311-14.311h-42.932v-57.243h42.932c7.904,0,14.311-6.407,14.311-14.311v-57.243
			c0-7.904-6.407-14.311-14.311-14.311h-42.932v-57.243h42.932c7.904,0,14.311-6.407,14.311-14.311v-57.243
			c0-7.904-6.407-14.311-14.311-14.311h-42.932v-57.243h42.932c7.904,0,14.311-6.407,14.311-14.311v-57.243
			c0-7.904-6.407-14.311-14.311-14.311h-42.932v-57.243h42.932c7.904,0,14.311-6.407,14.311-14.311v-57.243
			c0-7.904-6.407-14.311-14.311-14.311h-42.932V44.22c0.008-8.612,6.987-15.591,15.599-15.599h598.479
			c8.612,0.008,15.591,6.987,15.599,15.599V814.429z"/>
		
			<linearGradient id="SVGID_2_" gradientUnits="userSpaceOnUse" x1="343.4597" y1="772.8403" x2="343.4597" y2="-79.3547" gradientTransform="matrix(1 0 0 -1 0 843.3784)">
			<stop  offset="0" style="stop-color:#FFF33B"/>
			<stop  offset="0.014" style="stop-color:#FEE72E"/>
			<stop  offset="0.042" style="stop-color:#FED51B"/>
			<stop  offset="0.07" style="stop-color:#FDCA10"/>
			<stop  offset="0.1" style="stop-color:#FDC70C"/>
			<stop  offset="0.4" style="stop-color:#F3903F"/>
			<stop  offset="0.8" style="stop-color:#ED683C"/>
			<stop  offset="1" style="stop-color:#E93E3A"/>
		</linearGradient>
		<path style="fill:url(#SVGID_2_);" d="M443.635,143.108H243.284c-7.904,0-14.311,6.407-14.311,14.311v200.351
			c0,7.904,6.407,14.311,14.311,14.311h200.351c7.904,0,14.311-6.407,14.311-14.311V157.419
			C457.946,149.515,451.539,143.108,443.635,143.108z M429.325,343.46h-171.73V171.73h171.73V343.46z"/>
		
			<linearGradient id="SVGID_3_" gradientUnits="userSpaceOnUse" x1="629.6761" y1="779.0083" x2="629.6761" y2="-73.1867" gradientTransform="matrix(1 0 0 -1 0 843.3784)">
			<stop  offset="0" style="stop-color:#FFF33B"/>
			<stop  offset="0.014" style="stop-color:#FEE72E"/>
			<stop  offset="0.042" style="stop-color:#FED51B"/>
			<stop  offset="0.07" style="stop-color:#FDCA10"/>
			<stop  offset="0.1" style="stop-color:#FDC70C"/>
			<stop  offset="0.4" style="stop-color:#F3903F"/>
			<stop  offset="0.8" style="stop-color:#ED683C"/>
			<stop  offset="1" style="stop-color:#E93E3A"/>
		</linearGradient>
		<path style="fill:url(#SVGID_3_);" d="M729.852,143.108H529.5c-7.904,0-14.311,6.407-14.311,14.311v200.351
			c0,7.904,6.407,14.311,14.311,14.311h200.352c7.904,0,14.311-6.407,14.311-14.311V157.419
			C744.163,149.515,737.755,143.108,729.852,143.108z M715.541,343.46h-171.73V171.73h171.73V343.46z"/>
		
			<linearGradient id="SVGID_4_" gradientUnits="userSpaceOnUse" x1="343.4597" y1="766.3432" x2="343.4597" y2="-85.8518" gradientTransform="matrix(1 0 0 -1 0 843.3784)">
			<stop  offset="0" style="stop-color:#FFF33B"/>
			<stop  offset="0.014" style="stop-color:#FEE72E"/>
			<stop  offset="0.042" style="stop-color:#FED51B"/>
			<stop  offset="0.07" style="stop-color:#FDCA10"/>
			<stop  offset="0.1" style="stop-color:#FDC70C"/>
			<stop  offset="0.4" style="stop-color:#F3903F"/>
			<stop  offset="0.8" style="stop-color:#ED683C"/>
			<stop  offset="1" style="stop-color:#E93E3A"/>
		</linearGradient>
		<path style="fill:url(#SVGID_4_);" d="M443.635,486.568H243.284c-7.904,0-14.311,6.407-14.311,14.311V701.23
			c0,7.904,6.407,14.311,14.311,14.311h200.351c7.904,0,14.311-6.407,14.311-14.311V500.879
			C457.946,492.975,451.539,486.568,443.635,486.568z M429.325,686.919h-171.73V515.19h171.73V686.919z"/>
		
			<linearGradient id="SVGID_5_" gradientUnits="userSpaceOnUse" x1="629.6761" y1="772.5112" x2="629.6761" y2="-79.6839" gradientTransform="matrix(1 0 0 -1 0 843.3784)">
			<stop  offset="0" style="stop-color:#FFF33B"/>
			<stop  offset="0.014" style="stop-color:#FEE72E"/>
			<stop  offset="0.042" style="stop-color:#FED51B"/>
			<stop  offset="0.07" style="stop-color:#FDCA10"/>
			<stop  offset="0.1" style="stop-color:#FDC70C"/>
			<stop  offset="0.4" style="stop-color:#F3903F"/>
			<stop  offset="0.8" style="stop-color:#ED683C"/>
			<stop  offset="1" style="stop-color:#E93E3A"/>
		</linearGradient>
		<path style="fill:url(#SVGID_5_);" d="M729.852,486.568H529.5c-7.904,0-14.311,6.407-14.311,14.311V701.23
			c0,7.904,6.407,14.311,14.311,14.311h200.352c7.904,0,14.311-6.407,14.311-14.311V500.879
			C744.163,492.975,737.755,486.568,729.852,486.568z M715.541,686.919h-171.73V515.19h171.73V686.919z"/>
		
			<linearGradient id="SVGID_6_" gradientUnits="userSpaceOnUse" x1="343.4597" y1="775.6023" x2="343.4597" y2="-89.2006" gradientTransform="matrix(1 0 0 -1 0 843.3784)">
			<stop  offset="0" style="stop-color:#FFF33B"/>
			<stop  offset="0.014" style="stop-color:#FEE72E"/>
			<stop  offset="0.042" style="stop-color:#FED51B"/>
			<stop  offset="0.07" style="stop-color:#FDCA10"/>
			<stop  offset="0.1" style="stop-color:#FDC70C"/>
			<stop  offset="0.4" style="stop-color:#F3903F"/>
			<stop  offset="0.8" style="stop-color:#ED683C"/>
			<stop  offset="1" style="stop-color:#E93E3A"/>
		</linearGradient>
		<polygon style="fill:url(#SVGID_6_);" points="329.149,329.149 357.771,329.149 357.771,271.906 415.014,271.906 415.014,243.284 
			357.771,243.284 357.771,186.041 329.149,186.041 329.149,243.284 271.906,243.284 271.906,271.906 329.149,271.906 		"/>
		
			<linearGradient id="SVGID_7_" gradientUnits="userSpaceOnUse" x1="629.6761" y1="763.2234" x2="629.6761" y2="-19.378" gradientTransform="matrix(1 0 0 -1 0 843.3784)">
			<stop  offset="0" style="stop-color:#FFF33B"/>
			<stop  offset="0.014" style="stop-color:#FEE72E"/>
			<stop  offset="0.042" style="stop-color:#FED51B"/>
			<stop  offset="0.07" style="stop-color:#FDCA10"/>
			<stop  offset="0.1" style="stop-color:#FDC70C"/>
			<stop  offset="0.4" style="stop-color:#F3903F"/>
			<stop  offset="0.8" style="stop-color:#ED683C"/>
			<stop  offset="1" style="stop-color:#E93E3A"/>
		</linearGradient>
		<rect x="558.122" y="243.284" style="fill:url(#SVGID_7_);" width="143.108" height="28.622"/>
		
			<linearGradient id="SVGID_8_" gradientUnits="userSpaceOnUse" x1="629.6761" y1="732.0545" x2="629.6761" y2="-50.547" gradientTransform="matrix(1 0 0 -1 0 843.3784)">
			<stop  offset="0" style="stop-color:#FFF33B"/>
			<stop  offset="0.014" style="stop-color:#FEE72E"/>
			<stop  offset="0.042" style="stop-color:#FED51B"/>
			<stop  offset="0.07" style="stop-color:#FDCA10"/>
			<stop  offset="0.1" style="stop-color:#FDC70C"/>
			<stop  offset="0.4" style="stop-color:#F3903F"/>
			<stop  offset="0.8" style="stop-color:#ED683C"/>
			<stop  offset="1" style="stop-color:#E93E3A"/>
		</linearGradient>
		<rect x="558.122" y="558.122" style="fill:url(#SVGID_8_);" width="143.108" height="28.622"/>
		
			<linearGradient id="SVGID_9_" gradientUnits="userSpaceOnUse" x1="629.6761" y1="726.3874" x2="629.6761" y2="-56.2141" gradientTransform="matrix(1 0 0 -1 0 843.3784)">
			<stop  offset="0" style="stop-color:#FFF33B"/>
			<stop  offset="0.014" style="stop-color:#FEE72E"/>
			<stop  offset="0.042" style="stop-color:#FED51B"/>
			<stop  offset="0.07" style="stop-color:#FDCA10"/>
			<stop  offset="0.1" style="stop-color:#FDC70C"/>
			<stop  offset="0.4" style="stop-color:#F3903F"/>
			<stop  offset="0.8" style="stop-color:#ED683C"/>
			<stop  offset="1" style="stop-color:#E93E3A"/>
		</linearGradient>
		<rect x="558.122" y="615.365" style="fill:url(#SVGID_9_);" width="143.108" height="28.622"/>
		
			<linearGradient id="SVGID_10_" gradientUnits="userSpaceOnUse" x1="343.4597" y1="768.1607" x2="343.4597" y2="-87.0253" gradientTransform="matrix(1 0 0 -1 0 843.3784)">
			<stop  offset="0" style="stop-color:#FFF33B"/>
			<stop  offset="0.014" style="stop-color:#FEE72E"/>
			<stop  offset="0.042" style="stop-color:#FED51B"/>
			<stop  offset="0.07" style="stop-color:#FDCA10"/>
			<stop  offset="0.1" style="stop-color:#FDC70C"/>
			<stop  offset="0.4" style="stop-color:#F3903F"/>
			<stop  offset="0.8" style="stop-color:#ED683C"/>
			<stop  offset="1" style="stop-color:#E93E3A"/>
		</linearGradient>
		<polygon style="fill:url(#SVGID_10_);" points="276.099,648.18 296.334,668.416 343.46,621.29 390.585,668.416 410.821,648.18 
			363.695,601.054 417.761,546.988 397.526,526.753 343.46,580.819 289.393,526.753 269.158,546.988 323.224,601.054 		"/>
	</g>
</g>
<g>
</g>
<g>
</g>
<g>
</g>
<g>
</g>
<g>
</g>
<g>
</g>
<g>
</g>
<g>
</g>
<g>
</g>
<g>
</g>
<g>
</g>
<g>
</g>
<g>
</g>
<g>
</g>
<g>
</g>
</svg>
