<?xml version="1.0" encoding="iso-8859-1"?>
<!-- Generator: Adobe Illustrator 21.0.0, SVG Export Plug-In . SVG Version: 6.00 Build 0)  -->
<svg version="1.1" id="Capa_1" xmlns="http://www.w3.org/2000/svg" xmlns:xlink="http://www.w3.org/1999/xlink" x="0px" y="0px"
	 viewBox="0 0 858.649 858.649" style="enable-background:new 0 0 858.649 858.649;" xml:space="preserve">
<g>
	<g id="Notebook-Text">
		
			<linearGradient id="SVGID_1_" gradientUnits="userSpaceOnUse" x1="429.3246" y1="850.5338" x2="429.3246" y2="-65.3587" gradientTransform="matrix(1 0 0 -1 0 843.3784)">
			<stop  offset="0" style="stop-color:#FFF33B"/>
			<stop  offset="0.014" style="stop-color:#FEE72E"/>
			<stop  offset="0.042" style="stop-color:#FED51B"/>
			<stop  offset="0.07" style="stop-color:#FDCA10"/>
			<stop  offset="0.1" style="stop-color:#FDC70C"/>
			<stop  offset="0.4" style="stop-color:#F3903F"/>
			<stop  offset="0.8" style="stop-color:#ED683C"/>
			<stop  offset="1" style="stop-color:#E93E3A"/>
		</linearGradient>
		<path style="fill:url(#SVGID_1_);" d="M786.966,157.419c0.033-3.777-1.427-7.414-4.064-10.118L639.794,4.193
			c-2.698-2.646-6.339-4.109-10.118-4.064V0h-515.19c-7.904,0-14.311,6.407-14.311,14.311v57.243H71.554v28.622h28.622v57.243
			H71.554v28.622h28.622v57.243H71.554v28.622h28.622v57.243H71.554v28.622h28.622v57.243H71.554v28.622h28.622v57.243H71.554V529.5
			h28.622v57.243H71.554v28.622h28.622v57.243H71.554v28.622h28.622v57.243H71.554v28.622h28.622v57.243
			c0,7.904,6.407,14.311,14.311,14.311h658.298c7.904,0,14.311-6.407,14.311-14.311V157.419H786.966z M643.987,48.857l94.251,94.251
			h-94.251V48.857z M128.797,830.028v-42.932h28.622v-28.622h-28.622V701.23h28.622v-28.622h-28.622v-57.243h28.622v-28.622h-28.622
			V529.5h28.622v-28.622h-28.622v-57.243h28.622v-28.622h-28.622v-57.243h28.622v-28.622h-28.622v-57.243h28.622v-28.622h-28.622
			v-57.243h28.622v-28.622h-28.622v-57.243h28.622V71.554h-28.622V28.622h486.568v128.797c0,7.904,6.407,14.311,14.311,14.311
			h128.797v658.298H128.797z"/>
		
			<linearGradient id="SVGID_2_" gradientUnits="userSpaceOnUse" x1="457.9463" y1="850.5338" x2="457.9463" y2="-65.3587" gradientTransform="matrix(1 0 0 -1 0 843.3784)">
			<stop  offset="0" style="stop-color:#FFF33B"/>
			<stop  offset="0.014" style="stop-color:#FEE72E"/>
			<stop  offset="0.042" style="stop-color:#FED51B"/>
			<stop  offset="0.07" style="stop-color:#FDCA10"/>
			<stop  offset="0.1" style="stop-color:#FDC70C"/>
			<stop  offset="0.4" style="stop-color:#F3903F"/>
			<stop  offset="0.8" style="stop-color:#ED683C"/>
			<stop  offset="1" style="stop-color:#E93E3A"/>
		</linearGradient>
		<path style="fill:url(#SVGID_2_);" d="M686.919,271.906H228.973c-7.904,0-14.311,6.407-14.311,14.311v286.216
			c0,7.904,6.407,14.311,14.311,14.311h271.906v57.243c0,7.904,6.407,14.311,14.311,14.311h171.73
			c7.904,0,14.311-6.407,14.311-14.311v-57.243c-0.04-4.791-0.423-9.574-1.145-14.311h1.145V286.216
			C701.23,278.313,694.823,271.906,686.919,271.906z M672.609,629.676H529.5v-42.932c0-39.518,32.036-71.554,71.554-71.554
			s71.554,32.036,71.554,71.554V629.676z M572.433,457.946c0-15.807,12.814-28.622,28.622-28.622
			c15.807,0,28.622,12.814,28.622,28.622s-12.814,28.622-28.622,28.622C585.247,486.568,572.433,473.754,572.433,457.946z
			 M643.414,496.099c21.264-23.395,19.537-59.598-3.858-80.862s-59.598-19.537-80.862,3.858c-19.844,21.833-19.844,55.172,0,77.004
			c-25.835,12.141-45.293,34.689-53.523,62.023H243.284V300.527h429.325v216.251C664.195,508.191,654.307,501.186,643.414,496.099z"
			/>
		
			<linearGradient id="SVGID_3_" gradientUnits="userSpaceOnUse" x1="343.4597" y1="850.5338" x2="343.4597" y2="-65.3587" gradientTransform="matrix(1 0 0 -1 0 843.3784)">
			<stop  offset="0" style="stop-color:#FFF33B"/>
			<stop  offset="0.014" style="stop-color:#FEE72E"/>
			<stop  offset="0.042" style="stop-color:#FED51B"/>
			<stop  offset="0.07" style="stop-color:#FDCA10"/>
			<stop  offset="0.1" style="stop-color:#FDC70C"/>
			<stop  offset="0.4" style="stop-color:#F3903F"/>
			<stop  offset="0.8" style="stop-color:#ED683C"/>
			<stop  offset="1" style="stop-color:#E93E3A"/>
		</linearGradient>
		<rect x="271.906" y="329.149" style="fill:url(#SVGID_3_);" width="143.108" height="28.622"/>
		
			<linearGradient id="SVGID_4_" gradientUnits="userSpaceOnUse" x1="400.703" y1="850.5338" x2="400.703" y2="-65.3587" gradientTransform="matrix(1 0 0 -1 0 843.3784)">
			<stop  offset="0" style="stop-color:#FFF33B"/>
			<stop  offset="0.014" style="stop-color:#FEE72E"/>
			<stop  offset="0.042" style="stop-color:#FED51B"/>
			<stop  offset="0.07" style="stop-color:#FDCA10"/>
			<stop  offset="0.1" style="stop-color:#FDC70C"/>
			<stop  offset="0.4" style="stop-color:#F3903F"/>
			<stop  offset="0.8" style="stop-color:#ED683C"/>
			<stop  offset="1" style="stop-color:#E93E3A"/>
		</linearGradient>
		<rect x="271.906" y="386.392" style="fill:url(#SVGID_4_);" width="257.595" height="28.622"/>
		
			<linearGradient id="SVGID_5_" gradientUnits="userSpaceOnUse" x1="343.4597" y1="850.5338" x2="343.4597" y2="-65.3587" gradientTransform="matrix(1 0 0 -1 0 843.3784)">
			<stop  offset="0" style="stop-color:#FFF33B"/>
			<stop  offset="0.014" style="stop-color:#FEE72E"/>
			<stop  offset="0.042" style="stop-color:#FED51B"/>
			<stop  offset="0.07" style="stop-color:#FDCA10"/>
			<stop  offset="0.1" style="stop-color:#FDC70C"/>
			<stop  offset="0.4" style="stop-color:#F3903F"/>
			<stop  offset="0.8" style="stop-color:#ED683C"/>
			<stop  offset="1" style="stop-color:#E93E3A"/>
		</linearGradient>
		<rect x="271.906" y="443.635" style="fill:url(#SVGID_5_);" width="143.108" height="28.622"/>
		
			<linearGradient id="SVGID_6_" gradientUnits="userSpaceOnUse" x1="372.0813" y1="850.5338" x2="372.0813" y2="-65.3587" gradientTransform="matrix(1 0 0 -1 0 843.3784)">
			<stop  offset="0" style="stop-color:#FFF33B"/>
			<stop  offset="0.014" style="stop-color:#FEE72E"/>
			<stop  offset="0.042" style="stop-color:#FED51B"/>
			<stop  offset="0.07" style="stop-color:#FDCA10"/>
			<stop  offset="0.1" style="stop-color:#FDC70C"/>
			<stop  offset="0.4" style="stop-color:#F3903F"/>
			<stop  offset="0.8" style="stop-color:#ED683C"/>
			<stop  offset="1" style="stop-color:#E93E3A"/>
		</linearGradient>
		<rect x="271.906" y="500.879" style="fill:url(#SVGID_6_);" width="200.351" height="28.622"/>
	</g>
</g>
<g>
</g>
<g>
</g>
<g>
</g>
<g>
</g>
<g>
</g>
<g>
</g>
<g>
</g>
<g>
</g>
<g>
</g>
<g>
</g>
<g>
</g>
<g>
</g>
<g>
</g>
<g>
</g>
<g>
</g>
</svg>
