<?xml version="1.0" encoding="iso-8859-1"?>
<!-- Generator: Adobe Illustrator 21.0.0, SVG Export Plug-In . SVG Version: 6.00 Build 0)  -->
<svg version="1.1" id="Capa_1" xmlns="http://www.w3.org/2000/svg" xmlns:xlink="http://www.w3.org/1999/xlink" x="0px" y="0px"
	 viewBox="0 0 858.649 858.649" style="enable-background:new 0 0 858.649 858.649;" xml:space="preserve">
<g>
	<g id="Notebook-world">
		
			<linearGradient id="SVGID_1_" gradientUnits="userSpaceOnUse" x1="429.3246" y1="800.7035" x2="429.3246" y2="-54.7831" gradientTransform="matrix(1 0 0 -1 0 843.3784)">
			<stop  offset="0" style="stop-color:#FFF33B"/>
			<stop  offset="0.014" style="stop-color:#FEE72E"/>
			<stop  offset="0.042" style="stop-color:#FED51B"/>
			<stop  offset="0.07" style="stop-color:#FDCA10"/>
			<stop  offset="0.1" style="stop-color:#FDC70C"/>
			<stop  offset="0.4" style="stop-color:#F3903F"/>
			<stop  offset="0.8" style="stop-color:#ED683C"/>
			<stop  offset="1" style="stop-color:#E93E3A"/>
		</linearGradient>
		<path style="fill:url(#SVGID_1_);" d="M757.185,0H158.707c-24.412,0.024-44.197,19.808-44.22,44.22v55.955H71.554
			c-7.904,0-14.311,6.407-14.311,14.311v57.243c0,7.904,6.407,14.311,14.311,14.311h42.932v57.243H71.554
			c-7.904,0-14.311,6.407-14.311,14.311v57.243c0,7.904,6.407,14.311,14.311,14.311h42.932v57.243H71.554
			c-7.904,0-14.311,6.407-14.311,14.311v57.243c0,7.904,6.407,14.311,14.311,14.311h42.932V529.5H71.554
			c-7.904,0-14.311,6.407-14.311,14.311v57.243c0,7.904,6.407,14.311,14.311,14.311h42.932v57.243H71.554
			c-7.904,0-14.311,6.407-14.311,14.311v57.243c0,7.904,6.407,14.311,14.311,14.311h42.932v55.955
			c0.024,24.412,19.808,44.197,44.22,44.22h598.479c24.412-0.024,44.197-19.808,44.22-44.22V44.22
			C801.382,19.808,781.598,0.024,757.185,0z M85.865,128.797h85.865v28.622H85.865V128.797z M85.865,271.906h85.865v28.622H85.865
			V271.906z M85.865,415.014h85.865v28.622H85.865V415.014z M85.865,558.122h85.865v28.622H85.865V558.122z M85.865,701.23h85.865
			v28.622H85.865V701.23z M772.784,814.429c-0.008,8.612-6.987,15.591-15.599,15.599H158.707
			c-8.612-0.008-15.591-6.987-15.599-15.599v-55.955h42.932c7.904,0,14.311-6.407,14.311-14.311v-57.243
			c0-7.904-6.407-14.311-14.311-14.311h-42.932v-57.243h42.932c7.904,0,14.311-6.407,14.311-14.311v-57.243
			c0-7.904-6.407-14.311-14.311-14.311h-42.932v-57.243h42.932c7.904,0,14.311-6.407,14.311-14.311v-57.243
			c0-7.904-6.407-14.311-14.311-14.311h-42.932v-57.243h42.932c7.904,0,14.311-6.407,14.311-14.311v-57.243
			c0-7.904-6.407-14.311-14.311-14.311h-42.932v-57.243h42.932c7.904,0,14.311-6.407,14.311-14.311v-57.243
			c0-7.904-6.407-14.311-14.311-14.311h-42.932V44.22c0.008-8.612,6.987-15.591,15.599-15.599h598.479
			c8.612,0.008,15.591,6.987,15.599,15.599V814.429z"/>
		
			<linearGradient id="SVGID_2_" gradientUnits="userSpaceOnUse" x1="486.2553" y1="807.5297" x2="486.2553" y2="-58.2748" gradientTransform="matrix(1 0 0 -1 0 843.3784)">
			<stop  offset="0" style="stop-color:#FFF33B"/>
			<stop  offset="0.014" style="stop-color:#FEE72E"/>
			<stop  offset="0.042" style="stop-color:#FED51B"/>
			<stop  offset="0.07" style="stop-color:#FDCA10"/>
			<stop  offset="0.1" style="stop-color:#FDC70C"/>
			<stop  offset="0.4" style="stop-color:#F3903F"/>
			<stop  offset="0.8" style="stop-color:#ED683C"/>
			<stop  offset="1" style="stop-color:#E93E3A"/>
		</linearGradient>
		<path style="fill:url(#SVGID_2_);" d="M529.5,186.742v-43.634c0-7.904-6.407-14.311-14.311-14.311
			c-118.484-0.046-214.571,95.966-214.617,214.45c-0.044,112.993,87.562,206.651,200.306,214.145v86.595h-25.244
			c-16.275-0.057-31.167,9.146-38.396,23.727l-20.722,41.43c-3.533,7.07-0.665,15.666,6.405,19.198
			c1.988,0.994,4.181,1.51,6.404,1.509h171.73c7.904,0.043,14.346-6.329,14.389-14.232c0.012-2.247-0.505-4.465-1.509-6.475
			l-20.722-41.43c-7.24-14.605-22.166-23.812-38.468-23.727H529.5V500.177c86.545-8.28,149.991-85.151,141.711-171.696
			c-7.184-75.088-66.623-134.527-141.711-141.711V186.742z M567.539,680.465L577.9,701.23H452.48l10.361-20.708
			c2.407-4.862,7.369-7.931,12.794-7.914h79.11c5.425-0.017,10.387,3.052,12.794,7.914V680.465z M616.296,423.142
			c-7.03-5.847-14.552-11.076-22.482-15.627c3.822-16.333,6.117-32.986,6.855-49.744h42.46
			c-2.583,23.907-11.886,46.593-26.833,65.429L616.296,423.142z M587.316,450.175c-3.306,2.232-6.712,4.293-10.175,6.197
			c-0.773,0.415-1.56,0.773-2.333,1.188c3.956-7.02,7.395-14.319,10.289-21.838c3.786,2.435,7.444,5.063,10.962,7.871
			c-2.748,2.218-5.538,4.379-8.443,6.354L587.316,450.175z M443.063,450.175l-0.301-0.229c-2.862-1.975-5.724-4.136-8.443-6.354
			c3.518-2.808,7.177-5.435,10.962-7.871c2.895,7.52,6.334,14.819,10.289,21.838c-0.773-0.415-1.56-0.773-2.333-1.188
			C449.775,454.454,446.369,452.408,443.063,450.175z M387.251,357.771h42.46c0.735,16.777,3.03,33.45,6.855,49.802
			c-7.93,4.552-15.452,9.78-22.482,15.627C399.137,404.363,389.834,381.677,387.251,357.771z M414.084,263.72
			c7.03,5.847,14.552,11.076,22.482,15.627c-3.825,16.352-6.12,33.024-6.855,49.802h-42.46
			C389.834,305.242,399.137,282.556,414.084,263.72z M442.705,236.973l0.301-0.229c3.306-2.232,6.712-4.293,10.175-6.197
			c0.773-0.415,1.56-0.773,2.333-1.188c-3.956,7.02-7.395,14.318-10.29,21.838c-3.786-2.435-7.444-5.063-10.962-7.871
			c2.805-2.218,5.596-4.336,8.501-6.354H442.705z M587.244,236.744l0.301,0.229c2.862,1.975,5.724,4.136,8.443,6.354
			c-3.518,2.808-7.177,5.435-10.962,7.871c-2.895-7.52-6.334-14.819-10.289-21.838c0.773,0.415,1.56,0.773,2.333,1.188
			c3.535,1.918,6.941,3.964,10.247,6.197H587.244z M470.826,422.885c28.642-10.509,60.085-10.509,88.727,0
			c-11.32,30.768-28.364,49.372-44.364,49.372C499.19,472.257,482.146,453.653,470.826,422.885z M515.19,386.392
			c-17.768,0.03-35.402,3.078-52.149,9.016c-2.527-12.408-4.106-24.99-4.723-37.637h113.742c-0.617,12.647-2.196,25.23-4.723,37.637
			C550.591,389.47,532.958,386.422,515.19,386.392z M458.318,329.149c0.617-12.647,2.196-25.23,4.723-37.637
			c33.727,12.021,70.571,12.021,104.297,0c2.527,12.408,4.106,24.99,4.723,37.637H458.318z M515.19,271.906
			c-15.136,0.006-30.154-2.658-44.363-7.871c11.32-30.768,28.364-49.372,44.363-49.372c16,0,33.044,18.604,44.364,49.372
			C545.343,269.247,530.325,271.912,515.19,271.906z M600.668,329.149c-0.735-16.777-3.03-33.45-6.855-49.802
			c7.93-4.552,15.452-9.78,22.482-15.627c14.946,18.836,24.25,41.522,26.833,65.429H600.668z M329.149,343.46
			c0.114-97.154,74.873-177.906,171.73-185.497v28.779c-86.545,8.28-149.991,85.151-141.711,171.696
			c7.184,75.088,66.623,134.527,141.711,141.711v28.622C404.064,521.246,329.297,440.566,329.149,343.46z"/>
	</g>
</g>
<g>
</g>
<g>
</g>
<g>
</g>
<g>
</g>
<g>
</g>
<g>
</g>
<g>
</g>
<g>
</g>
<g>
</g>
<g>
</g>
<g>
</g>
<g>
</g>
<g>
</g>
<g>
</g>
<g>
</g>
</svg>
