<?xml version="1.0" encoding="iso-8859-1"?>
<!-- Generator: Adobe Illustrator 21.0.0, SVG Export Plug-In . SVG Version: 6.00 Build 0)  -->
<svg version="1.1" id="Capa_1" xmlns="http://www.w3.org/2000/svg" xmlns:xlink="http://www.w3.org/1999/xlink" x="0px" y="0px"
	 viewBox="0 0 850.635 850.635" style="enable-background:new 0 0 850.635 850.635;" xml:space="preserve">
<g>
	<g id="Palette-paintbrush">
		
			<linearGradient id="SVGID_1_" gradientUnits="userSpaceOnUse" x1="326.6731" y1="872.8586" x2="326.6731" y2="-14.4122" gradientTransform="matrix(1 0 0 -1 0 843.3784)">
			<stop  offset="0" style="stop-color:#FFF33B"/>
			<stop  offset="0.014" style="stop-color:#FEE72E"/>
			<stop  offset="0.042" style="stop-color:#FED51B"/>
			<stop  offset="0.07" style="stop-color:#FDCA10"/>
			<stop  offset="0.1" style="stop-color:#FDC70C"/>
			<stop  offset="0.4" style="stop-color:#F3903F"/>
			<stop  offset="0.8" style="stop-color:#ED683C"/>
			<stop  offset="1" style="stop-color:#E93E3A"/>
		</linearGradient>
		<path style="fill:url(#SVGID_1_);" d="M652.811,359.66c-0.354-1.092-0.835-2.139-1.431-3.12c-0.232-0.588-0.5-1.162-0.801-1.717
			l-0.172-0.157c-0.834-0.971-1.797-1.824-2.862-2.533c-0.429-0.418-0.883-0.81-1.36-1.173c-0.712-0.317-1.449-0.576-2.204-0.773
			c-0.989-0.447-2.026-0.778-3.091-0.987c-0.086,0-0.157,0-0.243-0.086c-0.662,0.012-1.322,0.074-1.975,0.186
			c-1.139-0.039-2.279,0.067-3.392,0.315c-0.961,0.327-1.882,0.759-2.748,1.288c-0.696,0.262-1.371,0.578-2.018,0.944
			c-97.213,72.155-199.493,89.672-273.651,46.868s-110.122-140.16-96.24-260.457c-0.002-0.647-0.055-1.293-0.157-1.932
			c0.048-1.148-0.048-2.297-0.286-3.42c-0.32-0.94-0.742-1.843-1.259-2.69c-0.264-0.734-0.595-1.443-0.987-2.118
			c0-0.086-0.143-0.114-0.2-0.186c-1.357-1.26-2.746-2.487-4.164-3.678c-0.608-0.264-1.235-0.484-1.875-0.658
			c-1.08-0.51-2.219-0.885-3.392-1.116h-0.243c-0.782-0.01-1.563,0.052-2.333,0.186c-0.959-0.022-1.918,0.055-2.862,0.229
			c-1.198,0.365-2.339,0.895-3.392,1.574c-0.524,0.209-1.035,0.448-1.531,0.716l-0.301,0.243l-0.114,0.086
			c-64.03,48.62-117.497,109.761-157.147,179.701C23.564,403.579-4.729,510.81,0.709,607.151
			c5.538,98.516,45.609,174.134,112.869,212.945c31.379,17.85,66.94,27.037,103.038,26.618
			c123.932,0,268.228-97.199,359.516-255.305c40.861-69.448,67.118-146.506,77.164-226.454c-0.001-0.777-0.068-1.553-0.2-2.318
			C653.108,361.637,653.012,360.639,652.811,359.66z M551.318,577.098C440.839,768.448,250.863,866.377,127.89,795.31
			c-58.574-33.816-93.578-101.206-98.602-189.79c-5.123-90.831,21.824-192.395,75.847-286.016
			c32.58-57.118,74.689-108.243,124.504-151.165c-5.166,116.619,35.777,210.655,112.884,255.162
			c31.656,18.015,67.533,27.29,103.954,26.876c62.009-2.062,122.157-21.689,173.447-56.599
			C607.666,458.346,584.463,520.345,551.318,577.098z"/>
		
			<linearGradient id="SVGID_2_" gradientUnits="userSpaceOnUse" x1="177.978" y1="872.8586" x2="177.978" y2="-14.4122" gradientTransform="matrix(1 0 0 -1 0 843.3784)">
			<stop  offset="0" style="stop-color:#FFF33B"/>
			<stop  offset="0.014" style="stop-color:#FEE72E"/>
			<stop  offset="0.042" style="stop-color:#FED51B"/>
			<stop  offset="0.07" style="stop-color:#FDCA10"/>
			<stop  offset="0.1" style="stop-color:#FDC70C"/>
			<stop  offset="0.4" style="stop-color:#F3903F"/>
			<stop  offset="0.8" style="stop-color:#ED683C"/>
			<stop  offset="1" style="stop-color:#E93E3A"/>
		</linearGradient>
		<path style="fill:url(#SVGID_2_);" d="M206.599,672.265c-27.387-15.739-62.345-6.372-78.194,20.951
			c-15.808,27.378-6.429,62.388,20.95,78.197c27.378,15.808,62.388,6.429,78.197-20.95c15.808-27.379,6.429-62.388-20.95-78.197
			C206.601,672.266,206.6,672.266,206.599,672.265z M202.735,736.149c-7.904,13.69-25.408,18.38-39.098,10.476
			c-13.69-7.904-18.38-25.408-10.476-39.098c5.118-8.865,14.58-14.321,24.816-14.311c15.807,0.04,28.589,12.887,28.549,28.694
			c-0.013,5-1.335,9.909-3.835,14.239H202.735z"/>
		
			<linearGradient id="SVGID_3_" gradientUnits="userSpaceOnUse" x1="120.7327" y1="872.8586" x2="120.7327" y2="-14.4122" gradientTransform="matrix(1 0 0 -1 0 843.3784)">
			<stop  offset="0" style="stop-color:#FFF33B"/>
			<stop  offset="0.014" style="stop-color:#FEE72E"/>
			<stop  offset="0.042" style="stop-color:#FED51B"/>
			<stop  offset="0.07" style="stop-color:#FDCA10"/>
			<stop  offset="0.1" style="stop-color:#FDC70C"/>
			<stop  offset="0.4" style="stop-color:#F3903F"/>
			<stop  offset="0.8" style="stop-color:#ED683C"/>
			<stop  offset="1" style="stop-color:#E93E3A"/>
		</linearGradient>
		<path style="fill:url(#SVGID_3_);" d="M170.307,607.351c15.807-27.379,6.426-62.388-20.953-78.196
			c-27.379-15.807-62.388-6.426-78.196,20.953s-6.426,62.389,20.953,78.196c8.673,5.007,18.508,7.652,28.523,7.669
			c5.035-0.006,10.049-0.67,14.912-1.975C150.227,630.116,162.745,620.52,170.307,607.351z M106.423,603.502
			c-13.691-7.901-18.385-25.405-10.484-39.096c7.901-13.691,25.405-18.385,39.096-10.484c13.691,7.901,18.385,25.405,10.484,39.096
			c-0.004,0.008-0.009,0.015-0.013,0.023C137.598,606.715,120.106,611.398,106.423,603.502z"/>
		
			<linearGradient id="SVGID_4_" gradientUnits="userSpaceOnUse" x1="149.3614" y1="872.8586" x2="149.3614" y2="-14.4122" gradientTransform="matrix(1 0 0 -1 0 843.3784)">
			<stop  offset="0" style="stop-color:#FFF33B"/>
			<stop  offset="0.014" style="stop-color:#FEE72E"/>
			<stop  offset="0.042" style="stop-color:#FED51B"/>
			<stop  offset="0.07" style="stop-color:#FDCA10"/>
			<stop  offset="0.1" style="stop-color:#FDC70C"/>
			<stop  offset="0.4" style="stop-color:#F3903F"/>
			<stop  offset="0.8" style="stop-color:#ED683C"/>
			<stop  offset="1" style="stop-color:#E93E3A"/>
		</linearGradient>
		<path style="fill:url(#SVGID_4_);" d="M120.734,470.883c8.669,5.017,18.506,7.663,28.521,7.671
			c5.035-0.006,10.049-0.67,14.912-1.975c30.539-8.177,48.666-39.563,40.489-70.102s-39.563-48.666-70.101-40.489
			c-30.539,8.177-48.666,39.563-40.489,70.101c3.927,14.666,13.52,27.172,26.668,34.765V470.883z M124.584,407
			c7.901-13.691,25.405-18.385,39.096-10.484c13.691,7.901,18.385,25.405,10.484,39.096s-25.405,18.385-39.096,10.484
			c-0.008-0.004-0.015-0.009-0.023-0.013C121.37,438.174,116.688,420.682,124.584,407z"/>
		
			<linearGradient id="SVGID_5_" gradientUnits="userSpaceOnUse" x1="321.071" y1="872.8586" x2="321.071" y2="-14.4122" gradientTransform="matrix(1 0 0 -1 0 843.3784)">
			<stop  offset="0" style="stop-color:#FFF33B"/>
			<stop  offset="0.014" style="stop-color:#FEE72E"/>
			<stop  offset="0.042" style="stop-color:#FED51B"/>
			<stop  offset="0.07" style="stop-color:#FDCA10"/>
			<stop  offset="0.1" style="stop-color:#FDC70C"/>
			<stop  offset="0.4" style="stop-color:#F3903F"/>
			<stop  offset="0.8" style="stop-color:#ED683C"/>
			<stop  offset="1" style="stop-color:#E93E3A"/>
		</linearGradient>
		<path style="fill:url(#SVGID_5_);" d="M349.707,643.643c-27.378-15.809-62.388-6.43-78.197,20.949
			c-15.809,27.378-6.43,62.388,20.949,78.197c8.674,5.008,18.51,7.653,28.526,7.67c5.035-0.006,10.048-0.67,14.912-1.975
			c30.533-8.198,48.64-39.596,40.442-70.129C372.408,663.715,362.831,651.231,349.707,643.643z M345.858,707.527
			c-7.904,13.69-25.408,18.38-39.098,10.476c-13.69-7.904-18.38-25.408-10.476-39.098c5.115-8.86,14.571-14.316,24.802-14.311
			c15.807,0.032,28.596,12.872,28.564,28.68c-0.01,5.005-1.332,9.919-3.835,14.253H345.858z"/>
		
			<linearGradient id="SVGID_6_" gradientUnits="userSpaceOnUse" x1="435.5576" y1="872.8586" x2="435.5576" y2="-14.4122" gradientTransform="matrix(1 0 0 -1 0 843.3784)">
			<stop  offset="0" style="stop-color:#FFF33B"/>
			<stop  offset="0.014" style="stop-color:#FEE72E"/>
			<stop  offset="0.042" style="stop-color:#FED51B"/>
			<stop  offset="0.07" style="stop-color:#FDCA10"/>
			<stop  offset="0.1" style="stop-color:#FDC70C"/>
			<stop  offset="0.4" style="stop-color:#F3903F"/>
			<stop  offset="0.8" style="stop-color:#ED683C"/>
			<stop  offset="1" style="stop-color:#E93E3A"/>
		</linearGradient>
		<path style="fill:url(#SVGID_6_);" d="M464.194,543.468c-27.378-15.809-62.388-6.43-78.197,20.949
			c-15.809,27.378-6.43,62.388,20.949,78.197c8.674,5.008,18.51,7.653,28.526,7.67c5.035-0.006,10.049-0.67,14.912-1.975
			c30.533-8.198,48.64-39.596,40.442-70.129C486.895,563.539,477.317,551.056,464.194,543.468z M460.344,607.351
			c-7.904,13.69-25.408,18.38-39.098,10.476s-18.38-25.408-10.476-39.098c5.115-8.86,14.571-14.316,24.802-14.311
			c15.807,0.032,28.596,12.872,28.564,28.68c-0.01,5.005-1.332,9.919-3.835,14.253H460.344z"/>
		
			<linearGradient id="SVGID_7_" gradientUnits="userSpaceOnUse" x1="750.4103" y1="872.8586" x2="750.4103" y2="-14.4122" gradientTransform="matrix(1 0 0 -1 0 843.3784)">
			<stop  offset="0" style="stop-color:#FFF33B"/>
			<stop  offset="0.014" style="stop-color:#FEE72E"/>
			<stop  offset="0.042" style="stop-color:#FED51B"/>
			<stop  offset="0.07" style="stop-color:#FDCA10"/>
			<stop  offset="0.1" style="stop-color:#FDC70C"/>
			<stop  offset="0.4" style="stop-color:#F3903F"/>
			<stop  offset="0.8" style="stop-color:#ED683C"/>
			<stop  offset="1" style="stop-color:#E93E3A"/>
		</linearGradient>
		<path style="fill:url(#SVGID_7_);" d="M850.472,190.563L829.005,18.375c-0.713-5.28-4.338-9.708-9.374-11.449
			c-2.499-4.253-7.046-6.882-11.978-6.926c-17.345,0-23.413,17.459-27.835,30.224c-0.258,0.701-0.515,1.431-0.816,2.304
			c-0.286-0.83-0.558-1.603-0.816-2.304C773.766,17.459,767.698,0,750.41,0s-23.398,17.459-27.806,30.224l-0.816,2.232
			c-0.272-0.801-0.544-1.546-0.787-2.232C716.565,17.459,710.497,0,693.167,0c-4.907,0.053-9.432,2.662-11.935,6.884
			c-5.028,1.748-8.646,6.174-9.359,11.449L650.406,190.52c-0.095,0.602-0.152,1.209-0.172,1.817
			c0,23.711,19.221,42.932,42.932,42.932h14.311v601.054c0,7.904,6.407,14.311,14.311,14.311h57.243
			c7.904,0,14.311-6.407,14.311-14.311V235.27h14.311c23.711,0,42.932-19.222,42.932-42.932
			C850.584,191.744,850.545,191.152,850.472,190.563z M764.721,822.014H736.1V235.27h28.622V822.014z M807.654,206.648H693.167
			c-7.622,0.01-13.914-5.955-14.311-13.567l18.16-145.155c4.293,10.919,10.991,21.91,24.743,21.91
			c17.33,0,23.398-17.459,27.806-30.224c0.258-0.701,0.529-1.431,0.801-2.261l0.801,2.261c4.422,12.765,10.49,30.224,27.835,30.224
			c13.796,0,20.422-11.034,24.786-21.981l18.175,145.226C821.568,200.693,815.276,206.659,807.654,206.648z"/>
	</g>
</g>
<g>
</g>
<g>
</g>
<g>
</g>
<g>
</g>
<g>
</g>
<g>
</g>
<g>
</g>
<g>
</g>
<g>
</g>
<g>
</g>
<g>
</g>
<g>
</g>
<g>
</g>
<g>
</g>
<g>
</g>
</svg>
