<?xml version="1.0" encoding="iso-8859-1"?>
<!-- Generator: Adobe Illustrator 21.0.0, SVG Export Plug-In . SVG Version: 6.00 Build 0)  -->
<svg version="1.1" id="Capa_1" xmlns="http://www.w3.org/2000/svg" xmlns:xlink="http://www.w3.org/1999/xlink" x="0px" y="0px"
	 viewBox="0 0 858.661 858.661" style="enable-background:new 0 0 858.661 858.661;" xml:space="preserve">
<g>
	<g id="pencil-ruler-case-2">
		
			<linearGradient id="SVGID_1_" gradientUnits="userSpaceOnUse" x1="429.3307" y1="886.3087" x2="429.3307" y2="-20.0385" gradientTransform="matrix(1 0 0 -1 0 872)">
			<stop  offset="0" style="stop-color:#FFF33B"/>
			<stop  offset="0.014" style="stop-color:#FEE72E"/>
			<stop  offset="0.042" style="stop-color:#FED51B"/>
			<stop  offset="0.07" style="stop-color:#FDCA10"/>
			<stop  offset="0.1" style="stop-color:#FDC70C"/>
			<stop  offset="0.4" style="stop-color:#F3903F"/>
			<stop  offset="0.8" style="stop-color:#ED683C"/>
			<stop  offset="1" style="stop-color:#E93E3A"/>
		</linearGradient>
		<path style="fill:url(#SVGID_1_);" d="M819.042,188.232l-37.208-21.466l6.74-11.663c3.681-6.002,5.825-12.82,6.24-19.849
			c1.207-23.728-17.05-43.941-40.778-45.148c-16.077-0.818-31.265,7.409-39.363,21.32L590.584,326.403c0,0-0.1-140.69-0.1-140.876
			c-0.06-1.507-0.359-2.995-0.887-4.408c-0.129-0.315-0.2-0.644-0.343-0.945s-0.1-0.358-0.186-0.529l-42.932-85.865
			c-3.533-7.07-12.129-9.937-19.199-6.403c-2.771,1.385-5.018,3.632-6.403,6.403L477.6,179.646c-0.086,0.172-0.1,0.358-0.186,0.529
			c-0.086,0.172-0.215,0.63-0.329,0.945c-0.528,1.413-0.827,2.901-0.887,4.408c-0.1,0.172-0.2,186.556-0.2,186.556h-14.211
			c0,0-0.1-272.235-0.1-272.421c-0.06-1.507-0.359-2.995-0.887-4.408c-0.129-0.315-0.2-0.644-0.343-0.945
			c-0.143-0.301-0.1-0.358-0.186-0.53L417.337,7.916c-3.534-7.07-12.129-9.937-19.199-6.403c-2.771,1.385-5.018,3.632-6.403,6.403
			l-42.932,85.865c-0.086,0.172-0.1,0.358-0.186,0.53c-0.086,0.172-0.215,0.63-0.329,0.945c-0.562,1.407-0.895,2.895-0.987,4.408
			c0,0.172-0.1,272.421-0.1,272.421h-14.211V114.489c0-23.711-19.222-42.932-42.932-42.932h-28.622
			c-23.711,0-42.932,19.222-42.932,42.932v166.006c0,0-79.582-137.47-79.726-137.699c-0.747-1.139-1.653-2.165-2.69-3.048
			c-0.329-0.272-0.601-0.572-0.959-0.816c-0.117-0.113-0.242-0.218-0.372-0.315l-53.394-35.276l0,0L54.658,85.695
			c-6.586-4.37-15.467-2.574-19.837,4.012c-1.723,2.597-2.552,5.686-2.359,8.796l5.724,95.882c0,0.186,0.086,0.343,0.1,0.529
			c0,0.458,0.172,0.873,0.258,1.331c0.239,1.283,0.658,2.526,1.245,3.692c0.186,0.186,102.58,177.869,102.58,177.869
			c-3.864,2.078-7.38,4.749-10.418,7.914c-8.12,8.725-12.264,20.423-11.449,32.314l24.529,343.46
			c0.379,4.625,1.52,9.156,3.377,13.409c-20.984,6.518-33.621,27.87-29.237,49.401c4.737,20.458,23.169,34.792,44.163,34.346
			h482.418c20.995,0.446,39.426-13.888,44.163-34.346c4.346-21.528-8.313-42.851-29.294-49.344
			c1.857-4.253,2.998-8.784,3.377-13.409l24.529-343.46c1.43-18.682-9.555-36.093-27.033-42.847l106.057-183.665l24.786,14.311
			l-64.37,111.524l24.786,14.311l71.554-123.932c3.951-6.845,1.604-15.597-5.241-19.548
			C819.059,188.242,819.05,188.237,819.042,188.232z M597.339,372.083L717.95,162.959l24.743,14.311l-112.44,194.813H597.339z
			 M561.962,200.354v171.73h-14.311v-171.73H561.962z M748.132,119.082c7.634-2.047,15.482,2.481,17.53,10.115
			c0.984,3.668,0.469,7.576-1.43,10.865l-7.155,12.393l-24.772-14.311l7.155-12.379C741.35,122.476,744.469,120.073,748.132,119.082
			z M533.341,132.177l19.778,39.555h-39.555L533.341,132.177z M504.719,200.354h14.311v171.73h-14.311V200.354z M433.165,114.489
			v257.595h-14.311V114.489H433.165z M404.543,46.312l19.778,39.555h-39.555L404.543,46.312z M375.922,114.489h14.311v257.595
			h-14.311V114.489z M645.709,400.705c7.904-0.02,14.327,6.371,14.347,14.275c0.001,0.351-0.011,0.702-0.036,1.052l-24.529,343.46
			c-0.534,7.504-6.787,13.314-14.311,13.295H187.906c-7.523,0.019-13.777-5.79-14.311-13.295l-24.529-343.46
			c-0.283-3.965,1.096-7.869,3.807-10.776c2.834-3.016,6.825-4.673,10.962-4.551H645.709z M84.467,191.567l104.24,180.517h-16.615
			L72.06,198.722L84.467,191.567z M290.057,372.083V157.421h14.311v214.662H290.057z M247.124,114.489
			c0-7.904,6.407-14.311,14.311-14.311h28.622c7.904,0,14.311,6.407,14.311,14.311V128.8h-57.243V114.489z M247.124,157.421h14.311
			V354.81l-14.311-24.772V157.421z M218.503,366.431L109.254,177.256l12.407-7.155l96.841,167.637V366.431z M99.723,149.736
			l-34.346,19.763l-2.662-44.149L99.723,149.736z M647.827,830.03H161.259c-7.904,0-14.311-6.407-14.311-14.311
			c0-7.904,6.407-14.311,14.311-14.311h486.568c7.904,0,14.311,6.407,14.311,14.311C662.138,823.623,655.731,830.03,647.827,830.03z
			"/>
	</g>
</g>
<g>
</g>
<g>
</g>
<g>
</g>
<g>
</g>
<g>
</g>
<g>
</g>
<g>
</g>
<g>
</g>
<g>
</g>
<g>
</g>
<g>
</g>
<g>
</g>
<g>
</g>
<g>
</g>
<g>
</g>
</svg>
