<?xml version="1.0" encoding="iso-8859-1"?>
<!-- Generator: Adobe Illustrator 21.0.0, SVG Export Plug-In . SVG Version: 6.00 Build 0)  -->
<svg version="1.1" id="Capa_1" xmlns="http://www.w3.org/2000/svg" xmlns:xlink="http://www.w3.org/1999/xlink" x="0px" y="0px"
	 viewBox="0 0 858.675 858.675" style="enable-background:new 0 0 858.675 858.675;" xml:space="preserve">
<g>
	<g id="Pencil-line">
		
			<linearGradient id="SVGID_1_" gradientUnits="userSpaceOnUse" x1="429.3377" y1="833.3429" x2="429.3377" y2="35.0854" gradientTransform="matrix(1 0 0 -1 0 850.5203)">
			<stop  offset="0" style="stop-color:#FFF33B"/>
			<stop  offset="0.014" style="stop-color:#FEE72E"/>
			<stop  offset="0.042" style="stop-color:#FED51B"/>
			<stop  offset="0.07" style="stop-color:#FDCA10"/>
			<stop  offset="0.1" style="stop-color:#FDC70C"/>
			<stop  offset="0.4" style="stop-color:#F3903F"/>
			<stop  offset="0.8" style="stop-color:#ED683C"/>
			<stop  offset="1" style="stop-color:#E93E3A"/>
		</linearGradient>
		<path style="fill:url(#SVGID_1_);" d="M61.992,783.55l67.046-44.263c0.186-0.115,0.315-0.301,0.501-0.429s0.501-0.444,0.758-0.658
			c1.113-0.931,2.078-2.027,2.862-3.249l343.846-595.387c11.86-20.531,4.831-46.79-15.701-58.651
			c-0.014-0.008-0.028-0.016-0.041-0.024l0,0l-49.558-28.622c-20.531-11.86-46.79-4.831-58.651,15.701
			c-0.008,0.014-0.016,0.028-0.024,0.041c0,0-343.517,595.33-343.603,595.488c-0.695,1.308-1.178,2.719-1.431,4.179
			c0,0.343-0.157,0.673-0.2,1.03c-0.043,0.358-0.086,0.358-0.1,0.544L0.026,797.003c-0.474,7.889,5.537,14.669,13.426,15.144
			c0.294,0.018,0.589,0.026,0.884,0.026h844.338V783.55H61.992z M93.934,728.153l-63.597,41.988l4.565-76.062L93.934,728.153z
			 M342.083,144.272l74.416,42.932l-7.155,12.379L335,156.651L342.083,144.272z M377.832,82.32
			c3.952-6.844,12.704-9.189,19.549-5.238l49.558,28.622c6.862,3.922,9.244,12.665,5.322,19.526
			c-0.004,0.007-0.009,0.015-0.013,0.022l-21.466,37.208l-74.416-42.932L377.832,82.32z M320.589,181.466l74.416,42.932
			L115.944,707.789l-74.416-42.932L320.589,181.466z"/>
	</g>
</g>
<g>
</g>
<g>
</g>
<g>
</g>
<g>
</g>
<g>
</g>
<g>
</g>
<g>
</g>
<g>
</g>
<g>
</g>
<g>
</g>
<g>
</g>
<g>
</g>
<g>
</g>
<g>
</g>
<g>
</g>
</svg>
