<?xml version="1.0" encoding="iso-8859-1"?>
<!-- Generator: Adobe Illustrator 21.0.0, SVG Export Plug-In . SVG Version: 6.00 Build 0)  -->
<svg version="1.1" id="Capa_1" xmlns="http://www.w3.org/2000/svg" xmlns:xlink="http://www.w3.org/1999/xlink" x="0px" y="0px"
	 viewBox="0 0 858.777 858.777" style="enable-background:new 0 0 858.777 858.777;" xml:space="preserve">
<g>
	<g id="pencil-ruler-case_1_">
		
			<linearGradient id="SVGID_1_" gradientUnits="userSpaceOnUse" x1="586.0527" y1="893.4628" x2="586.0527" y2="6.1919" gradientTransform="matrix(1 0 0 -1 -5.632393e-05 872.0002)">
			<stop  offset="0" style="stop-color:#FFF33B"/>
			<stop  offset="0.014" style="stop-color:#FEE72E"/>
			<stop  offset="0.042" style="stop-color:#FED51B"/>
			<stop  offset="0.07" style="stop-color:#FDCA10"/>
			<stop  offset="0.1" style="stop-color:#FDC70C"/>
			<stop  offset="0.4" style="stop-color:#F3903F"/>
			<stop  offset="0.8" style="stop-color:#ED683C"/>
			<stop  offset="1" style="stop-color:#E93E3A"/>
		</linearGradient>
		<polygon style="fill:url(#SVGID_1_);" points="560.844,729.009 582.689,356.925 611.261,358.602 589.416,730.687 		"/>
		
			<linearGradient id="SVGID_2_" gradientUnits="userSpaceOnUse" x1="429.3887" y1="893.4662" x2="429.3887" y2="6.1954" gradientTransform="matrix(1 0 0 -1 0 872)">
			<stop  offset="0" style="stop-color:#FFF33B"/>
			<stop  offset="0.014" style="stop-color:#FEE72E"/>
			<stop  offset="0.042" style="stop-color:#FED51B"/>
			<stop  offset="0.07" style="stop-color:#FDCA10"/>
			<stop  offset="0.1" style="stop-color:#FDC70C"/>
			<stop  offset="0.4" style="stop-color:#F3903F"/>
			<stop  offset="0.8" style="stop-color:#ED683C"/>
			<stop  offset="1" style="stop-color:#E93E3A"/>
		</linearGradient>
		<path style="fill:url(#SVGID_2_);" d="M656.056,793.564c-3.42-4.164-7.37-8.973-11.563-14.812
			c-0.891-1.199-1.969-2.247-3.191-3.105c2.067-4.615,3.288-9.564,3.606-14.611l25.33-429.425
			c0.604-11.833-3.657-23.399-11.792-32.013c-7.68-8.097-18.24-12.843-29.394-13.209V14.311C629.052,6.407,622.644,0,614.741,0
			H471.633c-7.904,0-14.311,6.407-14.311,14.311v271.906h-36.807L293.692,66.545c-0.2-0.343-0.544-0.544-0.773-0.873
			c-1.003-1.375-2.193-2.603-3.535-3.649c-0.086,0-0.157-0.157-0.258-0.229L208.986,8.916c-6.597-4.353-15.474-2.534-19.827,4.063
			c-1.703,2.581-2.524,5.644-2.341,8.731l5.724,95.882c0,0.215,0.1,0.401,0.114,0.615c0.014,0.215,0.129,0.63,0.186,0.959
			c0.235,1.501,0.719,2.952,1.431,4.293c0,0.143,0,0.286,0.143,0.415l0.315,0.544v0.086l97.628,168.868
			c-12.836,8.383-20.21,22.99-19.334,38.296l25.33,429.325c0.311,5.057,1.533,10.017,3.606,14.64
			c-1.223,0.858-2.3,1.906-3.191,3.105c-4.193,5.839-8.143,10.647-11.563,14.812c-8.928,8.328-14.579,19.578-15.928,31.713
			c1.479,19.934,18.838,34.893,38.772,33.414c0.113-0.008,0.227-0.017,0.34-0.027h322.48c19.919,1.667,37.417-13.129,39.085-33.047
			c0.01-0.113,0.018-0.227,0.027-0.34C670.631,813.133,664.981,801.888,656.056,793.564z M485.943,28.622H600.43v28.622h-57.243
			v28.622h57.243v28.622h-57.243v28.622h57.243v28.622h-57.243v28.622h57.243v28.622h-57.243v28.622h57.243v28.622H485.943V28.622z
			 M321.254,286.216l-94.809-164.303l12.422-7.155l98.931,171.458H321.254z M370.856,286.216L263.653,100.433l12.408-7.155
			l111.395,192.938H370.856z M254.022,72.985l-34.26,19.692l-2.648-44.106L254.022,72.985z M314.4,314.838h312.963
			c3.919-0.013,7.668,1.604,10.347,4.465c2.755,2.874,4.2,6.758,3.993,10.733l-25.344,429.339
			c-0.477,7.549-6.746,13.424-14.311,13.409h-260.8c-7.575,0.014-13.849-5.877-14.311-13.438l-25.33-429.325
			C301.177,322.371,306.787,315.713,314.4,314.838z M632.872,830.028h-322.48c-6.769,0-10.49-3.578-10.49-4.766
			c2.413-4.984,5.601-9.553,9.445-13.538c2.504-3.077,5.295-6.469,8.243-10.318h308.083c2.948,3.85,5.724,7.241,8.243,10.318
			c3.844,3.985,7.032,8.554,9.445,13.538C643.362,826.45,639.642,830.028,632.872,830.028z"/>
	</g>
</g>
<g>
</g>
<g>
</g>
<g>
</g>
<g>
</g>
<g>
</g>
<g>
</g>
<g>
</g>
<g>
</g>
<g>
</g>
<g>
</g>
<g>
</g>
<g>
</g>
<g>
</g>
<g>
</g>
<g>
</g>
</svg>
