<?xml version="1.0" encoding="iso-8859-1"?>
<!-- Generator: Adobe Illustrator 21.0.0, SVG Export Plug-In . SVG Version: 6.00 Build 0)  -->
<svg version="1.1" id="Capa_1" xmlns="http://www.w3.org/2000/svg" xmlns:xlink="http://www.w3.org/1999/xlink" x="0px" y="0px"
	 viewBox="0 0 858.68 858.68" style="enable-background:new 0 0 858.68 858.68;" xml:space="preserve">
<g>
	<g id="Pencil-ruler-pen">
		
			<linearGradient id="SVGID_1_" gradientUnits="userSpaceOnUse" x1="686.9348" y1="893.4662" x2="686.9348" y2="6.1954" gradientTransform="matrix(1 0 0 -1 0 872)">
			<stop  offset="0" style="stop-color:#FFF33B"/>
			<stop  offset="0.014" style="stop-color:#FEE72E"/>
			<stop  offset="0.042" style="stop-color:#FED51B"/>
			<stop  offset="0.07" style="stop-color:#FDCA10"/>
			<stop  offset="0.1" style="stop-color:#FDC70C"/>
			<stop  offset="0.4" style="stop-color:#F3903F"/>
			<stop  offset="0.8" style="stop-color:#ED683C"/>
			<stop  offset="1" style="stop-color:#E93E3A"/>
		</linearGradient>
		<path style="fill:url(#SVGID_1_);" d="M758.489,71.554h-42.932V14.311C715.556,6.407,709.149,0,701.246,0h-85.865
			c-7.904,0-14.311,6.407-14.311,14.311v372.081c0,7.904,6.407,14.311,14.311,14.311v386.392c0,0.186,0.1,0.343,0.1,0.515
			c0.06,1.507,0.359,2.995,0.887,4.408c0.129,0.315,0.2,0.644,0.329,0.945c0.129,0.301,0.1,0.358,0.186,0.529l28.622,57.243
			c3.526,7.074,12.118,9.95,19.192,6.425c2.783-1.387,5.038-3.642,6.425-6.425l28.622-57.243c0.086-0.172,0.1-0.358,0.186-0.529
			s0.2-0.63,0.329-0.945c0.528-1.413,0.827-2.901,0.887-4.408c0-0.186,0.1-0.329,0.1-0.515V400.703
			c7.904,0,14.311-6.407,14.311-14.311V100.176h28.622v286.216c0,7.904,6.407,14.311,14.311,14.311
			c7.904,0,14.311-6.407,14.311-14.311V85.865C772.8,77.961,766.393,71.554,758.489,71.554z M629.692,28.622h57.243v343.46h-57.243
			V28.622z M658.313,812.339l-5.467-10.933h10.933L658.313,812.339z M672.624,772.784h-28.622V400.703h28.622V772.784z"/>
		
			<linearGradient id="SVGID_2_" gradientUnits="userSpaceOnUse" x1="429.3401" y1="893.4662" x2="429.3401" y2="6.1954" gradientTransform="matrix(1 0 0 -1 0 872)">
			<stop  offset="0" style="stop-color:#FFF33B"/>
			<stop  offset="0.014" style="stop-color:#FEE72E"/>
			<stop  offset="0.042" style="stop-color:#FED51B"/>
			<stop  offset="0.07" style="stop-color:#FDCA10"/>
			<stop  offset="0.1" style="stop-color:#FDC70C"/>
			<stop  offset="0.4" style="stop-color:#F3903F"/>
			<stop  offset="0.8" style="stop-color:#ED683C"/>
			<stop  offset="1" style="stop-color:#E93E3A"/>
		</linearGradient>
		<path style="fill:url(#SVGID_2_);" d="M529.516,0H329.164c-7.904,0-14.311,6.407-14.311,14.311v830.028
			c0,7.904,6.407,14.311,14.311,14.311h200.352c7.904,0,14.311-6.407,14.311-14.311V14.311C543.827,6.407,537.419,0,529.516,0z
			 M343.475,830.028V28.622h171.73v85.865h-57.243v28.622h57.243v71.554h-57.243v28.622h57.243v71.554h-57.243v28.622h57.243v71.554
			h-57.243v28.622h57.243v71.554h-57.243v28.622h57.243v71.554h-57.243v28.622h57.243v71.554h-57.243v28.622h57.243v85.865H343.475z
			"/>
		
			<linearGradient id="SVGID_3_" gradientUnits="userSpaceOnUse" x1="157.4846" y1="893.4662" x2="157.4846" y2="6.1954" gradientTransform="matrix(1 0 0 -1 0 872)">
			<stop  offset="0" style="stop-color:#FFF33B"/>
			<stop  offset="0.014" style="stop-color:#FEE72E"/>
			<stop  offset="0.042" style="stop-color:#FED51B"/>
			<stop  offset="0.07" style="stop-color:#FDCA10"/>
			<stop  offset="0.1" style="stop-color:#FDC70C"/>
			<stop  offset="0.4" style="stop-color:#F3903F"/>
			<stop  offset="0.8" style="stop-color:#ED683C"/>
			<stop  offset="1" style="stop-color:#E93E3A"/>
		</linearGradient>
		<path style="fill:url(#SVGID_3_);" d="M186.128,0h-57.315C105.102,0,85.88,19.222,85.88,42.932c0,0,0.1,687.263,0.1,687.435
			c0.058,1.509,0.363,2.998,0.902,4.408c0.114,0.315,0.186,0.644,0.329,0.945c0.143,0.301,0.1,0.358,0.186,0.529l57.243,114.487
			c3.518,7.078,12.107,9.964,19.185,6.446c2.794-1.389,5.058-3.652,6.446-6.446l57.243-114.487c0.086-0.172,0.1-0.358,0.186-0.529
			c0.086-0.172,0.215-0.63,0.329-0.945c0.552-1.409,0.876-2.897,0.959-4.408c0-0.186,0.1-687.435,0.1-687.435
			C229.089,19.222,209.867,0,186.156,0C186.147,0,186.137,0,186.128,0z M114.502,715.541V114.487h28.622v601.054H114.502z
			 M171.745,114.487h28.622v601.054h-28.622V114.487z M114.502,42.932c0-7.904,6.407-14.311,14.311-14.311h57.243
			c7.904,0,14.311,6.407,14.311,14.311v42.932h-85.865V42.932z M157.434,812.339l-34.088-68.177h68.177L157.434,812.339z"/>
	</g>
</g>
<g>
</g>
<g>
</g>
<g>
</g>
<g>
</g>
<g>
</g>
<g>
</g>
<g>
</g>
<g>
</g>
<g>
</g>
<g>
</g>
<g>
</g>
<g>
</g>
<g>
</g>
<g>
</g>
<g>
</g>
</svg>
