<?xml version="1.0" encoding="iso-8859-1"?>
<!-- Generator: Adobe Illustrator 21.0.0, SVG Export Plug-In . SVG Version: 6.00 Build 0)  -->
<svg version="1.1" id="Capa_1" xmlns="http://www.w3.org/2000/svg" xmlns:xlink="http://www.w3.org/1999/xlink" x="0px" y="0px"
	 viewBox="0 0 872.966 872.966" style="enable-background:new 0 0 872.966 872.966;" xml:space="preserve">
<g>
	<g id="Pencil_-Triangle_ruler">
		
			<linearGradient id="SVGID_1_" gradientUnits="userSpaceOnUse" x1="436.483" y1="886.3049" x2="436.483" y2="-20.0423" gradientTransform="matrix(1 0 0 -1 0 872)">
			<stop  offset="0" style="stop-color:#FFF33B"/>
			<stop  offset="0.014" style="stop-color:#FEE72E"/>
			<stop  offset="0.042" style="stop-color:#FED51B"/>
			<stop  offset="0.07" style="stop-color:#FDCA10"/>
			<stop  offset="0.1" style="stop-color:#FDC70C"/>
			<stop  offset="0.4" style="stop-color:#F3903F"/>
			<stop  offset="0.8" style="stop-color:#ED683C"/>
			<stop  offset="1" style="stop-color:#E93E3A"/>
		</linearGradient>
		<path style="fill:url(#SVGID_1_);" d="M856.919,1.065c-5.38-2.2-11.555-0.927-15.627,3.22L11.264,848.623
			c-5.54,5.637-5.463,14.697,0.174,20.238c2.676,2.63,6.278,4.104,10.03,4.105h830.028c7.904,0,14.311-6.407,14.311-14.311V14.317
			C865.81,8.505,862.298,3.268,856.919,1.065z M55.614,844.344L837.185,49.278v93.836h-28.622v28.622h28.622v57.243h-28.622v28.622
			h28.622v57.243h-28.622v28.622h28.622v57.243h-28.622v28.622h28.622v57.243h-28.622v28.622h28.622v42.932h-28.622v28.622h28.622
			v57.243h-28.622v28.622h28.622v57.243h-28.622v28.622h28.622v85.865H55.614z"/>
		
			<linearGradient id="SVGID_2_" gradientUnits="userSpaceOnUse" x1="495.9729" y1="886.3049" x2="495.9729" y2="-20.0423" gradientTransform="matrix(1 0 0 -1 0 872)">
			<stop  offset="0" style="stop-color:#FFF33B"/>
			<stop  offset="0.014" style="stop-color:#FEE72E"/>
			<stop  offset="0.042" style="stop-color:#FED51B"/>
			<stop  offset="0.07" style="stop-color:#FDCA10"/>
			<stop  offset="0.1" style="stop-color:#FDC70C"/>
			<stop  offset="0.4" style="stop-color:#F3903F"/>
			<stop  offset="0.8" style="stop-color:#ED683C"/>
			<stop  offset="1" style="stop-color:#E93E3A"/>
		</linearGradient>
		<path style="fill:url(#SVGID_2_);" d="M771.055,210.89c-5.38-2.2-11.555-0.927-15.627,3.22L216.095,762.773
			c-5.533,5.644-5.442,14.705,0.202,20.238c2.671,2.618,6.261,4.087,10.001,4.091h539.332c7.904,0,14.311-6.407,14.311-14.311
			V224.142C779.945,218.33,776.433,213.093,771.055,210.89z M751.32,758.479H260.459L751.32,259.103V758.479z"/>
		
			<linearGradient id="SVGID_3_" gradientUnits="userSpaceOnUse" x1="341.8182" y1="886.3049" x2="341.8182" y2="-20.0423" gradientTransform="matrix(1 0 0 -1 0 872)">
			<stop  offset="0" style="stop-color:#FFF33B"/>
			<stop  offset="0.014" style="stop-color:#FEE72E"/>
			<stop  offset="0.042" style="stop-color:#FED51B"/>
			<stop  offset="0.07" style="stop-color:#FDCA10"/>
			<stop  offset="0.1" style="stop-color:#FDC70C"/>
			<stop  offset="0.4" style="stop-color:#F3903F"/>
			<stop  offset="0.8" style="stop-color:#ED683C"/>
			<stop  offset="1" style="stop-color:#E93E3A"/>
		</linearGradient>
		<path style="fill:url(#SVGID_3_);" d="M64.4,615.371c1.538,0,3.065-0.252,4.522-0.744l121.413-40.471
			c0.172,0,0.315-0.172,0.487-0.229c0.172-0.057,0.63-0.315,0.945-0.458c1.346-0.619,2.587-1.445,3.678-2.447
			c0.143-0.129,0.329-0.172,0.472-0.315l404.81-404.696l20.236-20.236c16.768-16.765,16.77-43.948,0.005-60.716
			c-0.002-0.002-0.003-0.003-0.005-0.005l-40.485-40.557c-16.994-16.199-43.713-16.199-60.706,0l-20.25,20.235L94.754,469.515
			c-0.143,0.143-0.186,0.329-0.315,0.472c-1.002,1.091-1.828,2.332-2.447,3.678c-0.143,0.315-0.329,0.615-0.458,0.945
			c-0.129,0.329-0.172,0.315-0.229,0.487L50.834,596.538c-2.498,7.499,1.557,15.602,9.055,18.1
			C61.344,615.122,62.867,615.37,64.4,615.371z M185.828,540.354l-20.236-20.25l384.532-384.532l20.236,20.25L185.828,540.354z
			 M540.021,64.734c5.661-5.395,14.56-5.395,20.221,0l40.485,40.485c5.587,5.588,5.587,14.647,0,20.235l-10.118,10.132
			l-60.735-60.735L540.021,64.734z M509.639,95.101l20.25,20.235L145.357,499.869l-20.25-20.236L509.639,95.101z M111.14,506.122
			l48.199,48.199l-72.313,24.114L111.14,506.122z"/>
	</g>
</g>
<g>
</g>
<g>
</g>
<g>
</g>
<g>
</g>
<g>
</g>
<g>
</g>
<g>
</g>
<g>
</g>
<g>
</g>
<g>
</g>
<g>
</g>
<g>
</g>
<g>
</g>
<g>
</g>
<g>
</g>
</svg>
