<?xml version="1.0" encoding="iso-8859-1"?>
<!-- Generator: Adobe Illustrator 21.0.0, SVG Export Plug-In . SVG Version: 6.00 Build 0)  -->
<svg version="1.1" id="Capa_1" xmlns="http://www.w3.org/2000/svg" xmlns:xlink="http://www.w3.org/1999/xlink" x="0px" y="0px"
	 viewBox="0 0 858.659 858.659" style="enable-background:new 0 0 858.659 858.659;" xml:space="preserve">
<g>
	<g id="Pencil">
		
			<linearGradient id="SVGID_1_" gradientUnits="userSpaceOnUse" x1="429.3294" y1="886.3108" x2="429.3294" y2="-20.0364" gradientTransform="matrix(1 0 0 -1 0 872)">
			<stop  offset="0" style="stop-color:#FFF33B"/>
			<stop  offset="0.014" style="stop-color:#FEE72E"/>
			<stop  offset="0.042" style="stop-color:#FED51B"/>
			<stop  offset="0.07" style="stop-color:#FDCA10"/>
			<stop  offset="0.1" style="stop-color:#FDC70C"/>
			<stop  offset="0.4" style="stop-color:#F3903F"/>
			<stop  offset="0.8" style="stop-color:#ED683C"/>
			<stop  offset="1" style="stop-color:#E93E3A"/>
		</linearGradient>
		<path style="fill:url(#SVGID_1_);" d="M486.573,0H372.086c-39.499,0.047-71.507,32.055-71.554,71.554v572.433
			c0.043,12.353,5.435,24.081,14.783,32.156c0.305,1.286,0.786,2.524,1.431,3.678l100.176,171.73
			c3.979,6.829,12.741,9.139,19.57,5.159c2.137-1.245,3.914-3.023,5.159-5.159l100.176-171.73c0.645-1.154,1.126-2.392,1.431-3.678
			c9.38-8.059,14.804-19.79,14.869-32.156V71.554C558.079,32.055,526.071,0.047,486.573,0z M472.262,643.987
			c0,7.904-6.407,14.311-14.311,14.311c-7.904,0-14.311-6.407-14.311-14.311V200.351h28.622V643.987z M415.019,643.987
			c0,7.904-6.407,14.311-14.311,14.311c-7.904,0-14.311-6.407-14.311-14.311V200.351h28.622V643.987z M529.505,128.797H329.154
			v-14.311h200.352V128.797z M329.154,171.73v-14.311h200.352v14.311H329.154z M329.154,643.987V200.351h28.622v443.635
			c0,7.904-6.407,14.311-14.311,14.311C335.561,658.298,329.154,651.891,329.154,643.987z M500.884,643.987V200.351h28.622v443.635
			c0,7.904-6.407,14.311-14.311,14.311S500.884,651.891,500.884,643.987z M329.154,71.554c0-23.711,19.221-42.932,42.932-42.932
			h114.487c23.711,0,42.932,19.222,42.932,42.932v14.311H329.154V71.554z M429.329,815.946l-25.173-43.161h50.345L429.329,815.946z
			 M471.203,744.163h-83.747l-33.387-57.243h3.707c6.377-0.049,11.931-4.365,13.552-10.533l0.758-0.63
			c16.179,14.884,41.065,14.884,57.243,0c16.179,14.884,41.065,14.884,57.243,0l0.759,0.63c1.622,6.168,7.175,10.484,13.552,10.533
			h3.706L471.203,744.163z"/>
	</g>
</g>
<g>
</g>
<g>
</g>
<g>
</g>
<g>
</g>
<g>
</g>
<g>
</g>
<g>
</g>
<g>
</g>
<g>
</g>
<g>
</g>
<g>
</g>
<g>
</g>
<g>
</g>
<g>
</g>
<g>
</g>
</svg>
