<?xml version="1.0" encoding="iso-8859-1"?>
<!-- Generator: Adobe Illustrator 21.0.0, SVG Export Plug-In . SVG Version: 6.00 Build 0)  -->
<svg version="1.1" id="Capa_1" xmlns="http://www.w3.org/2000/svg" xmlns:xlink="http://www.w3.org/1999/xlink" x="0px" y="0px"
	 viewBox="0 0 858.649 858.649" style="enable-background:new 0 0 858.649 858.649;" xml:space="preserve">
<g>
	<g id="Schoolbag">
		
			<linearGradient id="SVGID_1_" gradientUnits="userSpaceOnUse" x1="429.3246" y1="864.8446" x2="429.3246" y2="-22.4263" gradientTransform="matrix(1 0 0 -1 0 843.3784)">
			<stop  offset="0" style="stop-color:#FFF33B"/>
			<stop  offset="0.014" style="stop-color:#FEE72E"/>
			<stop  offset="0.042" style="stop-color:#FED51B"/>
			<stop  offset="0.07" style="stop-color:#FDCA10"/>
			<stop  offset="0.1" style="stop-color:#FDC70C"/>
			<stop  offset="0.4" style="stop-color:#F3903F"/>
			<stop  offset="0.8" style="stop-color:#ED683C"/>
			<stop  offset="1" style="stop-color:#E93E3A"/>
		</linearGradient>
		<path style="fill:url(#SVGID_1_);" d="M658.298,329.149c23.711,0,42.932-19.221,42.932-42.932V128.797
			c0-23.711-19.222-42.932-42.932-42.932h-14.311V71.554c0-23.711-19.222-42.932-42.932-42.932s-42.932,19.222-42.932,42.932v14.311
			H529.5V42.932C529.5,19.222,510.279,0,486.568,0H372.081c-23.711,0-42.932,19.222-42.932,42.932v42.932h-28.622V71.554
			c0-23.711-19.221-42.932-42.932-42.932c-23.711,0-42.932,19.222-42.932,42.932v14.311h-14.311
			c-23.711,0-42.932,19.222-42.932,42.932v157.419c0,23.711,19.222,42.932,42.932,42.932h14.311v14.311h-14.311
			c-23.711,0-42.932,19.222-42.932,42.932v429.325c0,23.711,19.222,42.932,42.932,42.932h457.946
			c23.711,0,42.932-19.222,42.932-42.932V386.392c0-23.711-19.222-42.932-42.932-42.932h-14.311v-14.311H658.298z M586.744,71.554
			c0-7.904,6.407-14.311,14.311-14.311s14.311,6.407,14.311,14.311v14.311h-28.622V71.554z M357.771,42.932
			c0-7.904,6.407-14.311,14.311-14.311h114.487c7.904,0,14.311,6.407,14.311,14.311v42.932H357.771V42.932z M243.284,71.554
			c0-7.904,6.407-14.311,14.311-14.311c7.904,0,14.311,6.407,14.311,14.311v14.311h-28.622V71.554z M658.298,372.081
			c7.904,0,14.311,6.407,14.311,14.311v429.325c0,7.904-6.407,14.311-14.311,14.311H200.351c-7.904,0-14.311-6.407-14.311-14.311
			V386.392c0-7.904,6.407-14.311,14.311-14.311h14.311v42.932c0,7.904,6.407,14.311,14.311,14.311h57.243
			c7.904,0,14.311-6.407,14.311-14.311v-42.932h257.595v42.932c0,7.904,6.407,14.311,14.311,14.311h57.243
			c7.904,0,14.311-6.407,14.311-14.311v-42.932H658.298z M243.284,400.703V257.595h28.622v143.108H243.284z M300.527,343.46v-14.311
			h257.595v14.311H300.527z M586.744,400.703V257.595h28.622v143.108H586.744z M629.676,228.973h-57.243
			c-7.904,0-14.311,6.407-14.311,14.311v57.243H300.527v-57.243c0-7.904-6.407-14.311-14.311-14.311h-57.243
			c-7.904,0-14.311,6.407-14.311,14.311v57.243h-14.311c-7.904,0-14.311-6.407-14.311-14.311V128.797
			c0-7.904,6.407-14.311,14.311-14.311h457.946c7.904,0,14.311,6.407,14.311,14.311v157.419c0,7.904-6.407,14.311-14.311,14.311
			h-14.311v-57.243C643.987,235.38,637.58,228.973,629.676,228.973z"/>
		
			<linearGradient id="SVGID_2_" gradientUnits="userSpaceOnUse" x1="429.3246" y1="864.8446" x2="429.3246" y2="-22.4263" gradientTransform="matrix(1 0 0 -1 0 843.3784)">
			<stop  offset="0" style="stop-color:#FFF33B"/>
			<stop  offset="0.014" style="stop-color:#FEE72E"/>
			<stop  offset="0.042" style="stop-color:#FED51B"/>
			<stop  offset="0.07" style="stop-color:#FDCA10"/>
			<stop  offset="0.1" style="stop-color:#FDC70C"/>
			<stop  offset="0.4" style="stop-color:#F3903F"/>
			<stop  offset="0.8" style="stop-color:#ED683C"/>
			<stop  offset="1" style="stop-color:#E93E3A"/>
		</linearGradient>
		<path style="fill:url(#SVGID_2_);" d="M572.433,500.879H286.216c-23.711,0-42.932,19.222-42.932,42.932v85.865
			c0.047,39.499,32.055,71.507,71.554,71.554h228.973c39.499-0.047,71.507-32.056,71.554-71.554v-85.865
			C615.365,520.1,596.144,500.879,572.433,500.879z M586.744,629.676c0,23.711-19.222,42.932-42.932,42.932H314.838
			c-23.711,0-42.932-19.222-42.932-42.932v-85.865c0-7.904,6.407-14.311,14.311-14.311h286.216c7.904,0,14.311,6.407,14.311,14.311
			V629.676z"/>
	</g>
</g>
<g>
</g>
<g>
</g>
<g>
</g>
<g>
</g>
<g>
</g>
<g>
</g>
<g>
</g>
<g>
</g>
<g>
</g>
<g>
</g>
<g>
</g>
<g>
</g>
<g>
</g>
<g>
</g>
<g>
</g>
</svg>
